<svg xmlns="http://www.w3.org/2000/svg" viewBox="0 0 154.28 161.27"><defs><style>.cls-1{fill:#ffc900;}.cls-2{fill:#ffe15c;}</style></defs><g id="Layer_2" data-name="Layer 2"><g id="Layer_11" data-name="Layer 11"><path class="cls-1" d="M126.78,10.56V0H27.51V10.56H0L1.26,31.38A60.94,60.94,0,0,0,31.62,80.44l16.43,9.48A77.28,77.28,0,0,0,60.5,102.51l8.4,6.65,0,13.32a49.32,49.32,0,0,0-36.23,27.63H22.38v11.16H132V150.11H121.64a49.31,49.31,0,0,0-36.21-27.63l0-13.32,8.39-6.65a77.28,77.28,0,0,0,12.45-12.59l16.43-9.48A60.94,60.94,0,0,0,153,31.38l1.26-20.82ZM16.72,36.51l-.66-10.84H27.51v1.77a107.85,107.85,0,0,0,6.42,36.87A34.53,34.53,0,0,1,16.72,36.51Zm120.84,0a34.53,34.53,0,0,1-17.21,27.8,107.86,107.86,0,0,0,6.43-36.87V25.67h11.44Z"/><path class="cls-2" d="M45.31,58.62c-3.68-13.23-3.81-26.9-3.92-38.95a5,5,0,0,1,5-5.09,5.23,5.23,0,0,1,5.09,5C51.57,31,51.69,44,55,55.92a5,5,0,0,1-3.5,6.21,5.35,5.35,0,0,1-1.36.18A5,5,0,0,1,45.31,58.62Z"/><path class="cls-2" d="M55.21,75.54a5.25,5.25,0,1,1,5.25-5.25A5.25,5.25,0,0,1,55.21,75.54Z"/><path class="cls-2" d="M126.78,10.56V0h-.68L46.94,89.28l1.11.64A77.28,77.28,0,0,0,60.5,102.51l8.4,6.65,0,13.32a49.32,49.32,0,0,0-36.23,27.63H22.38v11.16H132V150.11H121.64a49.31,49.31,0,0,0-36.21-27.63l0-13.32,8.39-6.65a77.28,77.28,0,0,0,12.45-12.59l16.43-9.48A60.94,60.94,0,0,0,153,31.38l1.26-20.82Zm10.78,25.95a34.53,34.53,0,0,1-17.21,27.8,107.86,107.86,0,0,0,6.43-36.87V25.67h11.44Z"/><path class="cls-2" d="M85.43,122.48A19.16,19.16,0,0,1,77,124.33a20.85,20.85,0,0,1-8.15-1.85,49.32,49.32,0,0,0-36.23,27.63H22.38v11.16H132V150.11H121.64A49.31,49.31,0,0,0,85.43,122.48Z"/><rect class="cls-1" x="22.38" y="150.11" width="109.58" height="11.15"/></g></g></svg>