<svg xmlns="http://www.w3.org/2000/svg" viewBox="0 0 512.17 532.28"><defs><style>.cls-1{fill:#ffce00;}.cls-2{fill:#dd970a;}.cls-3{fill:#ffefb1;}.cls-4,.cls-5{fill:none;stroke-linecap:round;stroke-miterlimit:10;stroke-width:21.45px;}.cls-4{stroke:#dd970a;}.cls-5{stroke:#ffce00;}.cls-6{fill:#c16d08;}.cls-7{fill:#fff;}</style></defs><g id="Layer_2" data-name="Layer 2"><g id="Layer_1-2" data-name="Layer 1"><path class="cls-1" d="M356.6,350l1.32-2.69a28.21,28.21,0,0,1-12.48-11.13,28.2,28.2,0,0,0,12.47,11.11l3-6.22h0l2.25-4.58c-9.42-4.56-16.28-16.24,3.21-29.3C454.22,241.91,513,169.14,512,115.83c4.87-86.39-114.72-105-99.24,12.18l16.47.08c-21.3-68.36,62.43-93.55,64.65-12.32-8.61,77.23-76.14,118.38-146,183.46C324,322.64,340.89,348.08,356.6,350ZM436.69,66.71c11.38-9.7,27.4-10.48,40.81-2a43.53,43.53,0,0,1,14,14.51,43.35,43.35,0,0,0-14-14.49c-13.41-8.49-29.43-7.71-40.81,2Q416.42,84,436.69,66.71Zm-82.76,242.9,57.6-49.05c28.54-24.05,50.87-47.79,66.35-70.55,16.91-24.87,26.24-49.44,27.74-73,.87-16.33-2.4-30.76-9.21-42,6.82,11.22,10.09,25.66,9.22,42-1.5,23.6-10.83,48.17-27.74,73-15.48,22.76-37.8,46.5-66.35,70.55l-57.6,49.05c-6,7.13-7.46,14.38-4.34,21a20.11,20.11,0,0,0,1,1.83,19.27,19.27,0,0,1-1-1.85C346.47,324,348,316.74,353.93,309.61Z"/><path class="cls-2" d="M347.81,299c69.86-65.09,137.39-106.23,146-183.47C491.59,34.32,408,59.7,429.26,128.06h-6.2c-4.75-27.79,0-50,13.55-61.54,11.38-9.7,27.4-10.48,40.81-2,15.25,9.65,23.28,28.52,22.05,51.77-2.72,42.88-33.54,89.44-91.61,138.37l-58,49.4-.17.2c-10.88,12.81-8.12,24-5.5,29.54,2.83,6,8.78,9.52,14.4,12l-2,4.19C340.9,348.09,323.86,322.42,347.81,299Z"/><path class="cls-1" d="M165.46,298.14C95.19,233.66,27.4,193.09,18.3,115.94,20,34.69,103.89,59.16,83,127.7l16.47-.22C114.22,10.17-5.25,29.81.18,116.15-.44,169.47,58.78,241.73,147,306.28c19.58,12.89,12.8,24.63,3.4,29.27l2.28,4.56h0l3.08,6.2a28.39,28.39,0,0,0,12.4-11.21,28.34,28.34,0,0,1-12.41,11.23L157.1,349C172.79,346.93,189.56,321.34,165.46,298.14ZM75.19,66.41c-11.45-9.6-27.47-10.25-40.82-1.64A43.46,43.46,0,0,0,20.46,79.38,43.46,43.46,0,0,1,34.38,64.75c13.35-8.61,29.38-8,40.82,1.64Q95.6,83.51,75.19,66.41ZM164,329.53a20.64,20.64,0,0,1-1,1.86,19,19,0,0,0,1-1.84c3.08-6.64,1.54-13.89-4.47-21L101.59,260c-28.7-23.8-51.18-47.35-66.8-70-17.07-24.72-26.56-49.22-28.21-72.8-1-16.33,2.2-30.8,9-42.08-6.74,11.28-9.91,25.74-8.94,42.06C8.24,140.82,17.73,165.32,34.8,190c15.62,22.62,38.1,46.17,66.8,70l57.91,48.56C165.52,315.64,167.06,322.89,164,329.53Z"/><path class="cls-2" d="M165.56,297.92c-70.28-64.48-138.07-105-147.17-182.2,1.7-81.25,85.5-56.59,64.63,12l6.2,0c4.57-27.83-.34-50-13.94-61.43C63.84,56.59,47.82,56,34.46,64.55c-15.19,9.79-23.1,28.73-21.72,52,3,42.85,34.11,89.15,92.49,137.57L163.56,303l.17.2c11,12.72,8.26,23.94,5.69,29.49-2.8,6-8.73,9.6-14.33,12.15l2,4.18C172.78,346.94,189.66,321.12,165.56,297.92Z"/><path class="cls-1" d="M96.13,37.66C99.65,169.09,136.25,278,208.32,346.72q6.08,5.8,12.49,11.2c.92.8,1.85,1.56,2.78,2.33q5.35,4.38,10.92,8.52c0,.33.07.67.12,1h45.7c0-.35.07-.69.11-1l3-2.24c1.44-1.11,2.89-2.22,4.31-3.37.81-.64,1.61-1.29,2.41-2C373,293.88,412.92,178.75,416.54,37.66a13.21,13.21,0,0,0-1.48-6.46,9.94,9.94,0,0,0-8.65-5.63H106.27a9.92,9.92,0,0,0-8.65,5.63A13.21,13.21,0,0,0,96.13,37.66Z"/><path class="cls-1" d="M365.11,518.22v2.58c-.12,6.36-4.61,11.48-10.14,11.48l-203.6-.19c-5.6,0-10.13-5.27-10.13-11.77v-1.91a13.13,13.13,0,0,1,.91-4.86c1.56-4,5-6.75,9-6.89,37.91-1.42,64.12-14.5,80.17-37.69.12-.17.25-.34.36-.51.78-1.13,1.53-2.29,2.25-3.47l.33-.52c.68-.16,1.5-3,2.34-7.58.1-.56.2-1.13.3-1.74.18-1.08.36-2.24.54-3.46a470.24,470.24,0,0,0,4.12-48.86c.16-4.91.19-9.62.11-13.89,0-1.69-.09-3.3-.17-4.83,0-.6-.06-1.17-.1-1.74-.44-6.82,4.23-12.59,10.11-12.59h11.41a9.36,9.36,0,0,1,7,3.24,12.74,12.74,0,0,1,3.11,9.63s0,.09,0,.13c-.13,1.46-.23,3-.32,4.58,0,.54,0,1.1-.08,1.68-.86,19.41.74,46.94,2.76,62.65.16,1.23.31,2.39.48,3.46q.13.92.27,1.74c.82,4.9,1.66,7.61,2.4,6.93.3.43.6.86.92,1.29.45.62.89,1.24,1.35,1.84s1.08,1.42,1.64,2.11c18.15,23,42.88,34.91,73.26,37.43a10.37,10.37,0,0,1,8.62,7.06A13.22,13.22,0,0,1,365.11,518.22Z"/><path class="cls-2" d="M241.82,380.6a80.79,80.79,0,0,1,13.56.07c5.2.32,10.38.77,15.59.91a14.71,14.71,0,0,1,2.91.39c-.31.26-.62.54-.94.78-.12,1.46-.22,3-.31,4.58a30.59,30.59,0,0,1-8.13,4.55A24.79,24.79,0,0,1,256,393.4a26.15,26.15,0,0,1-14.37-4.48c0-1.69-.09-3.31-.17-4.84-.2-.13-.39-.28-.59-.42A14.43,14.43,0,0,0,241.82,380.6Z"/><path class="cls-1" d="M216.49,322.3a99.78,99.78,0,0,0,7.1,37.95c4.41,10.62,10.61,19,17.88,23.86a26.39,26.39,0,0,0,14.83,4.77,24.74,24.74,0,0,0,8.5-1.52,30.64,30.64,0,0,0,8.17-4.58c5.81-4.48,10.86-11.26,14.75-19.62a93.52,93.52,0,0,0,8-31.68c.24-2.8.36-5.63.38-8.52v-.66c0-36.78-17.82-66.59-39.81-66.59-21.08,0-38.33,27.39-39.72,62.06Q216.49,320,216.49,322.3Z"/><path class="cls-3" d="M250.12,360.25c-.3-.77-.6-1.53-.89-2.33q-2.05-5.39-4-11.2c-23.12-68.74-34.86-177.63-36-309.06a37.21,37.21,0,0,1,.47-6.46c.57-3.37,1.6-5.63,2.78-5.63H136.71c-3,0-5.68,2.26-7.14,5.63a15.36,15.36,0,0,0-1.23,6.46C131.24,169.09,161.47,278,221,346.72q5,5.8,10.31,11.2c.76.8,1.53,1.56,2.3,2.33,2.94,2.92,5.94,5.77,9,8.52,0,.33.06.67.1,1h11c0-.34,0-.68,0-1C252.43,366,251.26,363.17,250.12,360.25Z"/><path class="cls-2" d="M264.75,379.31c0,2.7,0,5.4.05,8.05.16,24.41.85,46.65,2.64,64.33,0,.36.08.73.11,1.08,6.84.74,8.69,8.8,4.45,12.35a6.89,6.89,0,0,1-1.23.81c12.08,38.43,49.73,53.13,94.34,54.87v-2.58c0-6.19-4.14-11.29-9.46-11.73-31.3-2.6-56.6-15.19-74.9-39.54-.46-.6-.91-1.22-1.35-1.84a5.16,5.16,0,0,0,3.08-1.16A7,7,0,0,0,285,458.4a7.31,7.31,0,0,0-1.69-4.75,5.42,5.42,0,0,0-4.09-2h-3.9c-2-15.71-3.62-43.24-2.76-62.66.1-2.19.23-4.29.4-6.25,5.81-4.48,10.86-11.26,14.75-19.62,84.48-67.06,125.16-183,128.82-325.5a13.21,13.21,0,0,0-1.48-6.46h7.66v-30H383.56c-.14,6.71-.37,17.68-.66,24.34-.06,1.87-.15,3.75-.24,5.63C377.35,140.12,353.52,239.87,296.11,323q-9.33,13.53-19.87,26.45c-.83,7.78-1.94,14.54-4.63,20.37a31.57,31.57,0,0,1-1.74,3.24A29.33,29.33,0,0,1,264.75,379.31Z"/><line class="cls-4" x1="226.39" y1="464.99" x2="287.98" y2="464.99"/><line class="cls-4" x1="262.53" y1="454.23" x2="287.98" y2="454.23"/><line class="cls-5" x1="242.09" y1="454.23" x2="262.53" y2="454.23"/><path class="cls-2" d="M234.42,465h-8a10.73,10.73,0,0,1,0-21.45h14.53c5.93,0,4.23,4.8,4.23,10.72A10.72,10.72,0,0,1,234.42,465Z"/><line class="cls-4" x1="242.48" y1="398.46" x2="270.04" y2="398.46"/><line class="cls-4" x1="252.76" y1="389.34" x2="270.04" y2="389.34"/><line class="cls-4" x1="242.48" y1="389.34" x2="246.42" y2="389.34"/><line class="cls-4" x1="213.19" y1="351.45" x2="300.43" y2="351.45"/><line class="cls-4" x1="270.58" y1="339.65" x2="300.43" y2="339.65"/><line class="cls-5" x1="213.19" y1="339.65" x2="270.58" y2="339.65"/><polygon class="cls-2" points="95.86 36.92 416.65 47.64 416.65 29.05 95.86 29.05 95.86 36.92"/><rect class="cls-1" x="91.24" width="331.91" height="29.96"/><path class="cls-3" d="M111.27,0c0,8.72.12,21.57.31,30h39.25c.1-8.38.19-21.22.24-30Z"/><path class="cls-6" d="M365.11,518.22v2.58c-.12,6.36-4.61,11.48-10.14,11.48l-203.6-.19c-5.6,0-10.13-5.27-10.13-11.77v-1.91a13.13,13.13,0,0,1,.91-4.86H364.27A13.22,13.22,0,0,1,365.11,518.22Z"/><path class="cls-7" d="M121,69c-.27,14.39,5.54,23,21.16,22.46-12.84.88-20,10.24-20,24.13-2.19-16.83-10.76-21.93-22-23.29C115.31,91.32,121,82.4,121,69Z"/></g></g></svg>