<svg width="513" height="533" viewBox="0 0 513 533" fill="none" xmlns="http://www.w3.org/2000/svg">
<g clip-path="url(#clip0)">
<path d="M356.6 350L357.92 347.31C352.73 344.947 348.379 341.066 345.44 336.18C348.379 341.057 352.727 344.931 357.91 347.29L360.91 341.07L363.16 336.49C353.74 331.93 346.88 320.25 366.37 307.19C454.22 241.91 513 169.14 512 115.83C516.87 29.44 397.28 10.83 412.76 128.01L429.23 128.09C407.93 59.73 491.66 34.54 493.88 115.77C485.27 193 417.74 234.15 347.88 299.23C324 322.64 340.89 348.08 356.6 350ZM436.69 66.71C448.07 57.01 464.09 56.23 477.5 64.71C483.24 68.3817 488.036 73.3523 491.5 79.22C488.036 73.3575 483.24 68.3934 477.5 64.73C464.09 56.24 448.07 57.02 436.69 66.73C423.176 78.2434 423.176 78.2367 436.69 66.71ZM353.93 309.61L411.53 260.56C440.07 236.51 462.4 212.77 477.88 190.01C494.79 165.14 504.12 140.57 505.62 117.01C506.49 100.68 503.22 86.25 496.41 75.01C503.23 86.23 506.5 100.67 505.63 117.01C504.13 140.61 494.8 165.18 477.89 190.01C462.41 212.77 440.09 236.51 411.54 260.56L353.94 309.61C347.94 316.74 346.48 323.99 349.6 330.61C349.901 331.237 350.235 331.848 350.6 332.44C350.233 331.842 349.899 331.224 349.6 330.59C346.47 324 348 316.74 353.93 309.61Z" fill="#FFCE00"/>
<path d="M347.81 299C417.67 233.91 485.2 192.77 493.81 115.53C491.59 34.3201 408 59.7001 429.26 128.06H423.06C418.31 100.27 423.06 78.0601 436.61 66.5201C447.99 56.8201 464.01 56.0401 477.42 64.5201C492.67 74.1701 500.7 93.0401 499.47 116.29C496.75 159.17 465.93 205.73 407.86 254.66L349.86 304.06L349.69 304.26C338.81 317.07 341.57 328.26 344.19 333.8C347.02 339.8 352.97 343.32 358.59 345.8L356.59 349.99C340.9 348.09 323.86 322.42 347.81 299Z" fill="#DD970A"/>
<path d="M165.46 298.14C95.1898 233.66 27.3998 193.09 18.2998 115.94C19.9998 34.69 103.89 59.16 82.9998 127.7L99.4698 127.48C114.22 10.17 -5.25019 29.81 0.179807 116.15C-0.440193 169.47 58.7798 241.73 147 306.28C166.58 319.17 159.8 330.91 150.4 335.55L152.68 340.11L155.76 346.31C160.924 343.902 165.245 339.996 168.16 335.1C165.248 340.007 160.923 343.921 155.75 346.33L157.1 349C172.79 346.93 189.56 321.34 165.46 298.14ZM75.1898 66.41C63.7398 56.81 47.7198 56.16 34.3698 64.77C28.6514 68.4816 23.8864 73.4864 20.4598 79.38C23.8867 73.478 28.6555 68.4661 34.3798 64.75C47.7298 56.14 63.7598 56.75 75.1998 66.39C88.7998 77.8033 88.7965 77.81 75.1898 66.41ZM164 329.53C163.698 330.167 163.365 330.787 163 331.39C163.367 330.796 163.701 330.181 164 329.55C167.08 322.91 165.54 315.66 159.53 308.55L101.59 260C72.8898 236.2 50.4098 212.65 34.7898 190C17.7198 165.28 8.22981 140.78 6.57981 117.2C5.57981 100.87 8.77981 86.4 15.5798 75.12C8.83981 86.4 5.66981 100.86 6.63981 117.18C8.23981 140.82 17.7298 165.32 34.7998 190C50.4198 212.62 72.8998 236.17 101.6 260L159.51 308.56C165.52 315.64 167.06 322.89 164 329.53Z" fill="#FFCE00"/>
<path d="M165.56 297.92C95.28 233.44 27.49 192.92 18.39 115.72C20.09 34.47 103.89 59.13 83.02 127.72H89.22C93.79 99.89 88.88 77.72 75.28 66.29C63.84 56.59 47.82 56 34.46 64.55C19.27 74.34 11.36 93.28 12.74 116.55C15.74 159.4 46.85 205.7 105.23 254.12L163.56 303L163.73 303.2C174.73 315.92 171.99 327.14 169.42 332.69C166.62 338.69 160.69 342.29 155.09 344.84L157.09 349.02C172.78 346.94 189.66 321.12 165.56 297.92Z" fill="#DD970A"/>
<path d="M96.1298 37.6599C99.6498 169.09 136.25 278 208.32 346.72C212.373 350.587 216.536 354.32 220.81 357.92C221.73 358.72 222.66 359.48 223.59 360.25C227.156 363.17 230.796 366.01 234.51 368.77C234.51 369.1 234.58 369.44 234.63 369.77H280.33C280.33 369.42 280.4 369.08 280.44 368.77L283.44 366.53C284.88 365.42 286.33 364.31 287.75 363.16C288.56 362.52 289.36 361.87 290.16 361.16C373 293.88 412.92 178.75 416.54 37.6599C416.603 35.4158 416.094 33.1925 415.06 31.1999C414.272 29.5596 413.048 28.1671 411.523 27.1743C409.997 26.1815 408.229 25.6266 406.41 25.5699H106.27C104.45 25.6244 102.681 26.1784 101.155 27.1714C99.6293 28.1645 98.4062 29.5582 97.6198 31.1999C96.5821 33.1916 96.0693 35.415 96.1298 37.6599Z" fill="#FFCE00"/>
<path d="M365.11 518.22V520.8C364.99 527.16 360.5 532.28 354.97 532.28L151.37 532.09C145.77 532.09 141.24 526.82 141.24 520.32V518.41C141.233 516.747 141.541 515.098 142.15 513.55C143.71 509.55 147.15 506.8 151.15 506.66C189.06 505.24 215.27 492.16 231.32 468.97C231.44 468.8 231.57 468.63 231.68 468.46C232.46 467.33 233.21 466.17 233.93 464.99L234.26 464.47C234.94 464.31 235.76 461.47 236.6 456.89C236.7 456.33 236.8 455.76 236.9 455.15C237.08 454.07 237.26 452.91 237.44 451.69C239.662 435.486 241.037 419.177 241.56 402.83C241.72 397.92 241.75 393.21 241.67 388.94C241.67 387.25 241.58 385.64 241.5 384.11C241.5 383.51 241.44 382.94 241.4 382.37C240.96 375.55 245.63 369.78 251.51 369.78H262.92C264.25 369.792 265.562 370.087 266.769 370.645C267.976 371.204 269.05 372.014 269.92 373.02C271.069 374.328 271.937 375.857 272.472 377.513C273.007 379.169 273.197 380.918 273.03 382.65C273.03 382.65 273.03 382.74 273.03 382.78C272.9 384.24 272.8 385.78 272.71 387.36C272.71 387.9 272.71 388.46 272.63 389.04C271.77 408.45 273.37 435.98 275.39 451.69C275.55 452.92 275.7 454.08 275.87 455.15C275.957 455.763 276.047 456.343 276.14 456.89C276.96 461.79 277.8 464.5 278.54 463.82C278.84 464.25 279.14 464.68 279.46 465.11C279.91 465.73 280.35 466.35 280.81 466.95C281.27 467.55 281.89 468.37 282.45 469.06C300.6 492.06 325.33 503.97 355.71 506.49C357.67 506.725 359.522 507.513 361.049 508.764C362.576 510.015 363.714 511.675 364.33 513.55C364.869 515.047 365.133 516.629 365.11 518.22V518.22Z" fill="#FFCE00"/>
<path d="M241.82 380.6C246.334 380.243 250.87 380.267 255.38 380.67C260.58 380.99 265.76 381.44 270.97 381.58C271.95 381.613 272.925 381.743 273.88 381.97C273.57 382.23 273.26 382.51 272.94 382.75C272.82 384.21 272.72 385.75 272.63 387.33C270.168 389.253 267.426 390.787 264.5 391.88C261.777 392.88 258.9 393.394 256 393.4C250.874 393.347 245.877 391.789 241.63 388.92C241.63 387.23 241.54 385.61 241.46 384.08C241.26 383.95 241.07 383.8 240.87 383.66C241.299 382.678 241.618 381.652 241.82 380.6V380.6Z" fill="#DD970A"/>
<path d="M216.49 322.3C216.363 335.292 218.775 348.183 223.59 360.25C228 370.87 234.2 379.25 241.47 384.11C245.82 387.156 250.989 388.818 256.3 388.88C259.2 388.875 262.077 388.361 264.8 387.36C267.742 386.261 270.497 384.716 272.97 382.78C278.78 378.3 283.83 371.52 287.72 363.16C292.225 353.151 294.933 342.428 295.72 331.48C295.96 328.68 296.08 325.85 296.1 322.96V322.3C296.1 285.52 278.28 255.71 256.29 255.71C235.21 255.71 217.96 283.1 216.57 317.77C216.516 319.257 216.49 320.767 216.49 322.3Z" fill="#FFCE00"/>
<path d="M250.12 360.25C249.82 359.48 249.52 358.72 249.23 357.92C247.863 354.327 246.53 350.593 245.23 346.72C222.11 277.98 210.37 169.09 209.23 37.6599C209.198 35.497 209.356 33.3355 209.7 31.1999C210.27 27.8299 211.3 25.5699 212.48 25.5699H136.71C133.71 25.5699 131.03 27.8299 129.57 31.1999C128.698 33.2392 128.279 35.4431 128.34 37.6599C131.24 169.09 161.47 278 221 346.72C224.333 350.587 227.77 354.32 231.31 357.92C232.07 358.72 232.84 359.48 233.61 360.25C236.55 363.17 239.55 366.02 242.61 368.77C242.61 369.1 242.67 369.44 242.71 369.77H253.71C253.71 369.43 253.71 369.09 253.71 368.77C252.43 366 251.26 363.17 250.12 360.25Z" fill="#FFEFB1"/>
<path d="M264.75 379.31C264.75 382.01 264.75 384.7 264.8 387.36C264.96 411.77 265.65 434.01 267.44 451.69C267.44 452.05 267.52 452.42 267.55 452.77C274.39 453.51 276.24 461.57 272 465.12C271.622 465.433 271.209 465.702 270.77 465.92C282.85 504.36 320.5 519.06 365.11 520.8V518.22C365.11 512.03 360.97 506.93 355.65 506.49C324.35 503.89 299.05 491.3 280.75 466.95C280.29 466.35 279.84 465.73 279.4 465.11C280.526 465.07 281.607 464.663 282.48 463.95C283.291 463.275 283.939 462.425 284.376 461.464C284.812 460.503 285.026 459.455 285 458.4C285.018 456.666 284.419 454.983 283.31 453.65C282.814 453.04 282.191 452.545 281.485 452.2C280.779 451.854 280.006 451.667 279.22 451.65H275.32C273.32 435.94 271.7 408.41 272.56 388.99C272.66 386.8 272.79 384.7 272.96 382.74C278.77 378.26 283.82 371.48 287.71 363.12C372.19 296.06 412.87 180.12 416.53 37.62C416.594 35.3759 416.084 33.1526 415.05 31.16H422.71V1.16003H383.56C383.42 7.87003 383.19 18.84 382.9 25.5C382.84 27.37 382.75 29.25 382.66 31.13C377.35 140.12 353.52 239.87 296.11 323C289.89 332.02 283.267 340.837 276.24 349.45C275.41 357.23 274.3 363.99 271.61 369.82C271.093 370.933 270.512 372.015 269.87 373.06C268.46 375.37 266.737 377.473 264.75 379.31V379.31Z" fill="#DD970A"/>
<path d="M226.39 464.99H287.98" stroke="#DD970A" stroke-width="21.45" stroke-miterlimit="10" stroke-linecap="round"/>
<path d="M262.53 454.23H287.98" stroke="#DD970A" stroke-width="21.45" stroke-miterlimit="10" stroke-linecap="round"/>
<path d="M242.09 454.23H262.53" stroke="#FFCE00" stroke-width="21.45" stroke-miterlimit="10" stroke-linecap="round"/>
<path d="M234.42 465H226.42C223.632 464.915 220.987 463.748 219.045 461.746C217.104 459.744 216.018 457.064 216.018 454.275C216.018 451.486 217.104 448.807 219.045 446.805C220.987 444.802 223.632 443.635 226.42 443.55H240.95C246.88 443.55 245.18 448.35 245.18 454.27C245.181 455.682 244.904 457.08 244.363 458.385C243.822 459.689 243.029 460.874 242.03 461.871C241.03 462.868 239.843 463.658 238.537 464.195C237.231 464.732 235.832 465.005 234.42 465Z" fill="#DD970A"/>
<path d="M242.48 398.46H270.04" stroke="#DD970A" stroke-width="21.45" stroke-miterlimit="10" stroke-linecap="round"/>
<path d="M252.76 389.34H270.04" stroke="#DD970A" stroke-width="21.45" stroke-miterlimit="10" stroke-linecap="round"/>
<path d="M242.48 389.34H246.42" stroke="#DD970A" stroke-width="21.45" stroke-miterlimit="10" stroke-linecap="round"/>
<path d="M213.19 351.45H300.43" stroke="#DD970A" stroke-width="21.45" stroke-miterlimit="10" stroke-linecap="round"/>
<path d="M270.58 339.65H300.43" stroke="#DD970A" stroke-width="21.45" stroke-miterlimit="10" stroke-linecap="round"/>
<path d="M213.19 339.65H270.58" stroke="#FFCE00" stroke-width="21.45" stroke-miterlimit="10" stroke-linecap="round"/>
<path d="M95.8599 36.92L416.65 47.64V29.05H95.8599V36.92Z" fill="#DD970A"/>
<path d="M423.15 0H91.2397V29.96H423.15V0Z" fill="#FFCE00"/>
<path d="M111.27 0C111.27 8.72 111.39 21.57 111.58 30H150.83C150.93 21.62 151.02 8.78 151.07 0H111.27Z" fill="#FFEFB1"/>
<path d="M365.11 518.22V520.8C364.99 527.16 360.5 532.28 354.97 532.28L151.37 532.09C145.77 532.09 141.24 526.82 141.24 520.32V518.41C141.233 516.747 141.541 515.098 142.15 513.55H364.27C364.829 515.043 365.114 516.625 365.11 518.22V518.22Z" fill="#C16D08"/>
</g>
<defs>
<clipPath id="clip0">
<rect width="512.17" height="532.28" fill="white"/>
</clipPath>
</defs>
</svg>
