<svg xmlns="http://www.w3.org/2000/svg" xmlns:xlink="http://www.w3.org/1999/xlink" viewBox="0 0 47.5 60.26"><defs><style>.cls-1{fill:url(#linear-gradient);}.cls-2{fill:url(#linear-gradient-2);}.cls-3{fill:url(#linear-gradient-3);}.cls-4{fill:url(#linear-gradient-4);}</style><linearGradient id="linear-gradient" x1="1.76" y1="952.1" x2="55.37" y2="952.1" gradientTransform="matrix(-0.91, 0.4, 0.4, 0.91, -330.28, -856.9)" gradientUnits="userSpaceOnUse"><stop offset="0" stop-color="#6dd0e7"/><stop offset="1" stop-color="#01a7db"/></linearGradient><linearGradient id="linear-gradient-2" x1="12.6" y1="931.64" x2="49.92" y2="931.64" gradientTransform="matrix(-0.91, 0.4, 0.4, 0.91, -330.28, -856.9)" gradientUnits="userSpaceOnUse"><stop offset="0" stop-color="#b4df86"/><stop offset="1" stop-color="#84c743"/></linearGradient><linearGradient id="linear-gradient-3" x1="30.94" y1="994.7" x2="15.5" y2="962.09" xlink:href="#linear-gradient"/><linearGradient id="linear-gradient-4" x1="12.67" y1="974.34" x2="44.18" y2="966.12" xlink:href="#linear-gradient-2"/></defs><g id="Layer_2" data-name="Layer 2"><g id="Layer_9" data-name="Layer 9"><path class="cls-1" d="M32.64,18.14c1.93,4.49-2.11,8.34-5,11.24-3.26,3.29-5.83,6.48-4.59,10.79-.66-1.36-1.35-2.38-2.2-4.12-2.1-4.3-.12-8.15,2.88-11.38,2.85-3.08,8.12-7.18,6.05-12,.59,1.38,2.1,3.71,2.86,5.48Z"/><path class="cls-2" d="M0,0A102.26,102.26,0,0,1,20.88,5.27c2.65,1,5.89,2.2,7.43,4.74a34.58,34.58,0,0,1,3.84,7.23c-.62-2-2.51-3.6-3.14-5.6a5.48,5.48,0,0,0-.44-1.19l2.9,5.23-.31-.54.22.37c-2.75-3.75-8.19-5-12.41-6.37A99.62,99.62,0,0,0,3.13,5.6c-.4-.06-1.41-2.46-1.59-2.78S.33.05,0,0Z"/><path class="cls-3" d="M45.82,45.42a5.7,5.7,0,0,1,1,6.71c-1.29,2.82-2.28,5.22-.51,8.13-1.08-1.78-3.25-2.92-4.34-4.72a6.9,6.9,0,0,1-.07-7c1.2-2.43,1.91-4.6.25-7l.29.33L42,41.37c-.79-.89.69.69.81.81,1,1.08,2,2.15,3,3.24Z"/><path class="cls-4" d="M21.84,37.79a6.23,6.23,0,0,0,4,2.63h0c4.21.91,9.83-1.14,13.65-.52,2.57.41,4.17,2.19,5.52,4.24A8.82,8.82,0,0,1,46.28,46c.2.3.39.6.58.9a10.37,10.37,0,0,0-5.65-1.71h0c-3.19-.15-6.7.78-9.82.8A7.27,7.27,0,0,1,25.2,43l0,.07-.13-.19L25,42.74a29.52,29.52,0,0,1-3.29-5.21Z"/></g></g></svg>