<svg xmlns="http://www.w3.org/2000/svg" xmlns:xlink="http://www.w3.org/1999/xlink" viewBox="0 0 65.46 34.8"><defs><style>.cls-1{fill:url(#linear-gradient);}.cls-2{fill:url(#linear-gradient-2);}.cls-3{fill:url(#linear-gradient-3);}</style><linearGradient id="linear-gradient" x1="1377.97" y1="-48.53" x2="1336.26" y2="-0.5" gradientTransform="translate(-661.39 1176.1) rotate(-58.27)" gradientUnits="userSpaceOnUse"><stop offset="0" stop-color="#f44274"/><stop offset="1" stop-color="#e51f9a"/></linearGradient><linearGradient id="linear-gradient-2" x1="1300.22" y1="-22.75" x2="1446.52" y2="38.86" gradientTransform="translate(-661.39 1176.1) rotate(-58.27)" gradientUnits="userSpaceOnUse"><stop offset="0" stop-color="#b5188d"/><stop offset="1" stop-color="#4e69ae"/></linearGradient><linearGradient id="linear-gradient-3" x1="1335.43" y1="-16.45" x2="1335.43" y2="-16.45" xlink:href="#linear-gradient-2"/></defs><g id="Layer_2" data-name="Layer 2"><g id="Layer_8" data-name="Layer 8"><path class="cls-1" d="M.19,1.27c-1.73,18.2,8.44,35.21,28.39,33.39,15.09-1.37,31-3.56,36.88-19.94-.58,1.63-11.93-.52-12.58,1.27A27.74,27.74,0,0,1,42.06,29.72a31.7,31.7,0,0,1-8.2,3.8q-4.3,1,1.66,0a25.82,25.82,0,0,1-5.86-1C15.78,28.8,11.58,12.42,12.77,0,12.7.72.28.36.19,1.27Z"/><path class="cls-2" d="M65.46,14.72c-.58,1.63-11.93-.52-12.58,1.27A27.74,27.74,0,0,1,42.06,29.72a30.22,30.22,0,0,1-7.64,3.61c.82.13,1.7.27,2.63.39C49.26,32,60.67,28,65.46,14.72Z"/><polygon class="cls-3" points="26.92 31.54 26.92 31.54 26.92 31.54 26.92 31.54"/></g></g></svg>