<svg xmlns="http://www.w3.org/2000/svg" viewBox="0 0 2112.48 543"><defs><style>.cls-1{fill:#fec830;}.cls-2{fill:#fff;}</style></defs><g id="Layer_2" data-name="Layer 2"><g id="Слой_6_Image" data-name="Слой 6 Image"><polygon class="cls-1" points="794.88 75.41 2078.38 0 2112.48 463.07 825.58 543 794.88 75.41"/><path d="M27.89,516.88C23.35,407.75,0,53.81,0,53.81L682.72,12.88l172.8,225.86L710.76,477.47Z"/><path class="cls-2" d="M164.76,279.91a108.54,108.54,0,0,1,5.71-43.54A106.22,106.22,0,0,1,191.74,200a110.4,110.4,0,0,1,34.57-25.57A120.18,120.18,0,0,1,271,162.83q26.72-1.8,47.78,4.7a127.57,127.57,0,0,1,39.73,20.64L327,231.64a89.52,89.52,0,0,0-24.8-13.11,71.78,71.78,0,0,0-27.37-3,50.66,50.66,0,0,0-37.29,19.27q-14.48,17.74-12.84,42,1.74,25.83,19,41.54t42.28,14q20.44-1.4,33.23-11.42l-1.79-26.49-41.94,2.84L272.63,255l97.14-6.56,6.44,95.31q-37.44,35-89.22,38.46-32.53,2.21-59.67-10a103.42,103.42,0,0,1-43.78-36.39Q166.9,311.62,164.76,279.91Z"/><path class="cls-2" d="M423.57,262.75a106.58,106.58,0,0,1,5.87-43.23,109.43,109.43,0,0,1,21.41-36.58,111.6,111.6,0,0,1,34.63-25.87,122.14,122.14,0,0,1,90.21-6.16,110.11,110.11,0,0,1,37.52,20.84A107.2,107.2,0,0,1,639,205.07a109,109,0,0,1,11.49,42.35,107.11,107.11,0,0,1-5.86,43.24,108.92,108.92,0,0,1-21.34,36.61,111.07,111.07,0,0,1-34.54,25.82,117.58,117.58,0,0,1-44.48,11.72q-31.93,2.16-59-10.71a106.89,106.89,0,0,1-43.38-37A108,108,0,0,1,423.57,262.75Zm59.9-4.05q1.57,23.43,18,39.2t39.84,14.18q23.7-1.59,37.59-19.19t12.28-41.46q-1.58-23.43-18-39.2T533,198.06q-23.4,1.58-37.29,19.18T483.47,258.7Z"/><path class="cls-2" d="M980.52,409.63l-14.26-211,58.43-3.94L1039,405.69Z"/><path class="cls-2" d="M1058.26,244l-3.47-51.37,185.15-12.5,3.47,51.36L1180,235.75l10.79,159.69-58.43,3.94-10.79-159.69Z"/><path class="cls-2" d="M1239.49,310.38a91.76,91.76,0,0,1,3.86-33.82,82.89,82.89,0,0,1,15-28.29,78.51,78.51,0,0,1,24.91-19.87,82.63,82.63,0,0,1,32.73-8.94q20.46-1.38,37,4.68A67.5,67.5,0,0,1,1380.21,242a88.79,88.79,0,0,1,16.85,27.33,112,112,0,0,1,7.39,33.95c.36,5.2.52,9.13.51,11.79l-109.21,7.37q4.29,13.17,14,19.54t23.21,5.45Q1352,346.1,1368,328l33.43,24.3q-23.84,34.56-68.73,37.59-25.46,1.73-46-7.53a76.52,76.52,0,0,1-33-27.93Q1241.19,335.71,1239.49,310.38Zm53.4-17.2,56.66-3.83q-2.55-13.58-10.58-21t-19.67-6.65a24.67,24.67,0,0,0-18.08,9.27Q1294.19,279.49,1292.89,293.18Z"/><path class="cls-2" d="M1424.86,297.87a92,92,0,0,1,3.85-33.83,83.08,83.08,0,0,1,15-28.29,78.72,78.72,0,0,1,24.9-19.87,82.51,82.51,0,0,1,32.74-8.93q20.46-1.38,37,4.67a67.42,67.42,0,0,1,27.23,17.83,88.62,88.62,0,0,1,16.85,27.32,112.41,112.41,0,0,1,7.39,34q.53,7.8.5,11.79l-109.2,7.38q4.29,13.16,14,19.53t23.21,5.46q19.13-1.31,35.06-19.45l33.43,24.3q-23.85,34.56-68.73,37.59-25.47,1.73-46-7.53a76.55,76.55,0,0,1-33-27.93Q1426.57,323.19,1424.86,297.87Zm53.4-17.21,56.66-3.83q-2.55-13.57-10.59-21t-19.67-6.65a24.63,24.63,0,0,0-18.07,9.28Q1479.54,267,1478.26,280.66Z"/><path class="cls-2" d="M1622.35,366.29l-11-163.07,57.25-3.87,1.56,23.1q19.15-28.2,47-30.08,25.9-1.76,41.78,13.29t17.77,43l7.2,106.71-57.25,3.86-6-88.08q-.88-13.07-7.64-19.76t-17.23-6q-10.79.74-16.94,8.37t-5.29,20.56l5.95,88.08Z"/><path class="cls-2" d="M1802.61,332.85l19.14-36.13q29.49,16.26,57.31,14.38,14.42-1,13.81-10c-.19-2.86-2.32-5.09-6.36-6.69s-11-3.31-20.75-5.14q-11.1-2.12-18.92-4.18a100.61,100.61,0,0,1-16.06-5.81,51,51,0,0,1-13.36-8.45,39.6,39.6,0,0,1-8.72-12.05,44.66,44.66,0,0,1-4.24-16.82q-1.76-25.9,15.37-41.58t46.27-17.64a126.5,126.5,0,0,1,36,2.76,116.3,116.3,0,0,1,32.62,12.31l-17.12,37.66a144.24,144.24,0,0,0-26.33-8.93q-13.23-3.06-22.93-2.4-6.48.43-9.72,2.81a6.76,6.76,0,0,0-3,6.23q.29,4.31,6.29,6.69t21.16,5.69q11.09,2.26,18.93,4.47a112.4,112.4,0,0,1,16.07,6,50.82,50.82,0,0,1,13.36,8.44,40.13,40.13,0,0,1,8.71,11.84,42.33,42.33,0,0,1,4.21,16.32q1.8,26.72-15.18,42.26t-47.61,17.61Q1837.84,355.43,1802.61,332.85Z"/></g></g></svg>