<svg width="50" height="50" viewBox="0 0 50 50" fill="none" xmlns="http://www.w3.org/2000/svg">
<path d="M50 24.9965C49.9993 20.0521 48.5325 15.219 45.785 11.1082C43.0376 6.99742 39.1329 3.79365 34.5646 1.90199C29.9964 0.0103364 24.9699 -0.48425 20.1206 0.480773C15.2713 1.4458 10.817 3.82709 7.32108 7.32354C3.82512 10.82 1.44444 15.2746 0.480094 20.124C-0.484254 24.9734 0.0110323 29.9999 1.90333 34.5679C3.79562 39.1358 6.99993 43.0401 11.1111 45.787C15.2222 48.5338 20.0556 50 25 50C28.2833 50 31.5345 49.3532 34.5679 48.0966C37.6012 46.84 40.3574 44.9982 42.6789 42.6764C45.0004 40.3546 46.8418 37.5982 48.098 34.5646C49.3541 31.5311 50.0004 28.2798 50 24.9965Z" fill="#00A9FF"/>
<path d="M37.2511 10.5243C37.5267 10.4173 37.826 10.3866 38.1176 10.4355C38.4092 10.4843 38.6822 10.611 38.9078 10.802C39.1334 10.9931 39.3033 11.2415 39.3996 11.521C39.4959 11.8005 39.5149 12.1009 39.4548 12.3903L33.9959 38.4347C33.9395 38.7173 33.8128 38.981 33.6274 39.2016C33.442 39.4221 33.2039 39.5923 32.9353 39.6965C32.6666 39.8006 32.3761 39.8353 32.0905 39.7973C31.8048 39.7593 31.5334 39.6499 31.3013 39.4792L23.0782 33.4215L18.8832 37.7037C18.7147 37.8753 18.5048 38.0003 18.2737 38.0667C18.0426 38.1331 17.7982 38.1385 17.5644 38.0824C17.3306 38.0263 17.1153 37.9106 16.9395 37.7467C16.7637 37.5827 16.6333 37.376 16.5611 37.1466L13.5357 27.5519L5.42751 25.1567C5.19429 25.0885 4.98828 24.9489 4.83844 24.7577C4.68859 24.5664 4.60243 24.333 4.59206 24.0902C4.58169 23.8475 4.64763 23.6075 4.78062 23.4042C4.9136 23.2008 5.10695 23.0442 5.33351 22.9564L37.2511 10.5243ZM33.2405 16.3034C33.3107 16.2387 33.3545 16.1502 33.3633 16.0551C33.3722 15.9599 33.3455 15.8649 33.2883 15.7883C33.2312 15.7117 33.1477 15.659 33.054 15.6403C32.9603 15.6217 32.863 15.6384 32.7809 15.6872L15.2799 26.5388C15.1287 26.6313 15.0125 26.7714 14.9495 26.9371C14.8865 27.1028 14.8802 27.2848 14.9318 27.4544L17.327 37.9474C17.3347 37.9831 17.3554 38.0148 17.3849 38.0364C17.4144 38.0579 17.4508 38.068 17.4873 38.0645C17.5237 38.0611 17.5576 38.0445 17.5826 38.0177C17.6076 37.991 17.6219 37.9561 17.6229 37.9195L18.159 29.9331C18.1784 29.7357 18.2717 29.553 18.4201 29.4214L33.2405 16.3034Z" fill="white"/>
</svg>
