<svg width="50" height="50" viewBox="0 0 50 50" fill="none" xmlns="http://www.w3.org/2000/svg">
<path d="M50 24.9965C49.9993 20.0521 48.5325 15.219 45.785 11.1082C43.0376 6.99742 39.1329 3.79365 34.5646 1.90199C29.9964 0.0103364 24.9699 -0.48425 20.1206 0.480773C15.2713 1.4458 10.817 3.82709 7.32108 7.32354C3.82512 10.82 1.44444 15.2746 0.480094 20.124C-0.484254 24.9734 0.0110323 29.9999 1.90333 34.5679C3.79562 39.1358 6.99993 43.0401 11.1111 45.787C15.2222 48.5338 20.0556 50 25 50C28.2833 50 31.5345 49.3532 34.5679 48.0966C37.6012 46.84 40.3574 44.9982 42.6789 42.6764C45.0004 40.3546 46.8418 37.5982 48.098 34.5646C49.3541 31.5311 50.0004 28.2798 50 24.9965Z" fill="#D40C18"/>
<path d="M31.3919 15.7777H18.6116C15.193 15.7777 12.4217 18.5491 12.4217 21.9677V28.0393C12.4217 31.4579 15.193 34.2292 18.6116 34.2292H31.3919C34.8105 34.2292 37.5818 31.4579 37.5818 28.0393V21.9677C37.5818 18.5491 34.8105 15.7777 31.3919 15.7777Z" fill="white"/>
<path d="M30.1142 25.0662L21.7101 29.592C21.6476 29.6255 21.5777 29.6427 21.5069 29.642C21.436 29.6413 21.3665 29.6227 21.3047 29.588C21.2429 29.5533 21.1909 29.5036 21.1534 29.4434C21.1159 29.3832 21.0943 29.3146 21.0904 29.2438V20.1121C21.0905 20.0391 21.1096 19.9673 21.1458 19.9039C21.182 19.8405 21.2341 19.7875 21.297 19.7503C21.3598 19.7131 21.4313 19.6929 21.5043 19.6916C21.5773 19.6903 21.6494 19.7081 21.7135 19.7431L30.1142 24.3176C30.1828 24.3531 30.2404 24.4068 30.2806 24.4728C30.3208 24.5388 30.3421 24.6146 30.3421 24.6919C30.3421 24.7692 30.3208 24.845 30.2806 24.911C30.2404 24.977 30.1828 25.0307 30.1142 25.0662Z" fill="#DB0C0B"/>
</svg>
