<svg xmlns="http://www.w3.org/2000/svg" viewBox="0 0 36 37.12"><defs><style>.cls-1,.cls-10,.cls-11,.cls-12,.cls-13,.cls-14,.cls-15,.cls-16,.cls-17,.cls-18,.cls-19,.cls-2,.cls-20,.cls-21,.cls-22,.cls-23,.cls-24,.cls-25,.cls-26,.cls-27,.cls-28,.cls-29,.cls-3,.cls-30,.cls-31,.cls-32,.cls-33,.cls-34,.cls-35,.cls-36,.cls-37,.cls-38,.cls-39,.cls-4,.cls-40,.cls-41,.cls-42,.cls-5,.cls-6,.cls-7,.cls-8,.cls-9{fill:#afafaf;}.cls-1{opacity:0;}.cls-2{opacity:0.02;}.cls-3{opacity:0.05;}.cls-4{opacity:0.07;}.cls-5{opacity:0.1;}.cls-6{opacity:0.12;}.cls-7{opacity:0.15;}.cls-8{opacity:0.17;}.cls-9{opacity:0.2;}.cls-10{opacity:0.22;}.cls-11{opacity:0.24;}.cls-12{opacity:0.27;}.cls-13{opacity:0.29;}.cls-14{opacity:0.32;}.cls-15{opacity:0.34;}.cls-16{opacity:0.37;}.cls-17{opacity:0.39;}.cls-18{opacity:0.41;}.cls-19{opacity:0.44;}.cls-20{opacity:0.46;}.cls-21{opacity:0.49;}.cls-22{opacity:0.51;}.cls-23{opacity:0.54;}.cls-24{opacity:0.56;}.cls-25{opacity:0.59;}.cls-26{opacity:0.61;}.cls-27{opacity:0.63;}.cls-28{opacity:0.66;}.cls-29{opacity:0.68;}.cls-30{opacity:0.71;}.cls-31{opacity:0.73;}.cls-32{opacity:0.76;}.cls-33{opacity:0.78;}.cls-34{opacity:0.8;}.cls-35{opacity:0.83;}.cls-36{opacity:0.85;}.cls-37{opacity:0.88;}.cls-38{opacity:0.9;}.cls-39{opacity:0.93;}.cls-40{opacity:0.95;}.cls-41{opacity:0.98;}.cls-43{fill:#395196;}.cls-44{fill:#fff;}</style></defs><g id="Layer_2" data-name="Layer 2"><g id="OBJECTS"><path class="cls-1" d="M36,21.62a15.5,15.5,0,1,0-15.5,15.5A15.5,15.5,0,0,0,36,21.62Z"/><path class="cls-2" d="M35.88,21.48A15.5,15.5,0,1,0,20.38,37,15.5,15.5,0,0,0,35.88,21.48Z"/><path class="cls-3" d="M35.76,21.33a15.5,15.5,0,1,0-15.5,15.49A15.5,15.5,0,0,0,35.76,21.33Z"/><path class="cls-4" d="M35.63,21.18A15.5,15.5,0,1,0,20.14,36.67,15.49,15.49,0,0,0,35.63,21.18Z"/><path class="cls-5" d="M35.51,21A15.5,15.5,0,1,0,20,36.52,15.5,15.5,0,0,0,35.51,21Z"/><path class="cls-6" d="M35.39,20.88a15.5,15.5,0,1,0-15.5,15.49A15.5,15.5,0,0,0,35.39,20.88Z"/><path class="cls-7" d="M35.27,20.73a15.5,15.5,0,1,0-15.5,15.5A15.5,15.5,0,0,0,35.27,20.73Z"/><path class="cls-8" d="M35.15,20.58a15.5,15.5,0,1,0-15.5,15.5A15.5,15.5,0,0,0,35.15,20.58Z"/><path class="cls-9" d="M35,20.43a15.5,15.5,0,1,0-15.49,15.5A15.49,15.49,0,0,0,35,20.43Z"/><path class="cls-10" d="M34.9,20.28a15.5,15.5,0,1,0-15.5,15.5A15.5,15.5,0,0,0,34.9,20.28Z"/><path class="cls-11" d="M34.78,20.13a15.5,15.5,0,1,0-15.5,15.5A15.5,15.5,0,0,0,34.78,20.13Z"/><path class="cls-12" d="M34.66,20a15.5,15.5,0,1,0-15.5,15.5A15.5,15.5,0,0,0,34.66,20Z"/><path class="cls-13" d="M34.53,19.83A15.5,15.5,0,1,0,19,35.33,15.48,15.48,0,0,0,34.53,19.83Z"/><path class="cls-14" d="M34.41,19.68a15.5,15.5,0,1,0-15.49,15.5A15.49,15.49,0,0,0,34.41,19.68Z"/><path class="cls-15" d="M34.29,19.53A15.5,15.5,0,1,0,18.79,35,15.49,15.49,0,0,0,34.29,19.53Z"/><path class="cls-16" d="M34.17,19.38a15.5,15.5,0,1,0-15.5,15.5A15.49,15.49,0,0,0,34.17,19.38Z"/><path class="cls-17" d="M34.05,19.23a15.5,15.5,0,1,0-15.5,15.5A15.49,15.49,0,0,0,34.05,19.23Z"/><path class="cls-18" d="M33.92,19.08a15.5,15.5,0,1,0-15.49,15.5A15.49,15.49,0,0,0,33.92,19.08Z"/><path class="cls-19" d="M33.8,18.93a15.5,15.5,0,1,0-15.49,15.5A15.5,15.5,0,0,0,33.8,18.93Z"/><path class="cls-20" d="M33.68,18.78a15.5,15.5,0,1,0-15.5,15.5A15.5,15.5,0,0,0,33.68,18.78Z"/><path class="cls-21" d="M33.56,18.63a15.5,15.5,0,1,0-15.5,15.5A15.5,15.5,0,0,0,33.56,18.63Z"/><path class="cls-22" d="M33.44,18.49A15.5,15.5,0,1,0,17.94,34,15.5,15.5,0,0,0,33.44,18.49Z"/><path class="cls-23" d="M33.31,18.34A15.5,15.5,0,1,0,17.82,33.83,15.49,15.49,0,0,0,33.31,18.34Z"/><path class="cls-24" d="M33.19,18.19a15.5,15.5,0,1,0-15.5,15.49A15.5,15.5,0,0,0,33.19,18.19Z"/><path class="cls-25" d="M33.07,18a15.5,15.5,0,1,0-15.5,15.49A15.5,15.5,0,0,0,33.07,18Z"/><path class="cls-26" d="M33,17.89a15.5,15.5,0,1,0-15.5,15.49A15.5,15.5,0,0,0,33,17.89Z"/><path class="cls-27" d="M32.82,17.74a15.5,15.5,0,1,0-15.49,15.5A15.49,15.49,0,0,0,32.82,17.74Z"/><path class="cls-28" d="M32.7,17.59a15.5,15.5,0,1,0-15.49,15.5A15.49,15.49,0,0,0,32.7,17.59Z"/><path class="cls-29" d="M32.58,17.44a15.5,15.5,0,1,0-15.5,15.5A15.5,15.5,0,0,0,32.58,17.44Z"/><path class="cls-30" d="M32.46,17.29A15.5,15.5,0,1,0,17,32.79,15.5,15.5,0,0,0,32.46,17.29Z"/><path class="cls-31" d="M32.34,17.14a15.5,15.5,0,1,0-15.5,15.5A15.5,15.5,0,0,0,32.34,17.14Z"/><path class="cls-32" d="M32.21,17a15.5,15.5,0,1,0-15.49,15.5A15.49,15.49,0,0,0,32.21,17Z"/><path class="cls-33" d="M32.09,16.84A15.5,15.5,0,1,0,16.6,32.34,15.49,15.49,0,0,0,32.09,16.84Z"/><path class="cls-34" d="M32,16.69a15.5,15.5,0,1,0-15.5,15.5A15.49,15.49,0,0,0,32,16.69Z"/><path class="cls-35" d="M31.85,16.54A15.5,15.5,0,1,0,16.35,32,15.49,15.49,0,0,0,31.85,16.54Z"/><path class="cls-36" d="M31.73,16.39a15.5,15.5,0,1,0-15.5,15.5A15.49,15.49,0,0,0,31.73,16.39Z"/><path class="cls-37" d="M31.6,16.24a15.5,15.5,0,1,0-15.49,15.5A15.48,15.48,0,0,0,31.6,16.24Z"/><path class="cls-38" d="M31.48,16.09A15.5,15.5,0,1,0,16,31.59,15.5,15.5,0,0,0,31.48,16.09Z"/><path class="cls-39" d="M31.36,15.94a15.5,15.5,0,1,0-15.5,15.5A15.5,15.5,0,0,0,31.36,15.94Z"/><path class="cls-40" d="M31.24,15.79a15.5,15.5,0,1,0-15.5,15.5A15.5,15.5,0,0,0,31.24,15.79Z"/><path class="cls-41" d="M31.12,15.64a15.5,15.5,0,1,0-15.5,15.5A15.5,15.5,0,0,0,31.12,15.64Z"/><path class="cls-42" d="M31,15.5A15.5,15.5,0,1,0,15.5,31,15.49,15.49,0,0,0,31,15.5Z"/><path class="cls-43" d="M31,15.5A15.5,15.5,0,1,0,15.5,31,15.49,15.49,0,0,0,31,15.5Z"/><path class="cls-44" d="M16.86,11.83V10.36a.77.77,0,0,1,.81-.88h2.06V6.33H16.9A3.59,3.59,0,0,0,13,10.17v1.66H11.21V15.5h1.84v9.18h3.67V15.5h2.72l.34-3.67Z"/></g></g></svg>