<svg xmlns="http://www.w3.org/2000/svg" xmlns:xlink="http://www.w3.org/1999/xlink" viewBox="0 0 36 37.12"><defs><style>.cls-1,.cls-10,.cls-11,.cls-12,.cls-13,.cls-14,.cls-15,.cls-16,.cls-17,.cls-18,.cls-19,.cls-2,.cls-20,.cls-21,.cls-22,.cls-23,.cls-24,.cls-25,.cls-26,.cls-27,.cls-28,.cls-29,.cls-3,.cls-30,.cls-31,.cls-32,.cls-33,.cls-34,.cls-35,.cls-36,.cls-37,.cls-38,.cls-39,.cls-4,.cls-40,.cls-41,.cls-5,.cls-6,.cls-7,.cls-8,.cls-9{fill:#afafaf;}.cls-1{opacity:0;}.cls-2{opacity:0.02;}.cls-3{opacity:0.05;}.cls-4{opacity:0.07;}.cls-5{opacity:0.1;}.cls-6{opacity:0.12;}.cls-7{opacity:0.15;}.cls-8{opacity:0.17;}.cls-9{opacity:0.2;}.cls-10{opacity:0.22;}.cls-11{opacity:0.24;}.cls-12{opacity:0.27;}.cls-13{opacity:0.29;}.cls-14{opacity:0.32;}.cls-15{opacity:0.34;}.cls-16{opacity:0.37;}.cls-17{opacity:0.39;}.cls-18{opacity:0.41;}.cls-19{opacity:0.44;}.cls-20{opacity:0.46;}.cls-21{opacity:0.49;}.cls-22{opacity:0.51;}.cls-23{opacity:0.54;}.cls-24{opacity:0.56;}.cls-25{opacity:0.59;}.cls-26{opacity:0.61;}.cls-27{opacity:0.63;}.cls-28{opacity:0.66;}.cls-29{opacity:0.68;}.cls-30{opacity:0.71;}.cls-31{opacity:0.73;}.cls-32{opacity:0.76;}.cls-33{opacity:0.78;}.cls-34{opacity:0.8;}.cls-35{opacity:0.83;}.cls-36{opacity:0.85;}.cls-37{opacity:0.88;}.cls-38{opacity:0.9;}.cls-39{opacity:0.93;}.cls-40{opacity:0.95;}.cls-41{opacity:0.98;}.cls-42{fill:url(#Degradado_sin_nombre_24);}.cls-43{fill:#fff;}</style><linearGradient id="Degradado_sin_nombre_24" x1="-194.64" y1="-447.51" x2="-174.3" y2="-424.11" gradientTransform="translate(-168.97 -420.31) rotate(180)" gradientUnits="userSpaceOnUse"><stop offset="0" stop-color="#5d3fd2"/><stop offset="0.42" stop-color="#b829a9"/><stop offset="0.5" stop-color="#bf289d"/><stop offset="0.64" stop-color="#d0257e"/><stop offset="0.78" stop-color="#e62256"/><stop offset="0.81" stop-color="#e83156"/><stop offset="0.87" stop-color="#ee5755"/><stop offset="0.95" stop-color="#f89554"/><stop offset="1" stop-color="#ffc153"/></linearGradient></defs><g id="Layer_2" data-name="Layer 2"><g id="OBJECTS"><path class="cls-1" d="M20.5,6.12A15.5,15.5,0,1,0,36,21.63,15.5,15.5,0,0,0,20.5,6.12Z"/><path class="cls-2" d="M20.38,6a15.5,15.5,0,1,0,15.5,15.51A15.5,15.5,0,0,0,20.38,6Z"/><path class="cls-3" d="M20.26,5.82a15.51,15.51,0,1,0,15.5,15.51A15.5,15.5,0,0,0,20.26,5.82Z"/><path class="cls-4" d="M20.13,5.67a15.51,15.51,0,1,0,15.5,15.51A15.5,15.5,0,0,0,20.13,5.67Z"/><path class="cls-5" d="M20,5.53A15.5,15.5,0,1,0,35.51,21,15.5,15.5,0,0,0,20,5.53Z"/><path class="cls-6" d="M19.89,5.38a15.5,15.5,0,1,0,15.5,15.5A15.5,15.5,0,0,0,19.89,5.38Z"/><path class="cls-7" d="M19.77,5.23a15.5,15.5,0,1,0,15.5,15.5A15.5,15.5,0,0,0,19.77,5.23Z"/><path class="cls-8" d="M19.65,5.08a15.5,15.5,0,1,0,15.5,15.5A15.5,15.5,0,0,0,19.65,5.08Z"/><path class="cls-9" d="M19.52,4.93A15.5,15.5,0,1,0,35,20.43,15.5,15.5,0,0,0,19.52,4.93Z"/><path class="cls-10" d="M19.4,4.78a15.5,15.5,0,1,0,15.5,15.5A15.5,15.5,0,0,0,19.4,4.78Z"/><path class="cls-11" d="M19.28,4.63a15.5,15.5,0,1,0,15.5,15.5A15.5,15.5,0,0,0,19.28,4.63Z"/><path class="cls-12" d="M19.16,4.48A15.5,15.5,0,1,0,34.66,20,15.5,15.5,0,0,0,19.16,4.48Z"/><path class="cls-13" d="M19,4.33a15.5,15.5,0,1,0,15.5,15.5A15.5,15.5,0,0,0,19,4.33Z"/><path class="cls-14" d="M18.91,4.18a15.5,15.5,0,1,0,15.5,15.5A15.5,15.5,0,0,0,18.91,4.18Z"/><path class="cls-15" d="M18.79,4a15.5,15.5,0,1,0,15.5,15.5A15.5,15.5,0,0,0,18.79,4Z"/><path class="cls-16" d="M18.67,3.88a15.5,15.5,0,1,0,15.5,15.51A15.5,15.5,0,0,0,18.67,3.88Z"/><path class="cls-17" d="M18.55,3.73a15.5,15.5,0,1,0,15.5,15.51A15.5,15.5,0,0,0,18.55,3.73Z"/><path class="cls-18" d="M18.43,3.58a15.51,15.51,0,1,0,15.5,15.51A15.5,15.5,0,0,0,18.43,3.58Z"/><path class="cls-19" d="M18.3,3.43A15.51,15.51,0,1,0,33.8,18.94,15.5,15.5,0,0,0,18.3,3.43Z"/><path class="cls-20" d="M18.18,3.29a15.5,15.5,0,1,0,15.5,15.5A15.5,15.5,0,0,0,18.18,3.29Z"/><path class="cls-21" d="M18.06,3.14a15.5,15.5,0,1,0,15.5,15.5A15.5,15.5,0,0,0,18.06,3.14Z"/><path class="cls-22" d="M17.94,3a15.5,15.5,0,1,0,15.5,15.5A15.5,15.5,0,0,0,17.94,3Z"/><path class="cls-23" d="M17.82,2.84a15.5,15.5,0,1,0,15.5,15.5A15.5,15.5,0,0,0,17.82,2.84Z"/><path class="cls-24" d="M17.69,2.69a15.5,15.5,0,1,0,15.5,15.5A15.5,15.5,0,0,0,17.69,2.69Z"/><path class="cls-25" d="M17.57,2.54A15.5,15.5,0,1,0,33.07,18,15.5,15.5,0,0,0,17.57,2.54Z"/><path class="cls-26" d="M17.45,2.39A15.5,15.5,0,1,0,33,17.89,15.5,15.5,0,0,0,17.45,2.39Z"/><path class="cls-27" d="M17.33,2.24a15.5,15.5,0,1,0,15.5,15.5A15.5,15.5,0,0,0,17.33,2.24Z"/><path class="cls-28" d="M17.21,2.09a15.5,15.5,0,1,0,15.5,15.5A15.5,15.5,0,0,0,17.21,2.09Z"/><path class="cls-29" d="M17.08,1.94a15.5,15.5,0,1,0,15.5,15.5A15.5,15.5,0,0,0,17.08,1.94Z"/><path class="cls-30" d="M17,1.79a15.5,15.5,0,1,0,15.5,15.5A15.5,15.5,0,0,0,17,1.79Z"/><path class="cls-31" d="M16.84,1.64a15.5,15.5,0,1,0,15.5,15.51A15.5,15.5,0,0,0,16.84,1.64Z"/><path class="cls-32" d="M16.72,1.49A15.5,15.5,0,1,0,32.22,17,15.5,15.5,0,0,0,16.72,1.49Z"/><path class="cls-33" d="M16.6,1.34A15.51,15.51,0,1,0,32.1,16.85,15.5,15.5,0,0,0,16.6,1.34Z"/><path class="cls-34" d="M16.48,1.19A15.51,15.51,0,1,0,32,16.7,15.5,15.5,0,0,0,16.48,1.19Z"/><path class="cls-35" d="M16.35,1.05a15.5,15.5,0,1,0,15.5,15.5A15.5,15.5,0,0,0,16.35,1.05Z"/><path class="cls-36" d="M16.23.9a15.5,15.5,0,1,0,15.5,15.5A15.5,15.5,0,0,0,16.23.9Z"/><path class="cls-37" d="M16.11.75a15.5,15.5,0,1,0,15.5,15.5A15.5,15.5,0,0,0,16.11.75Z"/><path class="cls-38" d="M16,.6a15.5,15.5,0,1,0,15.5,15.5A15.5,15.5,0,0,0,16,.6Z"/><path class="cls-39" d="M15.87.45A15.5,15.5,0,1,0,31.36,16,15.5,15.5,0,0,0,15.87.45Z"/><path class="cls-40" d="M15.74.3a15.5,15.5,0,1,0,15.5,15.5A15.5,15.5,0,0,0,15.74.3Z"/><path class="cls-41" d="M15.62.15a15.5,15.5,0,1,0,15.5,15.5A15.5,15.5,0,0,0,15.62.15Z"/><path class="cls-42" d="M15.5,0A15.5,15.5,0,1,0,31,15.5,15.5,15.5,0,0,0,15.5,0Z"/><path class="cls-43" d="M15.5,21A5.54,5.54,0,1,0,10,15.5,5.54,5.54,0,0,0,15.5,21ZM11.31,15.5a4.19,4.19,0,1,1,4.19,4.2A4.2,4.2,0,0,1,11.31,15.5Z"/><path class="cls-43" d="M21,24.69H10a3.76,3.76,0,0,1-3.76-3.75V10.06A3.76,3.76,0,0,1,10,6.31H21a3.76,3.76,0,0,1,3.76,3.75V20.94A3.76,3.76,0,0,1,21,24.69Zm-11-17a2.39,2.39,0,0,0-2.39,2.38V20.94A2.39,2.39,0,0,0,10,23.32H21a2.39,2.39,0,0,0,2.39-2.38V10.06A2.39,2.39,0,0,0,21,7.68Z"/><path class="cls-43" d="M21.11,9.33a.88.88,0,1,0,.87.88A.88.88,0,0,0,21.11,9.33Z"/></g></g></svg>