<svg width="36" height="38" viewBox="0 0 36 38" fill="none" xmlns="http://www.w3.org/2000/svg">
<g clip-path="url(#clip0)">
<path opacity="0.02" d="M20.3799 6C17.3147 6 14.3183 6.90881 11.7696 8.61153C9.22084 10.3142 7.23416 12.7344 6.06071 15.5661C4.88726 18.3978 4.57973 21.5138 5.17699 24.5202C5.77425 27.5267 7.24949 30.2885 9.4162 32.4566C11.5829 34.6247 14.3438 36.1018 17.3499 36.701C20.3559 37.3002 23.4721 36.9946 26.3046 35.823C29.137 34.6514 31.5584 32.6663 33.2628 30.1186C34.9672 27.571 35.8779 24.5752 35.8799 21.51C35.8812 19.4737 35.4813 17.457 34.7029 15.5753C33.9245 13.6936 32.783 11.9837 31.3436 10.5434C29.9041 9.10301 28.195 7.9604 26.3138 7.18082C24.4326 6.40125 22.4162 6 20.3799 6V6Z" fill="#AFAFAF"/>
<path opacity="0.05" d="M20.2602 5.82007C17.1922 5.81809 14.1925 6.72606 11.6406 8.42912C9.0887 10.1322 7.09919 12.5538 5.92374 15.3877C4.74829 18.2216 4.43972 21.3405 5.03704 24.3498C5.63437 27.3591 7.11077 30.1236 9.27948 32.2938C11.4482 34.4639 14.2118 35.942 17.2207 36.5413C20.2296 37.1406 23.3487 36.834 26.1833 35.6604C29.018 34.4868 31.4409 32.4988 33.1456 29.948C34.8503 27.3972 35.7602 24.3981 35.7602 21.3301C35.7616 19.2937 35.3616 17.2771 34.5832 15.3954C33.8049 13.5137 32.6634 11.8038 31.2239 10.3635C29.7845 8.92308 28.0753 7.78047 26.1941 7.00089C24.3129 6.22132 22.2966 5.82007 20.2602 5.82007Z" fill="#AFAFAF"/>
<path opacity="0.07" d="M20.1299 5.66993C17.0619 5.66795 14.0622 6.57591 11.5103 8.27897C8.95833 9.98203 6.96882 12.4037 5.79337 15.2376C4.61792 18.0715 4.30935 21.1903 4.90667 24.1996C5.504 27.2089 6.98039 29.9735 9.14911 32.1436C11.3178 34.3137 14.0814 35.7919 17.0903 36.3912C20.0993 36.9904 23.2183 36.6839 26.053 35.5103C28.8876 34.3366 31.3106 32.3487 33.0153 29.7979C34.72 27.247 35.6299 24.2479 35.6299 21.1799C35.6312 19.1436 35.2312 17.127 34.4529 15.2453C33.6745 13.3636 32.533 11.6537 31.0936 10.2133C29.6541 8.77294 27.945 7.63032 26.0638 6.85075C24.1826 6.07118 22.1662 5.66992 20.1299 5.66993V5.66993Z" fill="#AFAFAF"/>
<path opacity="0.1" d="M20.0002 5.53003C16.9338 5.53202 13.9368 6.44352 11.3885 8.14921C8.84022 9.85491 6.85512 12.2781 5.68439 15.1123C4.51365 17.9465 4.20988 21.0642 4.81152 24.0711C5.41315 27.078 6.89315 29.8388 9.06427 32.0043C11.2354 34.1698 14 35.6427 17.0084 36.2366C20.0168 36.8304 23.1338 36.5186 25.9649 35.3406C28.7961 34.1625 31.2142 32.1712 32.9133 29.6185C34.6124 27.0658 35.5162 24.0665 35.5102 21C35.5023 16.8926 33.8644 12.9563 30.9563 10.0557C28.0481 7.15512 24.1076 5.52737 20.0002 5.53003V5.53003Z" fill="#AFAFAF"/>
<path opacity="0.12" d="M19.8901 5.37988C16.8245 5.37988 13.8278 6.28894 11.2788 7.9921C8.72984 9.69527 6.74317 12.116 5.57001 14.9483C4.39685 17.7805 4.0899 20.8971 4.68797 23.9038C5.28604 26.9105 6.76227 29.6723 8.92999 31.84C11.0977 34.0078 13.8595 35.484 16.8662 36.0821C19.8729 36.6801 22.9895 36.3732 25.8217 35.2C28.654 34.0269 31.0748 32.0402 32.7779 29.4912C34.4811 26.9423 35.3901 23.9455 35.3901 20.8799C35.3901 16.769 33.7571 12.8265 30.8503 9.91973C27.9435 7.01291 24.001 5.37988 19.8901 5.37988Z" fill="#AFAFAF"/>
<path opacity="0.15" d="M19.77 5.22998C16.7044 5.22998 13.7077 6.13904 11.1587 7.8422C8.60973 9.54536 6.62305 11.9661 5.44989 14.7984C4.27674 17.6306 3.96978 20.7472 4.56785 23.7539C5.16593 26.7606 6.64216 29.5224 8.80987 31.6901C10.9776 33.8578 13.7394 35.3341 16.7461 35.9322C19.7528 36.5302 22.8694 36.2233 25.7016 35.0501C28.5339 33.877 30.9546 31.8903 32.6578 29.3413C34.361 26.7924 35.27 23.7956 35.27 20.73C35.27 16.6191 33.637 12.6766 30.7302 9.76983C27.8234 6.86301 23.8809 5.22998 19.77 5.22998V5.22998Z" fill="#AFAFAF"/>
<path opacity="0.17" d="M19.6499 5.08008C16.5843 5.08008 13.5875 5.98914 11.0386 7.6923C8.48961 9.39546 6.50293 11.8162 5.32978 14.6485C4.15662 17.4807 3.84967 20.5973 4.44774 23.604C5.04581 26.6107 6.52204 29.3725 8.68975 31.5402C10.8575 33.7079 13.6193 35.1842 16.626 35.7823C19.6327 36.3803 22.7492 36.0734 25.5815 34.9002C28.4138 33.7271 30.8345 31.7404 32.5377 29.1914C34.2409 26.6425 35.1499 23.6457 35.1499 20.5801C35.1499 16.4692 33.5169 12.5267 30.6101 9.61992C27.7032 6.71311 23.7608 5.08008 19.6499 5.08008V5.08008Z" fill="#AFAFAF"/>
<path opacity="0.2" d="M19.52 4.92994C16.4535 4.92599 13.4548 5.83168 10.9032 7.53244C8.35163 9.23319 6.36185 11.6526 5.18562 14.4845C4.0094 17.3164 3.69959 20.4335 4.2954 23.4416C4.89121 26.4496 6.36586 29.2133 8.53278 31.383C10.6997 33.5527 13.4615 35.0309 16.4687 35.6306C19.476 36.2303 22.5936 35.9246 25.427 34.752C28.2604 33.5794 30.6823 31.5928 32.3864 29.0434C34.0904 26.494 35 23.4964 35 20.4299C35 16.3226 33.3697 12.3831 30.4672 9.47685C27.5647 6.57061 23.6274 4.93524 19.52 4.92994V4.92994Z" fill="#AFAFAF"/>
<path opacity="0.22" d="M19.3999 4.78003C16.3343 4.78003 13.3375 5.68909 10.7886 7.39225C8.23961 9.09541 6.25293 11.5162 5.07978 14.3484C3.90662 17.1807 3.59967 20.2972 4.19774 23.3039C4.79581 26.3106 6.27204 29.0725 8.43975 31.2402C10.6075 33.4079 13.3693 34.8841 16.376 35.4822C19.3827 36.0803 22.4992 35.7733 25.3315 34.6002C28.1638 33.427 30.5845 31.4403 32.2877 28.8914C33.9909 26.3424 34.8999 23.3456 34.8999 20.28C34.8999 16.1692 33.2669 12.2267 30.3601 9.31987C27.4532 6.41306 23.5108 4.78003 19.3999 4.78003V4.78003Z" fill="#AFAFAF"/>
<path opacity="0.24" d="M19.2798 4.62988C16.2142 4.62988 13.2174 5.53894 10.6685 7.2421C8.11949 8.94527 6.13282 11.366 4.95966 14.1983C3.7865 17.0305 3.47955 20.1471 4.07762 23.1538C4.67569 26.1605 6.15192 28.9223 8.31964 31.09C10.4874 33.2578 13.2492 34.734 16.2559 35.3321C19.2626 35.9301 22.3791 35.6232 25.2114 34.45C28.0436 33.2769 30.4644 31.2902 32.1676 28.7412C33.8707 26.1923 34.7798 23.1955 34.7798 20.1299C34.7798 16.019 33.1468 12.0765 30.2399 9.16973C27.3331 6.26291 23.3906 4.62988 19.2798 4.62988V4.62988Z" fill="#AFAFAF"/>
<path opacity="0.27" d="M19.1602 4.47998C16.0954 4.47998 13.0994 5.38854 10.5509 7.09082C8.00237 8.7931 6.01568 11.2127 4.84194 14.0438C3.6682 16.8749 3.36008 19.9904 3.95653 22.9965C4.55298 26.0027 6.02723 28.7646 8.19294 30.9331C10.3587 33.1016 13.1186 34.5794 16.124 35.1797C19.1294 35.78 22.2453 35.4759 25.0779 34.3058C27.9105 33.1358 30.3326 31.1522 32.0382 28.6059C33.7438 26.0595 34.6562 23.0647 34.6602 20C34.6628 17.9628 34.2638 15.9451 33.486 14.0622C32.7083 12.1794 31.567 10.4683 30.1274 9.02689C28.6878 7.58547 26.9782 6.44196 25.0964 5.66176C23.2145 4.88156 21.1973 4.47998 19.1602 4.47998V4.47998Z" fill="#AFAFAF"/>
<path opacity="0.29" d="M19 4.33008C15.9344 4.33008 12.9376 5.23914 10.3887 6.9423C7.83971 8.64546 5.85303 11.0662 4.67987 13.8985C3.50672 16.7307 3.19976 19.8473 3.79784 22.854C4.39591 25.8607 5.87214 28.6225 8.03985 30.7902C10.2076 32.9579 12.9694 34.4342 15.9761 35.0323C18.9828 35.6303 22.0993 35.3234 24.9316 34.1502C27.7639 32.9771 30.1846 30.9904 31.8878 28.4414C33.5909 25.8925 34.5 22.8957 34.5 19.8301C34.5 15.7192 32.867 11.7767 29.9602 8.86992C27.0533 5.96311 23.1109 4.33008 19 4.33008V4.33008Z" fill="#AFAFAF"/>
<path opacity="0.32" d="M18.9102 4.17993C15.8446 4.17993 12.8478 5.08899 10.2988 6.79215C7.74986 8.49531 5.76319 10.9161 4.59003 13.7483C3.41687 16.5806 3.10992 19.6971 3.70799 22.7038C4.30606 25.7105 5.78229 28.4724 7.95001 30.6401C10.1177 32.8078 12.8796 34.284 15.8863 34.8821C18.893 35.4802 22.0095 35.1732 24.8418 34.0001C27.674 32.8269 30.0948 30.8402 31.7979 28.2913C33.5011 25.7423 34.4102 22.7455 34.4102 19.6799C34.4102 15.5691 32.7771 11.6266 29.8703 8.71978C26.9635 5.81296 23.021 4.17993 18.9102 4.17993V4.17993Z" fill="#AFAFAF"/>
<path opacity="0.34" d="M18.79 4C15.7244 4 12.7277 4.90906 10.1787 6.61222C7.62975 8.31538 5.64307 10.7362 4.46991 13.5684C3.29675 16.4007 2.9898 19.5172 3.58787 22.5239C4.18595 25.5306 5.66218 28.2924 7.82989 30.4602C9.99761 32.6279 12.7594 34.1041 15.7661 34.7022C18.7729 35.3002 21.8894 34.9933 24.7216 33.8201C27.5539 32.647 29.9747 30.6603 31.6778 28.1113C33.381 25.5624 34.29 22.5656 34.29 19.5C34.29 15.3891 32.657 11.4467 29.7502 8.53984C26.8434 5.63303 22.9009 4 18.79 4V4Z" fill="#AFAFAF"/>
<path opacity="0.37" d="M18.6699 3.87988C15.6047 3.87988 12.6084 4.78869 10.0596 6.49141C7.51088 8.19413 5.5242 10.6143 4.35075 13.446C3.1773 16.2777 2.86977 19.3937 3.46703 22.4001C4.06429 25.4065 5.53953 28.1684 7.70624 30.3365C9.87295 32.5046 12.6339 33.9816 15.6399 34.5808C18.6459 35.18 21.7622 34.8745 24.5946 33.7029C27.427 32.5313 29.8485 30.5461 31.5528 27.9985C33.2572 25.4508 34.1679 22.4551 34.1699 19.3899C34.1712 17.3536 33.7713 15.3369 32.9929 13.4552C32.2146 11.5735 31.0731 9.86363 29.6336 8.42326C28.1942 6.9829 26.485 5.84028 24.6038 5.06071C22.7226 4.28113 20.7063 3.87988 18.6699 3.87988V3.87988Z" fill="#AFAFAF"/>
<path opacity="0.39" d="M18.5498 3.72998C15.4846 3.72998 12.4883 4.63879 9.93951 6.34151C7.39077 8.04423 5.40409 10.4644 4.23063 13.2961C3.05718 16.1278 2.74965 19.2438 3.34691 22.2502C3.94417 25.2566 5.41941 28.0185 7.58612 30.1866C9.75284 32.3547 12.5137 33.8317 15.5198 34.4309C18.5258 35.0301 21.642 34.7246 24.4745 33.553C27.3069 32.3814 29.7284 30.3962 31.4327 27.8486C33.1371 25.3009 34.0478 22.3052 34.0498 19.24C34.0511 17.2037 33.6512 15.187 32.8728 13.3053C32.0945 11.4236 30.9529 9.71373 29.5135 8.27336C28.0741 6.83299 26.3649 5.69038 24.4837 4.9108C22.6025 4.13123 20.5861 3.72998 18.5498 3.72998V3.72998Z" fill="#AFAFAF"/>
<path opacity="0.41" d="M18.4302 3.58008C15.3622 3.5781 12.3625 4.48607 9.81055 6.18913C7.25862 7.89218 5.26911 10.3138 4.09366 13.1477C2.91822 15.9816 2.60964 19.1005 3.20697 22.1098C3.80429 25.1191 5.28069 27.8837 7.4494 30.0538C9.61812 32.2239 12.3817 33.7021 15.3906 34.3013C18.3996 34.9006 21.5186 34.594 24.3533 33.4204C27.1879 32.2468 29.6109 30.2588 31.3156 27.708C33.0203 25.1572 33.9302 22.1581 33.9302 19.0901C33.9315 17.0538 33.5315 15.0371 32.7532 13.1554C31.9748 11.2737 30.8333 9.56383 29.3939 8.12346C27.9544 6.68309 26.2453 5.54048 24.3641 4.7609C22.4829 3.98133 20.4665 3.58008 18.4302 3.58008V3.58008Z" fill="#AFAFAF"/>
<path opacity="0.44" d="M18.2998 3.42993C15.2318 3.42796 12.2321 4.33592 9.68017 6.03898C7.12825 7.74204 5.13874 10.1637 3.96329 12.9976C2.78784 15.8315 2.47927 18.9503 3.07659 21.9597C3.67392 24.969 5.15032 27.7335 7.31903 29.9036C9.48774 32.0737 12.2513 33.5519 15.2603 34.1512C18.2692 34.7504 21.3882 34.4439 24.2229 33.2703C27.0576 32.0966 29.4805 30.1087 31.1852 27.5579C32.8899 25.007 33.7998 22.0079 33.7998 18.9399C33.8011 16.9036 33.4012 14.887 32.6228 13.0053C31.8444 11.1236 30.7029 9.41368 29.2635 7.97331C27.824 6.53295 26.1149 5.39033 24.2337 4.61076C22.3525 3.83118 20.3361 3.42993 18.2998 3.42993V3.42993Z" fill="#AFAFAF"/>
<path opacity="0.46" d="M18.1802 3.29004C15.1146 3.29004 12.1178 4.1991 9.56884 5.90226C7.01988 7.60542 5.03321 10.0262 3.86005 12.8584C2.68689 15.6907 2.37994 18.8072 2.97801 21.8139C3.57608 24.8206 5.05231 27.5825 7.22003 29.7502C9.38774 31.9179 12.1496 33.3941 15.1563 33.9922C18.163 34.5903 21.2795 34.2833 24.1118 33.1102C26.944 31.937 29.3648 29.9503 31.068 27.4014C32.7711 24.8524 33.6802 21.8557 33.6802 18.79C33.6802 14.6792 32.0472 10.7367 29.1403 7.82988C26.2335 4.92307 22.291 3.29004 18.1802 3.29004Z" fill="#AFAFAF"/>
<path opacity="0.49" d="M18.0601 3.13989C14.9945 3.13989 11.9977 4.04895 9.44873 5.75211C6.89977 7.45528 4.91309 9.87604 3.73993 12.7083C2.56677 15.5406 2.25982 18.6571 2.85789 21.6638C3.45596 24.6705 4.9322 27.4323 7.09991 29.6C9.26762 31.7678 12.0295 33.244 15.0362 33.8421C18.0429 34.4401 21.1594 34.1332 23.9917 32.96C26.8239 31.7869 29.2447 29.8002 30.9478 27.2512C32.651 24.7023 33.5601 21.7055 33.5601 18.6399C33.5601 14.529 31.927 10.5866 29.0202 7.67974C26.1134 4.77292 22.1709 3.13989 18.0601 3.13989V3.13989Z" fill="#AFAFAF"/>
<path opacity="0.51" d="M17.9399 3C14.8743 3 11.8776 3.90906 9.32861 5.61222C6.77965 7.31538 4.79297 9.73615 3.61982 12.5684C2.44666 15.4007 2.13971 18.5172 2.73778 21.5239C3.33585 24.5306 4.81208 27.2924 6.97979 29.4602C9.14751 31.6279 11.9093 33.1041 14.916 33.7022C17.9228 34.3002 21.0393 33.9933 23.8715 32.8201C26.7038 31.647 29.1246 29.6603 30.8277 27.1113C32.5309 24.5624 33.4399 21.5656 33.4399 18.5C33.4399 14.3891 31.8069 10.4467 28.9001 7.53984C25.9933 4.63303 22.0508 3 17.9399 3V3Z" fill="#AFAFAF"/>
<path opacity="0.54" d="M17.8198 2.84009C14.7542 2.84009 11.7575 3.74915 9.20849 5.45231C6.65953 7.15547 4.67286 9.57624 3.4997 12.4085C2.32654 15.2407 2.01959 18.3573 2.61766 21.364C3.21573 24.3707 4.69196 27.1325 6.85968 29.3002C9.02739 31.468 11.7892 32.9442 14.7959 33.5423C17.8026 34.1403 20.9192 33.8334 23.7514 32.6602C26.5837 31.4871 29.0044 29.5004 30.7076 26.9514C32.4108 24.4025 33.3198 21.4057 33.3198 18.3401C33.3198 14.2292 31.6868 10.2867 28.78 7.37993C25.8732 4.47312 21.9307 2.84009 17.8198 2.84009V2.84009Z" fill="#AFAFAF"/>
<path opacity="0.56" d="M17.6899 2.68994C14.6243 2.68994 11.6276 3.599 9.07861 5.30216C6.52965 7.00532 4.54297 9.42609 3.36982 12.2583C2.19666 15.0906 1.88971 18.2071 2.48778 21.2138C3.08585 24.2205 4.56208 26.9824 6.72979 29.1501C8.89751 31.3178 11.6593 32.794 14.666 33.3921C17.6728 33.9902 20.7893 33.6832 23.6215 32.5101C26.4538 31.3369 28.8746 29.3502 30.5777 26.8013C32.2809 24.2523 33.1899 21.2556 33.1899 18.1899C33.1899 14.0791 31.5569 10.1366 28.6501 7.22979C25.7433 4.32297 21.8008 2.68994 17.6899 2.68994V2.68994Z" fill="#AFAFAF"/>
<path opacity="0.59" d="M17.5698 2.54004C14.5025 2.54005 11.5041 3.45013 8.9543 5.15506C6.40448 6.86 4.41783 9.28314 3.24586 12.1177C2.07389 14.9523 1.76928 18.0709 2.3706 21.0787C2.97192 24.0865 4.45213 26.8482 6.62385 29.0143C8.79556 31.1805 11.5611 32.6535 14.5705 33.2471C17.5798 33.8406 20.6976 33.528 23.5291 32.3487C26.3607 31.1694 28.7787 29.1765 30.477 26.6222C32.1754 24.068 33.0777 21.0673 33.0698 18C33.0592 13.8961 31.4215 9.9639 28.5158 7.06573C25.6101 4.16756 21.6737 2.54003 17.5698 2.54004V2.54004Z" fill="#AFAFAF"/>
<path opacity="0.61" d="M17.45 2.38997C14.3865 2.39986 11.3947 3.31731 8.85233 5.02647C6.30996 6.73562 4.33107 9.15983 3.16557 11.9929C2.00008 14.8261 1.70025 17.941 2.30396 20.9444C2.90766 23.9478 4.38782 26.705 6.55752 28.8677C8.72721 31.0304 11.4891 32.5017 14.4944 33.0957C17.4998 33.6897 20.6137 33.3799 23.4431 32.2053C26.2724 31.0306 28.6903 29.044 30.3912 26.4961C32.0922 23.9482 33 20.9535 33 17.89C33 15.8503 32.5974 13.8306 31.8154 11.9468C31.0333 10.063 29.8871 8.35207 28.4425 6.9121C26.9979 5.47214 25.2833 4.33146 23.397 3.55546C21.5106 2.77946 19.4897 2.38339 17.45 2.38997V2.38997Z" fill="#AFAFAF"/>
<path opacity="0.63" d="M17.3301 2.23999C14.2645 2.23999 11.2677 3.14905 8.71875 4.85221C6.16978 6.55537 4.18311 8.97614 3.00995 11.8084C1.83679 14.6407 1.52984 17.7572 2.12791 20.7639C2.72598 23.7706 4.20222 26.5324 6.36993 28.7001C8.53764 30.8679 11.2995 32.3441 14.3062 32.9422C17.3129 33.5402 20.4294 33.2333 23.2617 32.0601C26.0939 30.887 28.5147 28.9003 30.2179 26.3513C31.921 23.8024 32.8301 20.8056 32.8301 17.74C32.8301 13.6291 31.1971 9.68665 28.2902 6.77983C25.3834 3.87302 21.4409 2.23999 17.3301 2.23999V2.23999Z" fill="#AFAFAF"/>
<path opacity="0.66" d="M17.21 2.09009C14.1444 2.09009 11.1476 2.99915 8.59863 4.70231C6.04967 6.40547 4.06299 8.82624 2.88984 11.6585C1.71668 14.4907 1.40973 17.6073 2.0078 20.614C2.60587 23.6207 4.0821 26.3825 6.24981 28.5502C8.41753 30.718 11.1794 32.1942 14.1861 32.7923C17.1928 33.3903 20.3093 33.0834 23.1416 31.9102C25.9738 30.7371 28.3946 28.7504 30.0977 26.2014C31.8009 23.6525 32.71 20.6557 32.71 17.5901C32.71 13.4792 31.0769 9.53675 28.1701 6.62993C25.2633 3.72312 21.3208 2.09009 17.21 2.09009V2.09009Z" fill="#AFAFAF"/>
<path opacity="0.68" d="M17.0801 1.93994C14.0145 1.93994 11.0177 2.849 8.46875 4.55216C5.91978 6.25532 3.93311 8.67609 2.75995 11.5083C1.58679 14.3406 1.27984 17.4571 1.87791 20.4638C2.47598 23.4705 3.95222 26.2324 6.11993 28.4001C8.28764 30.5678 11.0495 32.044 14.0562 32.6421C17.0629 33.2402 20.1794 32.9332 23.0117 31.7601C25.8439 30.5869 28.2647 28.6002 29.9679 26.0513C31.671 23.5023 32.5801 20.5056 32.5801 17.4399C32.5801 13.3291 30.9471 9.3866 28.0402 6.47979C25.1334 3.57297 21.1909 1.93994 17.0801 1.93994V1.93994Z" fill="#AFAFAF"/>
<path opacity="0.71" d="M17 1.79004C13.9344 1.79004 10.9376 2.6991 8.38867 4.40226C5.83971 6.10542 3.85303 8.52619 2.67987 11.3584C1.50672 14.1907 1.19976 17.3072 1.79784 20.3139C2.39591 23.3206 3.87214 26.0825 6.03985 28.2502C8.20757 30.4179 10.9694 31.8941 13.9761 32.4922C16.9828 33.0903 20.0993 32.7833 22.9316 31.6102C25.7639 30.437 28.1846 28.4503 29.8878 25.9014C31.5909 23.3524 32.5 20.3557 32.5 17.29C32.5 13.1792 30.867 9.2367 27.9602 6.32988C25.0533 3.42307 21.1109 1.79004 17 1.79004Z" fill="#AFAFAF"/>
<path opacity="0.73" d="M16.8398 1.63989C13.7747 1.63989 10.7783 2.5487 8.22955 4.25142C5.6808 5.95414 3.69413 8.37432 2.52067 11.206C1.34722 14.0377 1.03969 17.1537 1.63695 20.1601C2.23421 23.1665 3.70945 25.9284 5.87616 28.0965C8.04288 30.2646 10.8038 31.7416 13.8098 32.3408C16.8159 32.94 19.9321 32.6345 22.7645 31.4629C25.5969 30.2913 28.0184 28.3062 29.7228 25.7585C31.4271 23.2109 32.3379 20.2151 32.3398 17.1499C32.3412 15.1136 31.9412 13.0969 31.1629 11.2152C30.3845 9.33353 29.243 7.62364 27.8035 6.18327C26.3641 4.7429 24.6549 3.60029 22.7738 2.82072C20.8926 2.04114 18.8762 1.63989 16.8398 1.63989V1.63989Z" fill="#AFAFAF"/>
<path opacity="0.76" d="M16.7202 1.48999C13.655 1.48999 10.6587 2.3988 8.10992 4.10152C5.56118 5.80424 3.5745 8.22442 2.40105 11.0561C1.22759 13.8878 0.920058 17.0038 1.51732 20.0102C2.11458 23.0166 3.58982 25.7785 5.75653 27.9466C7.92325 30.1147 10.6841 31.5917 13.6902 32.1909C16.6962 32.7901 19.8125 32.4846 22.6449 31.313C25.4773 30.1414 27.8988 28.1562 29.6031 25.6086C31.3075 23.061 32.2182 20.0652 32.2202 17C32.2215 14.9637 31.8216 12.947 31.0432 11.0653C30.2649 9.18363 29.1234 7.47374 27.6839 6.03337C26.2445 4.593 24.5353 3.45039 22.6541 2.67081C20.7729 1.89124 18.7565 1.48999 16.7202 1.48999V1.48999Z" fill="#AFAFAF"/>
<path opacity="0.78" d="M16.6001 1.34009C13.5321 1.33811 10.5324 2.24608 7.98047 3.94913C5.42855 5.65219 3.43903 8.07383 2.26359 10.9077C1.08814 13.7416 0.77956 16.8605 1.37689 19.8698C1.97421 22.8791 3.45061 25.6437 5.61932 27.8138C7.78804 29.9839 10.5516 31.4621 13.5606 32.0613C16.5695 32.6606 19.6885 32.354 22.5232 31.1804C25.3579 30.0068 27.7808 28.0188 29.4855 25.468C31.1902 22.9172 32.1001 19.9181 32.1001 16.8501C32.1014 14.8138 31.7014 12.7971 30.9231 10.9154C30.1447 9.03373 29.0032 7.32384 27.5638 5.88347C26.1243 4.4431 24.4152 3.30049 22.534 2.52091C20.6528 1.74134 18.6364 1.34009 16.6001 1.34009V1.34009Z" fill="#AFAFAF"/>
<path opacity="0.8" d="M16.48 1.18995C13.4128 1.19193 10.4151 2.10326 7.86582 3.80872C5.31653 5.51418 3.33013 7.9372 2.15775 10.7715C0.985366 13.6057 0.679642 16.7239 1.27923 19.7319C1.87881 22.7399 3.35679 25.5026 5.5263 27.6707C7.69581 29.8388 10.4594 31.315 13.4678 31.9127C16.4762 32.5103 19.5942 32.2026 22.4277 31.0284C25.2612 29.8542 27.683 27.8662 29.3868 25.3158C31.0906 22.7654 32 19.7671 32 16.7C32.0013 14.6619 31.6007 12.6437 30.8211 10.7607C30.0415 8.87766 28.8982 7.16688 27.4566 5.72625C26.0151 4.28562 24.3035 3.14343 22.42 2.36503C20.5365 1.58663 18.518 1.18732 16.48 1.18995V1.18995Z" fill="#AFAFAF"/>
<path opacity="0.83" d="M16.3501 1.05005C13.2845 1.05005 10.2877 1.95911 7.73877 3.66227C5.1898 5.36543 3.20313 7.7862 2.02997 10.6185C0.856814 13.4507 0.549862 16.5672 1.14793 19.5739C1.746 22.5807 3.22224 25.3425 5.38995 27.5102C7.55766 29.6779 10.3195 31.1542 13.3262 31.7522C16.3329 32.3503 19.4494 32.0433 22.2817 30.8702C25.114 29.697 27.5347 27.7104 29.2379 25.1614C30.941 22.6124 31.8501 19.6157 31.8501 16.55C31.8501 12.4392 30.2171 8.49671 27.3103 5.58989C24.4034 2.68308 20.461 1.05005 16.3501 1.05005V1.05005Z" fill="#AFAFAF"/>
<path opacity="0.85" d="M16.23 0.899902C13.1644 0.899902 10.1676 1.80896 7.61865 3.51212C5.06969 5.21529 3.08301 7.63605 1.90985 10.4683C0.736696 13.3006 0.429745 16.4171 1.02782 19.4238C1.62589 22.4305 3.10212 25.1923 5.26983 27.3601C7.43755 29.5278 10.1994 31.004 13.2061 31.6021C16.2128 32.2001 19.3293 31.8932 22.1616 30.72C24.9938 29.5469 27.4146 27.5602 29.1178 25.0112C30.8209 22.4623 31.73 19.4655 31.73 16.3999C31.73 12.289 30.097 8.34656 27.1901 5.43975C24.2833 2.53293 20.3408 0.899902 16.23 0.899902V0.899902Z" fill="#AFAFAF"/>
<path opacity="0.88" d="M16.1099 0.75C13.0443 0.75 10.0475 1.65906 7.49853 3.36222C4.94957 5.06538 2.9629 7.48615 1.78974 10.3184C0.616579 13.1507 0.309627 16.2672 0.907698 19.2739C1.50577 22.2806 2.982 25.0424 5.14972 27.2102C7.31743 29.3779 10.0793 30.8541 13.086 31.4522C16.0927 32.0502 19.2092 31.7433 22.0415 30.5701C24.8737 29.397 27.2945 27.4103 28.9977 24.8613C30.7008 22.3124 31.6099 19.3156 31.6099 16.25C31.6099 12.1391 29.9768 8.19666 27.07 5.28984C24.1632 2.38303 20.2207 0.75 16.1099 0.75V0.75Z" fill="#AFAFAF"/>
<path opacity="0.9" d="M16 0.600098C12.9344 0.600098 9.93763 1.50916 7.38867 3.21232C4.83971 4.91548 2.85303 7.33625 1.67987 10.1685C0.506716 13.0008 0.199764 16.1173 0.797835 19.124C1.39591 22.1307 2.87214 24.8925 5.03985 27.0603C7.20757 29.228 9.9694 30.7042 12.9761 31.3023C15.9828 31.9003 19.0993 31.5934 21.9316 30.4202C24.7639 29.2471 27.1846 27.2604 28.8878 24.7114C30.5909 22.1625 31.5 19.1657 31.5 16.1001C31.5 11.9892 29.867 8.04676 26.9602 5.13994C24.0533 2.23313 20.1109 0.600098 16 0.600098V0.600098Z" fill="#AFAFAF"/>
<path opacity="0.93" d="M15.8698 0.449954C12.8059 0.447994 9.81013 1.35412 7.26095 3.05388C4.71177 4.75364 2.72353 7.17077 1.54738 9.99994C0.371235 12.8291 0.0599507 15.9434 0.652851 18.9494C1.24575 21.9554 2.71623 24.7182 4.87855 26.8889C7.04087 29.0596 9.798 30.5407 12.8017 31.1453C15.8054 31.7498 18.9208 31.4505 21.7545 30.2853C24.5882 29.1201 27.013 27.1413 28.7226 24.5987C30.4322 22.0561 31.3499 19.0638 31.3598 16C31.3664 13.9611 30.9706 11.941 30.1953 10.0553C29.4199 8.16965 28.2801 6.45548 26.8412 5.011C25.4023 3.56652 23.6925 2.42012 21.8099 1.63746C19.9272 0.8548 17.9087 0.451259 15.8698 0.449954V0.449954Z" fill="#AFAFAF"/>
<path opacity="0.95" d="M15.7402 0.300049C12.6746 0.300049 9.67786 1.20911 7.1289 2.91227C4.57994 4.61543 2.59327 7.0362 1.42011 9.86846C0.24695 12.7007 -0.0600014 15.8172 0.538069 18.8239C1.13614 21.8307 2.61237 24.5925 4.78009 26.7602C6.9478 28.9279 9.70964 30.4042 12.7163 31.0022C15.723 31.6003 18.8396 31.2933 21.6718 30.1202C24.5041 28.947 26.9249 26.9604 28.628 24.4114C30.3312 21.8624 31.2402 18.8657 31.2402 15.8C31.2402 13.7646 30.8393 11.749 30.0604 9.86846C29.2814 7.98791 28.1397 6.2792 26.7004 4.83989C25.2611 3.40059 23.5524 2.25886 21.6718 1.47992C19.7913 0.700968 17.7757 0.300049 15.7402 0.300049V0.300049Z" fill="#AFAFAF"/>
<path opacity="0.98" d="M15.6201 0.149902C12.5545 0.149902 9.55775 1.05896 7.00879 2.76212C4.45982 4.46529 2.47315 6.88605 1.29999 9.71831C0.126833 12.5506 -0.180119 15.6671 0.417952 18.6738C1.01602 21.6805 2.49225 24.4423 4.65997 26.6101C6.82768 28.7778 9.58952 30.254 12.5962 30.8521C15.6029 31.4501 18.7195 31.1432 21.5517 29.97C24.384 28.7969 26.8047 26.8102 28.5079 24.2612C30.2111 21.7123 31.1201 18.7155 31.1201 15.6499C31.1201 11.539 29.4871 7.59656 26.5803 4.68975C23.6735 1.78293 19.731 0.149902 15.6201 0.149902V0.149902Z" fill="#AFAFAF"/>
<path d="M15.5 0C12.4344 0 9.43763 0.909059 6.88867 2.61222C4.33971 4.31538 2.35303 6.73615 1.17987 9.56841C0.00671589 12.4007 -0.300236 15.5172 0.297835 18.5239C0.895906 21.5306 2.37214 24.2924 4.53985 26.4602C6.70757 28.6279 9.4694 30.1041 12.4761 30.7022C15.4828 31.3002 18.5993 30.9933 21.4316 29.8201C24.2639 28.647 26.6846 26.6603 28.3878 24.1113C30.0909 21.5624 31 18.5656 31 15.5C31 11.3891 29.367 7.44666 26.4602 4.53984C23.5533 1.63303 19.6109 0 15.5 0V0Z" fill="url(#paint0_linear)"/>
<path d="M15.5001 21C16.5992 21.0079 17.6758 20.6887 18.593 20.083C19.5101 19.4774 20.2264 18.6126 20.6506 17.5986C21.0749 16.5847 21.188 15.4675 20.9755 14.3891C20.763 13.3108 20.2346 12.32 19.4574 11.5428C18.6802 10.7656 17.6894 10.2372 16.611 10.0247C15.5327 9.8122 14.4155 9.92528 13.4015 10.3495C12.3876 10.7738 11.5228 11.4901 10.9171 12.4072C10.3114 13.3244 9.99224 14.401 10.0001 15.5C10.0106 16.9555 10.5934 18.3484 11.6226 19.3775C12.6518 20.4067 14.0447 20.9896 15.5001 21V21ZM11.3101 15.5C11.3121 14.6717 11.5595 13.8626 12.0211 13.1749C12.4827 12.4872 13.1378 11.9517 13.9036 11.6361C14.6694 11.3205 15.5116 11.239 16.3237 11.4018C17.1358 11.5646 17.8815 11.9644 18.4664 12.5508C19.0514 13.1372 19.4495 13.8838 19.6103 14.6963C19.7712 15.5088 19.6877 16.3507 19.3702 17.1158C19.0528 17.8808 18.5158 18.5346 17.8269 18.9946C17.1381 19.4545 16.3284 19.7 15.5001 19.7C14.388 19.6974 13.3222 19.2537 12.5368 18.4663C11.7513 17.679 11.3101 16.6122 11.3101 15.5Z" fill="white"/>
<path d="M21.0002 24.6901H10.0002C9.00475 24.6901 8.04989 24.2953 7.34504 23.5923C6.64019 22.8893 6.24288 21.9355 6.24023 20.9401V10.0601C6.24288 9.06458 6.64019 8.11077 7.34504 7.4078C8.04989 6.70482 9.00475 6.31006 10.0002 6.31006H21.0002C21.9957 6.31006 22.9506 6.70482 23.6554 7.4078C24.3603 8.11077 24.7576 9.06458 24.7602 10.0601V20.9401C24.7576 21.9355 24.3603 22.8893 23.6554 23.5923C22.9506 24.2953 21.9957 24.6901 21.0002 24.6901V24.6901ZM10.0002 7.69006C9.3681 7.69005 8.7617 7.94048 8.31378 8.38653C7.86585 8.83259 7.61288 9.43793 7.61023 10.0701V20.9401C7.61288 21.5722 7.86585 22.1775 8.31378 22.6236C8.7617 23.0696 9.3681 23.3201 10.0002 23.3201H21.0002C21.6324 23.3201 22.2388 23.0696 22.6867 22.6236C23.1346 22.1775 23.3876 21.5722 23.3902 20.9401V10.0601C23.3876 9.42793 23.1346 8.82259 22.6867 8.37653C22.2388 7.93048 21.6324 7.68005 21.0002 7.68006L10.0002 7.69006Z" fill="white"/>
<path d="M21.1102 9.32989C20.9358 9.32791 20.7646 9.37783 20.6186 9.47331C20.4726 9.56879 20.3582 9.70553 20.2901 9.86614C20.222 10.0268 20.2031 10.204 20.2359 10.3754C20.2687 10.5467 20.3518 10.7044 20.4744 10.8285C20.5971 10.9526 20.7539 11.0374 20.9248 11.0722C21.0958 11.107 21.2732 11.0901 21.4346 11.0238C21.596 10.9575 21.734 10.8447 21.8312 10.6998C21.9283 10.5549 21.9802 10.3844 21.9802 10.2099C21.9802 9.97822 21.8889 9.75589 21.726 9.59115C21.5631 9.4264 21.3419 9.33252 21.1102 9.32989V9.32989Z" fill="white"/>
</g>
<defs>
<linearGradient id="paint0_linear" x1="25.67" y1="27.2" x2="5.33001" y2="3.8" gradientUnits="userSpaceOnUse">
<stop stop-color="#5D3FD2"/>
<stop offset="0.42" stop-color="#B829A9"/>
<stop offset="0.5" stop-color="#BF289D"/>
<stop offset="0.64" stop-color="#D0257E"/>
<stop offset="0.78" stop-color="#E62256"/>
<stop offset="0.81" stop-color="#E83156"/>
<stop offset="0.87" stop-color="#EE5755"/>
<stop offset="0.95" stop-color="#F89554"/>
<stop offset="1" stop-color="#FFC153"/>
</linearGradient>
<clipPath id="clip0">
<rect width="36" height="37.12" fill="white"/>
</clipPath>
</defs>
</svg>
