<svg xmlns="http://www.w3.org/2000/svg" viewBox="0 0 10 14.47"><defs><style>.cls-1{fill:#6b6f7a;}</style></defs><g id="Layer_2" data-name="Layer 2"><g id="Layer_1-2" data-name="Layer 1"><path class="cls-1" d="M8.5,0h-7A1.43,1.43,0,0,0,0,1.36V13.11a1.43,1.43,0,0,0,1.5,1.36h7A1.43,1.43,0,0,0,10,13.11V1.36A1.43,1.43,0,0,0,8.5,0ZM1.5.9h7a.48.48,0,0,1,.5.46v9.49H1V1.36A.48.48,0,0,1,1.5.9Zm7,12.67h-7a.48.48,0,0,1-.5-.46V11.76H9v1.35A.48.48,0,0,1,8.5,13.57Z"/><path class="cls-1" d="M2.35,12.34a.42.42,0,0,1,0,.64.52.52,0,0,1-.7,0,.42.42,0,0,1,0-.64A.54.54,0,0,1,2.35,12.34Z"/></g></g></svg>