<svg xmlns="http://www.w3.org/2000/svg" viewBox="0 0 36 37.38"><defs><style>.cls-1,.cls-10,.cls-11,.cls-12,.cls-13,.cls-14,.cls-15,.cls-16,.cls-17,.cls-18,.cls-19,.cls-2,.cls-20,.cls-21,.cls-22,.cls-23,.cls-24,.cls-25,.cls-26,.cls-27,.cls-28,.cls-29,.cls-3,.cls-30,.cls-31,.cls-32,.cls-33,.cls-34,.cls-35,.cls-36,.cls-37,.cls-38,.cls-39,.cls-4,.cls-40,.cls-41,.cls-42,.cls-5,.cls-6,.cls-7,.cls-8,.cls-9{fill:#afafaf;}.cls-1{opacity:0;}.cls-2{opacity:0.02;}.cls-3{opacity:0.05;}.cls-4{opacity:0.07;}.cls-5{opacity:0.1;}.cls-6{opacity:0.12;}.cls-7{opacity:0.15;}.cls-8{opacity:0.17;}.cls-9{opacity:0.2;}.cls-10{opacity:0.22;}.cls-11{opacity:0.24;}.cls-12{opacity:0.27;}.cls-13{opacity:0.29;}.cls-14{opacity:0.32;}.cls-15{opacity:0.34;}.cls-16{opacity:0.37;}.cls-17{opacity:0.39;}.cls-18{opacity:0.41;}.cls-19{opacity:0.44;}.cls-20{opacity:0.46;}.cls-21{opacity:0.49;}.cls-22{opacity:0.51;}.cls-23{opacity:0.54;}.cls-24{opacity:0.56;}.cls-25{opacity:0.59;}.cls-26{opacity:0.61;}.cls-27{opacity:0.63;}.cls-28{opacity:0.66;}.cls-29{opacity:0.68;}.cls-30{opacity:0.71;}.cls-31{opacity:0.73;}.cls-32{opacity:0.76;}.cls-33{opacity:0.78;}.cls-34{opacity:0.8;}.cls-35{opacity:0.83;}.cls-36{opacity:0.85;}.cls-37{opacity:0.88;}.cls-38{opacity:0.9;}.cls-39{opacity:0.93;}.cls-40{opacity:0.95;}.cls-41{opacity:0.98;}.cls-43{fill:#3d83d9;}.cls-44{fill:#fff;}</style></defs><g id="Layer_2" data-name="Layer 2"><g id="OBJECTS"><path class="cls-1" d="M36,21.89A15.5,15.5,0,1,0,20.5,37.38,15.5,15.5,0,0,0,36,21.89Z"/><path class="cls-2" d="M35.88,21.74a15.5,15.5,0,1,0-15.5,15.49A15.5,15.5,0,0,0,35.88,21.74Z"/><path class="cls-3" d="M35.76,21.59a15.5,15.5,0,1,0-15.5,15.49A15.5,15.5,0,0,0,35.76,21.59Z"/><path class="cls-4" d="M35.63,21.44A15.5,15.5,0,1,0,20.14,36.93,15.49,15.49,0,0,0,35.63,21.44Z"/><path class="cls-5" d="M35.51,21.29A15.5,15.5,0,1,0,20,36.78,15.5,15.5,0,0,0,35.51,21.29Z"/><path class="cls-6" d="M35.39,21.14a15.5,15.5,0,1,0-15.5,15.5A15.5,15.5,0,0,0,35.39,21.14Z"/><path class="cls-7" d="M35.27,21a15.5,15.5,0,1,0-15.5,15.5A15.5,15.5,0,0,0,35.27,21Z"/><path class="cls-8" d="M35.15,20.84a15.5,15.5,0,1,0-15.5,15.5A15.5,15.5,0,0,0,35.15,20.84Z"/><path class="cls-9" d="M35,20.69a15.5,15.5,0,1,0-15.49,15.5A15.49,15.49,0,0,0,35,20.69Z"/><path class="cls-10" d="M34.9,20.54A15.5,15.5,0,1,0,19.41,36,15.5,15.5,0,0,0,34.9,20.54Z"/><path class="cls-11" d="M34.78,20.39a15.5,15.5,0,1,0-15.5,15.5A15.5,15.5,0,0,0,34.78,20.39Z"/><path class="cls-12" d="M34.66,20.24a15.5,15.5,0,1,0-15.5,15.5A15.49,15.49,0,0,0,34.66,20.24Z"/><path class="cls-13" d="M34.53,20.09A15.5,15.5,0,1,0,19,35.59,15.48,15.48,0,0,0,34.53,20.09Z"/><path class="cls-14" d="M34.41,19.94a15.5,15.5,0,1,0-15.49,15.5A15.49,15.49,0,0,0,34.41,19.94Z"/><path class="cls-15" d="M34.29,19.79a15.5,15.5,0,1,0-15.5,15.5A15.49,15.49,0,0,0,34.29,19.79Z"/><path class="cls-16" d="M34.17,19.64a15.5,15.5,0,1,0-15.5,15.5A15.49,15.49,0,0,0,34.17,19.64Z"/><path class="cls-17" d="M34.05,19.49A15.5,15.5,0,1,0,18.55,35,15.5,15.5,0,0,0,34.05,19.49Z"/><path class="cls-18" d="M33.92,19.34a15.5,15.5,0,1,0-15.49,15.5A15.49,15.49,0,0,0,33.92,19.34Z"/><path class="cls-19" d="M33.8,19.2A15.5,15.5,0,1,0,18.31,34.69,15.5,15.5,0,0,0,33.8,19.2Z"/><path class="cls-20" d="M33.68,19.05a15.5,15.5,0,1,0-15.5,15.49A15.5,15.5,0,0,0,33.68,19.05Z"/><path class="cls-21" d="M33.56,18.9a15.5,15.5,0,1,0-15.5,15.49A15.5,15.5,0,0,0,33.56,18.9Z"/><path class="cls-22" d="M33.44,18.75a15.5,15.5,0,1,0-15.5,15.49A15.5,15.5,0,0,0,33.44,18.75Z"/><path class="cls-23" d="M33.31,18.6A15.5,15.5,0,1,0,17.82,34.09,15.49,15.49,0,0,0,33.31,18.6Z"/><path class="cls-24" d="M33.19,18.45A15.5,15.5,0,1,0,17.7,33.94,15.5,15.5,0,0,0,33.19,18.45Z"/><path class="cls-25" d="M33.07,18.3a15.5,15.5,0,1,0-15.5,15.49A15.5,15.5,0,0,0,33.07,18.3Z"/><path class="cls-26" d="M33,18.15a15.5,15.5,0,1,0-15.5,15.5A15.5,15.5,0,0,0,33,18.15Z"/><path class="cls-27" d="M32.82,18A15.5,15.5,0,1,0,17.33,33.5,15.49,15.49,0,0,0,32.82,18Z"/><path class="cls-28" d="M32.7,17.85a15.5,15.5,0,1,0-15.49,15.5A15.5,15.5,0,0,0,32.7,17.85Z"/><path class="cls-29" d="M32.58,17.7A15.5,15.5,0,1,0,17.09,33.2,15.5,15.5,0,0,0,32.58,17.7Z"/><path class="cls-30" d="M32.46,17.55A15.5,15.5,0,1,0,17,33.05,15.5,15.5,0,0,0,32.46,17.55Z"/><path class="cls-31" d="M32.34,17.4a15.5,15.5,0,1,0-15.5,15.5A15.5,15.5,0,0,0,32.34,17.4Z"/><path class="cls-32" d="M32.21,17.25a15.5,15.5,0,1,0-15.49,15.5A15.48,15.48,0,0,0,32.21,17.25Z"/><path class="cls-33" d="M32.09,17.1A15.5,15.5,0,1,0,16.6,32.6,15.49,15.49,0,0,0,32.09,17.1Z"/><path class="cls-34" d="M32,17a15.5,15.5,0,1,0-15.5,15.5A15.49,15.49,0,0,0,32,17Z"/><path class="cls-35" d="M31.85,16.8a15.5,15.5,0,1,0-15.5,15.5A15.49,15.49,0,0,0,31.85,16.8Z"/><path class="cls-36" d="M31.73,16.65a15.5,15.5,0,1,0-15.5,15.5A15.49,15.49,0,0,0,31.73,16.65Z"/><path class="cls-37" d="M31.6,16.5A15.5,15.5,0,1,0,16.11,32,15.49,15.49,0,0,0,31.6,16.5Z"/><path class="cls-38" d="M31.48,16.35A15.5,15.5,0,1,0,16,31.85,15.5,15.5,0,0,0,31.48,16.35Z"/><path class="cls-39" d="M31.36,16.21A15.5,15.5,0,1,0,15.86,31.7,15.5,15.5,0,0,0,31.36,16.21Z"/><path class="cls-40" d="M31.24,16.06a15.5,15.5,0,1,0-15.5,15.49A15.5,15.5,0,0,0,31.24,16.06Z"/><path class="cls-41" d="M31.12,15.91A15.5,15.5,0,1,0,15.62,31.4,15.5,15.5,0,0,0,31.12,15.91Z"/><path class="cls-42" d="M31,15.76A15.5,15.5,0,1,0,15.5,31.25,15.49,15.49,0,0,0,31,15.76Z"/><path class="cls-43" d="M31,15.5A15.5,15.5,0,1,0,15.54,31,15.5,15.5,0,0,0,31,15.5Z"/><path class="cls-44" d="M22,8.39A.8.8,0,0,1,23,9.3L20.37,22a.83.83,0,0,1-1.31.5l-4-2.94L13,21.64a.68.68,0,0,1-1.13-.27L10.4,16.69,6.45,15.52a.57.57,0,0,1,0-1.07ZM20,11.21a.19.19,0,0,0-.22-.3L11.25,16.2a.38.38,0,0,0-.17.44l1.17,5.11c0,.08.13.06.14,0l.26-3.89a.44.44,0,0,1,.13-.25Z"/></g></g></svg>