<svg width="36" height="38" viewBox="0 0 36 38" fill="none" xmlns="http://www.w3.org/2000/svg">
<path opacity="0.02" d="M35.8799 21.74C35.8819 18.674 34.9745 15.6762 33.2725 13.1259C31.5706 10.5756 29.1505 8.58742 26.3184 7.41273C23.4863 6.23803 20.3695 5.92966 17.3621 6.5266C14.3548 7.12354 11.592 8.59898 9.42327 10.7663C7.25456 12.9336 5.77733 15.6954 5.17845 18.7024C4.57957 21.7094 4.88594 24.8264 6.0588 27.6593C7.23166 30.4921 9.21833 32.9135 11.7675 34.6171C14.3167 36.3207 17.3138 37.23 20.3799 37.23C24.489 37.23 28.43 35.5983 31.3365 32.6937C34.243 29.789 35.8772 25.8491 35.8799 21.74Z" fill="#AFAFAF"/>
<path opacity="0.05" d="M35.7598 21.5901C35.7617 18.524 34.8544 15.5263 33.1524 12.976C31.4505 10.4257 29.0304 8.43752 26.1983 7.26282C23.3662 6.08813 20.2494 5.77975 17.242 6.3767C14.2346 6.97364 11.4719 8.44908 9.30316 10.6164C7.13444 12.7837 5.65722 15.5455 5.05833 18.5525C4.45945 21.5595 4.76582 24.6765 5.93868 27.5094C7.11155 30.3422 9.09821 32.7636 11.6474 34.4672C14.1966 36.1708 17.1937 37.0801 20.2598 37.0801C24.3689 37.0801 28.3099 35.4484 31.2164 32.5438C34.1229 29.6391 35.7571 25.6992 35.7598 21.5901V21.5901Z" fill="#AFAFAF"/>
<path opacity="0.07" d="M35.6299 21.4399C35.6319 18.3735 34.7242 15.3753 33.0218 12.8248C31.3194 10.2743 28.8988 8.28612 26.0661 7.11172C23.2334 5.93732 20.1161 5.62953 17.1084 6.22728C14.1008 6.82503 11.3381 8.30147 9.16974 10.4698C7.00142 12.6381 5.52498 15.4009 4.92723 18.4085C4.32948 21.4161 4.63727 24.5335 5.81167 27.3661C6.98607 30.1988 8.97429 32.6195 11.5248 34.3219C14.0753 36.0243 17.0734 36.9319 20.1399 36.9299C24.2481 36.9299 28.188 35.298 31.093 32.393C33.9979 29.4881 35.6299 25.5481 35.6299 21.4399V21.4399Z" fill="#AFAFAF"/>
<path opacity="0.1" d="M35.5098 21.29C35.5117 18.2244 34.6046 15.2271 32.9031 12.677C31.2016 10.127 28.7821 8.13872 25.9506 6.96373C23.1191 5.78875 20.0028 5.47979 16.9957 6.07592C13.9886 6.67205 11.2258 8.1465 9.05669 10.3128C6.88758 12.4791 5.40957 15.24 4.80955 18.2463C4.20954 21.2526 4.51449 24.3694 5.68582 27.2024C6.85715 30.0354 8.84226 32.4574 11.3901 34.1623C13.938 35.8671 16.9342 36.7781 19.9998 36.78C22.0353 36.7813 24.0511 36.3817 25.9321 35.604C27.8132 34.8263 29.5226 33.6856 30.9629 32.2473C32.4031 30.8089 33.5459 29.1009 34.3261 27.2209C35.1062 25.3408 35.5085 23.3255 35.5098 21.29V21.29Z" fill="#AFAFAF"/>
<path opacity="0.12" d="M35.3901 21.1399C35.3901 18.0743 34.4811 15.0775 32.7779 12.5286C31.0748 9.9796 28.654 7.99293 25.8217 6.81977C22.9895 5.64661 19.8729 5.33966 16.8662 5.93773C13.8595 6.5358 11.0977 8.01203 8.92999 10.1797C6.76227 12.3475 5.28604 15.1093 4.68797 18.116C4.0899 21.1227 4.39685 24.2392 5.57001 27.0715C6.74317 29.9037 8.72984 32.3245 11.2788 34.0277C13.8278 35.7308 16.8245 36.6399 19.8901 36.6399C24.001 36.6399 27.9435 35.0069 30.8503 32.1001C33.7571 29.1932 35.3901 25.2508 35.3901 21.1399Z" fill="#AFAFAF"/>
<path opacity="0.15" d="M35.27 21C35.27 17.9344 34.361 14.9376 32.6578 12.3887C30.9546 9.83971 28.5339 7.85303 25.7016 6.67987C22.8694 5.50672 19.7528 5.19976 16.7461 5.79784C13.7394 6.39591 10.9776 7.87214 8.80987 10.0399C6.64216 12.2076 5.16593 14.9694 4.56785 17.9761C3.96978 20.9828 4.27674 24.0993 5.44989 26.9316C6.62305 29.7639 8.60973 32.1846 11.1587 33.8878C13.7077 35.5909 16.7044 36.5 19.77 36.5C21.8055 36.5 23.8211 36.0991 25.7016 35.3201C27.5822 34.5412 29.2909 33.3995 30.7302 31.9602C32.1695 30.5209 33.3112 28.8121 34.0902 26.9316C34.8691 25.0511 35.27 23.0355 35.27 21V21Z" fill="#AFAFAF"/>
<path opacity="0.17" d="M35.1499 20.8401C35.1499 17.7745 34.2409 14.7777 32.5377 12.2288C30.8345 9.67979 28.4138 7.69312 25.5815 6.51996C22.7492 5.3468 19.6327 5.03985 16.626 5.63792C13.6193 6.23599 10.8575 7.71223 8.68975 9.87994C6.52204 12.0477 5.04581 14.8095 4.44774 17.8162C3.84967 20.8229 4.15662 23.9394 5.32978 26.7717C6.50293 29.6039 8.48961 32.0247 11.0386 33.7279C13.5875 35.431 16.5843 36.3401 19.6499 36.3401C21.6854 36.3401 23.701 35.9392 25.5815 35.1602C27.462 34.3813 29.1708 33.2396 30.6101 31.8003C32.0494 30.3609 33.1911 28.6522 33.97 26.7717C34.749 24.8911 35.1499 22.8756 35.1499 20.8401V20.8401Z" fill="#AFAFAF"/>
<path opacity="0.2" d="M35 20.6899C35 17.6239 34.0907 14.6267 32.3871 12.0776C30.6835 9.52839 28.2621 7.54172 25.4293 6.36886C22.5965 5.19599 19.4794 4.88963 16.4724 5.48851C13.4654 6.08739 10.7036 7.56462 8.53632 9.73333C6.369 11.902 4.89356 14.6648 4.29662 17.6722C3.69968 20.6795 4.00805 23.7964 5.18275 26.6285C6.35744 29.4605 8.34567 31.8806 10.8959 33.5826C13.4462 35.2845 16.444 36.1919 19.51 36.1899C21.545 36.1899 23.5601 35.789 25.4401 35.0099C27.3201 34.2308 29.0281 33.0889 30.4666 31.6495C31.9051 30.2101 33.0459 28.5013 33.8238 26.6208C34.6016 24.7403 35.0013 22.725 35 20.6899V20.6899Z" fill="#AFAFAF"/>
<path opacity="0.22" d="M34.8999 20.54C34.9078 17.4723 34.0052 14.4712 32.3064 11.9168C30.6076 9.36232 28.189 7.36943 25.3569 6.19042C22.5248 5.01142 19.4065 4.69934 16.3969 5.2937C13.3873 5.88806 10.6217 7.36212 8.45038 9.52923C6.27906 11.6963 4.79964 14.459 4.19945 17.4675C3.59926 20.4759 3.9053 23.5948 5.07881 26.4293C6.25231 29.2637 8.24051 31.6861 10.7917 33.3898C13.3428 35.0936 16.3421 36.002 19.4099 36C23.5121 35.9974 27.4459 34.3687 30.3494 31.4708C33.2529 28.5729 34.8893 24.6422 34.8999 20.54V20.54Z" fill="#AFAFAF"/>
<path opacity="0.24" d="M34.7798 20.3899C34.7798 17.3243 33.8707 14.3275 32.1676 11.7786C30.4644 9.2296 28.0436 7.24293 25.2114 6.06977C22.3791 4.89661 19.2626 4.58966 16.2559 5.18773C13.2492 5.7858 10.4874 7.26203 8.31964 9.42974C6.15192 11.5975 4.67569 14.3593 4.07762 17.366C3.47955 20.3727 3.7865 23.4892 4.95966 26.3215C6.13282 29.1537 8.11949 31.5745 10.6685 33.2777C13.2174 34.9808 16.2142 35.8899 19.2798 35.8899C23.3906 35.8899 27.3331 34.2569 30.2399 31.3501C33.1468 28.4432 34.7798 24.5008 34.7798 20.3899Z" fill="#AFAFAF"/>
<path opacity="0.27" d="M34.6602 20.24C34.6602 17.1744 33.7511 14.1776 32.0479 11.6287C30.3448 9.0797 27.924 7.09302 25.0918 5.91986C22.2595 4.74671 19.143 4.43975 16.1363 5.03783C13.1296 5.6359 10.3677 7.11213 8.20001 9.27984C6.03229 11.4476 4.55606 14.2094 3.95799 17.2161C3.35992 20.2228 3.66687 23.3393 4.84003 26.1716C6.01319 29.0038 7.99986 31.4246 10.5488 33.1278C13.0978 34.8309 16.0946 35.74 19.1602 35.74C21.196 35.7413 23.2122 35.3413 25.0933 34.5628C26.9745 33.7843 28.6837 32.6427 30.1233 31.2031C31.5628 29.7635 32.7045 28.0543 33.483 26.1731C34.2615 24.292 34.6615 22.2759 34.6602 20.24V20.24Z" fill="#AFAFAF"/>
<path opacity="0.29" d="M34.5298 20.0901C34.5298 17.0257 33.6215 14.0302 31.9196 11.4819C30.2178 8.93355 27.7988 6.94686 24.9683 5.77283C22.1378 4.59879 19.0228 4.29009 16.0169 4.88574C13.011 5.48138 10.2491 6.95463 8.08024 9.11935C5.91133 11.2841 4.43274 14.0431 3.83129 17.0478C3.22983 20.0525 3.53251 23.1681 4.70107 26.0009C5.86963 28.8337 7.85163 31.2565 10.3966 32.9633C12.9417 34.67 15.9355 35.5841 18.9998 35.5901C21.0385 35.5967 23.0585 35.2004 24.9437 34.4242C26.8289 33.648 28.5422 32.507 29.9852 31.0667C31.4282 29.6265 32.5725 27.9154 33.3524 26.0317C34.1323 24.148 34.5324 22.1288 34.5298 20.0901V20.0901Z" fill="#AFAFAF"/>
<path opacity="0.32" d="M34.4102 19.9399C34.4102 16.8739 33.5009 13.8767 31.7972 11.3276C30.0936 8.77839 27.6723 6.79172 24.8394 5.61886C22.0066 4.44599 18.8896 4.13963 15.8826 4.73851C12.8756 5.33739 10.1138 6.81462 7.94647 8.98333C5.77916 11.152 4.30371 13.9148 3.70677 16.9222C3.10983 19.9295 3.41821 23.0464 4.5929 25.8785C5.76759 28.7105 7.75582 31.1306 10.3061 32.8326C12.8564 34.5345 15.8541 35.4419 18.9202 35.4399C20.9552 35.4399 22.9703 35.039 24.8502 34.2599C26.7302 33.4808 28.4383 32.3389 29.8768 30.8995C31.3153 29.4601 32.4561 27.7513 33.2339 25.8708C34.0118 23.9903 34.4115 21.975 34.4102 19.9399V19.9399Z" fill="#AFAFAF"/>
<path opacity="0.34" d="M34.29 19.79C34.29 16.7244 33.381 13.7277 31.6778 11.1787C29.9747 8.62975 27.5539 6.64307 24.7216 5.46991C21.8894 4.29675 18.7729 3.9898 15.7661 4.58787C12.7594 5.18595 9.99761 6.66218 7.82989 8.82989C5.66218 10.9976 4.18595 13.7594 3.58787 16.7661C2.9898 19.7729 3.29675 22.8894 4.46991 25.7216C5.64307 28.5539 7.62975 30.9747 10.1787 32.6778C12.7277 34.381 15.7244 35.29 18.79 35.29C20.8259 35.2914 22.8421 34.8913 24.7232 34.1129C26.6043 33.3344 28.3136 32.1927 29.7531 30.7531C31.1927 29.3136 32.3344 27.6043 33.1129 25.7232C33.8913 23.8421 34.2914 21.8259 34.29 19.79V19.79Z" fill="#AFAFAF"/>
<path opacity="0.37" d="M34.1699 19.6399C34.1699 16.5743 33.2609 13.5775 31.5577 11.0286C29.8545 8.4796 27.4338 6.49293 24.6015 5.31977C21.7693 4.14661 18.6527 3.83966 15.646 4.43773C12.6393 5.0358 9.87749 6.51203 7.70977 8.67974C5.54206 10.8475 4.06583 13.6093 3.46776 16.616C2.86969 19.6227 3.17664 22.7392 4.3498 25.5715C5.52295 28.4037 7.50963 30.8245 10.0586 32.5277C12.6076 34.2308 15.6043 35.1399 18.6699 35.1399C20.7058 35.1412 22.7219 34.7412 24.6031 33.9627C26.4842 33.1842 28.1934 32.0426 29.633 30.603C31.0726 29.1634 32.2143 27.4542 32.9927 25.573C33.7712 23.6919 34.1712 21.6758 34.1699 19.6399V19.6399Z" fill="#AFAFAF"/>
<path opacity="0.39" d="M34.0498 19.49C34.0478 16.4248 33.1371 13.429 31.4327 10.8814C29.7284 8.33375 27.3069 6.34863 24.4745 5.17701C21.642 4.00538 18.5258 3.69986 15.5198 4.29906C12.5137 4.89826 9.75284 6.37528 7.58612 8.54339C5.41941 10.7115 3.94417 13.4734 3.34691 16.4798C2.74965 19.4862 3.05718 22.6022 4.23063 25.4339C5.40409 28.2656 7.39077 30.6858 9.93951 32.3885C12.4883 34.0912 15.4846 35 18.5498 35C20.5861 35 22.6025 34.5988 24.4837 33.8192C26.3649 33.0396 28.0741 31.897 29.5135 30.4566C30.9529 29.0163 32.0945 27.3064 32.8728 25.4247C33.6512 23.543 34.0511 21.5263 34.0498 19.49V19.49Z" fill="#AFAFAF"/>
<path opacity="0.41" d="M33.9199 19.3401C33.9199 16.2741 33.0106 13.2769 31.307 10.7277C29.6034 8.17854 27.182 6.19187 24.3492 5.019C21.5164 3.84614 18.3993 3.53977 15.3923 4.13866C12.3854 4.73754 9.62355 6.21476 7.45624 8.38348C5.28892 10.5522 3.81348 13.315 3.21654 16.3223C2.6196 19.3297 2.92798 22.4465 4.10267 25.2786C5.27736 28.1107 7.26559 30.5308 9.81587 32.2327C12.3661 33.9347 15.3639 34.8421 18.4299 34.8401C20.4649 34.8401 22.48 34.4391 24.36 33.66C26.24 32.881 27.948 31.7391 29.3866 30.2996C30.8251 28.8602 31.9658 27.1514 32.7437 25.2709C33.5216 23.3904 33.9212 21.3751 33.9199 19.3401V19.3401Z" fill="#AFAFAF"/>
<path opacity="0.44" d="M33.7998 19.1999C33.8018 16.1335 32.8942 13.1353 31.1918 10.5848C29.4894 8.03435 27.0687 6.04613 24.236 4.87173C21.4034 3.69733 18.286 3.38954 15.2784 3.98729C12.2707 4.58504 9.50797 6.06148 7.33966 8.22979C5.17134 10.3981 3.6949 13.1609 3.09715 16.1685C2.4994 19.1761 2.80719 22.2935 3.98159 25.1262C5.15599 27.9588 7.14421 30.3795 9.69471 32.0819C12.2452 33.7843 15.2433 34.6919 18.3098 34.6899C22.4172 34.6873 26.3556 33.0545 29.26 30.1501C32.1643 27.2457 33.7972 23.3073 33.7998 19.1999Z" fill="#AFAFAF"/>
<path opacity="0.46" d="M33.6802 19.05C33.6822 15.984 32.7748 12.9863 31.0728 10.436C29.3709 7.88571 26.9508 5.89748 24.1187 4.72279C21.2866 3.54809 18.1698 3.23971 15.1624 3.83666C12.155 4.4336 9.39228 5.90904 7.22357 8.07636C5.05485 10.2437 3.57763 13.0055 2.97874 16.0125C2.37986 19.0194 2.68623 22.1365 3.85909 24.9693C5.03196 27.8022 7.01862 30.2235 9.5678 31.9271C12.117 33.6307 15.1141 34.54 18.1802 34.54C22.2893 34.54 26.2303 32.9084 29.1368 30.0037C32.0433 27.0991 33.6775 23.1592 33.6802 19.05V19.05Z" fill="#AFAFAF"/>
<path opacity="0.49" d="M33.5601 18.8999C33.562 15.8339 32.6547 12.8361 30.9527 10.2858C29.2507 7.73556 26.8307 5.74733 23.9986 4.57264C21.1665 3.39795 18.0497 3.08957 15.0423 3.68651C12.0349 4.28345 9.27216 5.75889 7.10345 7.92621C4.93473 10.0935 3.45751 12.8553 2.85863 15.8623C2.25974 18.8693 2.56611 21.9863 3.73898 24.8192C4.91184 27.652 6.89851 30.0734 9.44769 31.777C11.9969 33.4806 14.994 34.3899 18.0601 34.3899C22.1692 34.3899 26.1102 32.7582 29.0167 29.8536C31.9232 26.9489 33.5574 23.009 33.5601 18.8999Z" fill="#AFAFAF"/>
<path opacity="0.51" d="M33.4399 18.75C33.4419 15.684 32.5345 12.6862 30.8326 10.1359C29.1306 7.58566 26.7105 5.59743 23.8785 4.42274C21.0464 3.24804 17.9295 2.93967 14.9222 3.53661C11.9148 4.13355 9.15205 5.60899 6.98333 7.77631C4.81462 9.94362 3.33739 12.7054 2.73851 15.7124C2.13963 18.7194 2.44599 21.8364 3.61886 24.6693C4.79172 27.5021 6.77839 29.9235 9.32757 31.6271C11.8767 33.3307 14.8739 34.24 17.9399 34.24C22.0491 34.24 25.99 32.6083 28.8966 29.7037C31.8031 26.799 33.4373 22.8591 33.4399 18.75V18.75Z" fill="#AFAFAF"/>
<path opacity="0.54" d="M33.3101 18.6001C33.312 15.5336 32.4044 12.5355 30.702 9.98499C28.9996 7.4345 26.5789 5.44627 23.7463 4.27188C20.9136 3.09748 17.7963 2.78968 14.7886 3.38744C11.781 3.98519 9.01823 5.46162 6.84991 7.62994C4.68159 9.79826 3.20516 12.561 2.60741 15.5686C2.00965 18.5763 2.31745 21.6936 3.49185 24.5263C4.66624 27.359 6.65447 29.7796 9.20496 31.482C11.7555 33.1844 14.7536 34.0921 17.8201 34.0901C21.9283 34.0901 25.8682 32.4581 28.7731 29.5532C31.6781 26.6482 33.3101 22.7083 33.3101 18.6001V18.6001Z" fill="#AFAFAF"/>
<path opacity="0.56" d="M33.1899 18.4499C33.1919 15.3835 32.2843 12.3853 30.5819 9.83485C28.8795 7.28435 26.4588 5.29613 23.6262 4.12173C20.7935 2.94733 17.6761 2.63954 14.6685 3.23729C11.6609 3.83504 8.89811 5.31148 6.72979 7.47979C4.56148 9.64811 3.08504 12.4109 2.48729 15.4185C1.88954 18.4261 2.19733 21.5435 3.37173 24.3762C4.54613 27.2088 6.53435 29.6295 9.08485 31.3319C11.6353 33.0343 14.6335 33.9419 17.6999 33.9399C21.8073 33.9373 25.7457 32.3045 28.6501 29.4001C31.5545 26.4957 33.1873 22.5573 33.1899 18.4499V18.4499Z" fill="#AFAFAF"/>
<path opacity="0.59" d="M33.0698 18.3C33.0718 15.234 32.1644 12.2363 30.4625 9.68599C28.7605 7.13571 26.3404 5.14748 23.5084 3.97279C20.6763 2.79809 17.5594 2.48971 14.5521 3.08666C11.5447 3.6836 8.78193 5.15904 6.61321 7.32635C4.4445 9.49367 2.96727 12.2555 2.36839 15.2625C1.76951 18.2694 2.07588 21.3865 3.24874 24.2193C4.4216 27.0522 6.40827 29.4735 8.95745 31.1771C11.5066 32.8807 14.5038 33.79 17.5698 33.79C21.679 33.79 25.6199 32.1584 28.5264 29.2537C31.433 26.3491 33.0672 22.4092 33.0698 18.3Z" fill="#AFAFAF"/>
<path opacity="0.61" d="M33 18.1499C33 15.0843 32.0909 12.0875 30.3878 9.53857C28.6846 6.98961 26.2639 5.00294 23.4316 3.82978C20.5993 2.65662 17.4828 2.34967 14.4761 2.94774C11.4694 3.54581 8.70757 5.02204 6.53985 7.18975C4.37214 9.35747 2.89591 12.1193 2.29784 15.126C1.69976 18.1327 2.00672 21.2492 3.17987 24.0815C4.35303 26.9138 6.33971 29.3345 8.88867 31.0377C11.4376 32.7408 14.4344 33.6499 17.5 33.6499C21.6109 33.6499 25.5533 32.0169 28.4602 29.1101C31.367 26.2032 33 22.2608 33 18.1499V18.1499Z" fill="#AFAFAF"/>
<path opacity="0.63" d="M32.8198 18C32.8198 14.934 31.9105 11.9368 30.2069 9.38763C28.5033 6.83845 26.082 4.85178 23.2491 3.67892C20.4163 2.50605 17.2992 2.19969 14.2923 2.79857C11.2853 3.39745 8.52346 4.87468 6.35614 7.04339C4.18882 9.2121 2.71338 11.9749 2.11644 14.9822C1.5195 17.9896 1.82788 21.1065 3.00257 23.9385C4.17726 26.7706 6.16549 29.1907 8.71577 30.8926C11.266 32.5946 14.2638 33.502 17.3298 33.5C19.3648 33.5 21.3799 33.099 23.2599 32.3199C25.1399 31.5409 26.8479 30.399 28.2865 28.9596C29.725 27.5201 30.8657 25.8113 31.6436 23.9308C32.4215 22.0504 32.8211 20.035 32.8198 18V18Z" fill="#AFAFAF"/>
<path opacity="0.66" d="M32.7002 17.8501C32.7002 14.7841 31.7909 11.7869 30.0873 9.23772C28.3837 6.68855 25.9623 4.70188 23.1295 3.52901C20.2966 2.35615 17.1796 2.04978 14.1726 2.64867C11.1656 3.24755 8.40383 4.72477 6.23651 6.89349C4.0692 9.0622 2.59375 11.825 1.99681 14.8323C1.39987 17.8397 1.70825 20.9565 2.88294 23.7886C4.05763 26.6207 6.04586 29.0408 8.59614 30.7427C11.1464 32.4447 14.1442 33.3521 17.2102 33.3501C21.3193 33.3474 25.2592 31.7132 28.1639 28.8067C31.0685 25.9002 32.7002 21.9592 32.7002 17.8501V17.8501Z" fill="#AFAFAF"/>
<path opacity="0.68" d="M32.5801 17.7C32.5801 14.6339 31.6708 11.6368 29.9672 9.08758C28.2636 6.5384 25.8422 4.55173 23.0094 3.37887C20.1765 2.206 17.0595 1.89964 14.0525 2.49852C11.0455 3.0974 8.28371 4.57463 6.11639 6.74334C3.94908 8.91205 2.47364 11.6748 1.87669 14.6822C1.27975 17.6896 1.58813 20.8064 2.76282 23.6385C3.93752 26.4706 5.92575 28.8906 8.47602 30.5926C11.0263 32.2946 14.024 33.2019 17.0901 33.2C21.1992 33.1973 25.1391 31.5631 28.0438 28.6566C30.9484 25.75 32.5801 21.8091 32.5801 17.7Z" fill="#AFAFAF"/>
<path opacity="0.71" d="M32.46 17.55C32.46 14.4827 31.5499 11.4843 29.8449 8.93452C28.14 6.3847 25.7169 4.39806 22.8823 3.22608C20.0477 2.05411 16.9291 1.7495 13.9213 2.35082C10.9135 2.95214 8.15177 4.43235 5.98566 6.60407C3.81955 8.77579 2.34648 11.5414 1.75294 14.5507C1.15939 17.56 1.47205 20.6778 2.65135 23.5094C3.83064 26.3409 5.82354 28.7589 8.37776 30.4573C10.932 32.1556 13.9327 33.0579 17 33.05C21.1039 33.0394 25.0361 31.4017 27.9343 28.496C30.8324 25.5904 32.46 21.6539 32.46 17.55V17.55Z" fill="#AFAFAF"/>
<path opacity="0.73" d="M32.3399 17.3999C32.3399 14.3343 31.4308 11.3375 29.7276 8.78857C28.0245 6.23961 25.6037 4.25294 22.7714 3.07978C19.9392 1.90662 16.8227 1.59967 13.816 2.19774C10.8092 2.79581 8.04741 4.27204 5.8797 6.43975C3.71198 8.60747 2.23575 11.3693 1.63768 14.376C1.03961 17.3827 1.34656 20.4992 2.51972 23.3315C3.69288 26.1638 5.67955 28.5845 8.22851 30.2877C10.7775 31.9908 13.7742 32.8999 16.8399 32.8999C20.9507 32.8999 24.8932 31.2669 27.8 28.3601C30.7068 25.4532 32.3399 21.5108 32.3399 17.3999Z" fill="#AFAFAF"/>
<path opacity="0.76" d="M32.21 17.25C32.21 14.184 31.3007 11.1868 29.597 8.63763C27.8934 6.08845 25.4721 4.10178 22.6392 2.92892C19.8064 1.75605 16.6894 1.44969 13.6824 2.04857C10.6754 2.64745 7.91359 4.12468 5.74628 6.29339C3.57896 8.4621 2.10352 11.2249 1.50658 14.2322C0.909637 17.2396 1.21802 20.3565 2.39271 23.1885C3.5674 26.0206 5.55563 28.4407 8.10591 30.1426C10.6562 31.8446 13.6539 32.752 16.72 32.75C18.7554 32.7513 20.771 32.3512 22.6516 31.5726C24.5322 30.794 26.2408 29.6522 27.6795 28.2125C29.1183 26.7728 30.259 25.0635 31.0364 23.1824C31.8138 21.3013 32.2126 19.2854 32.21 17.25Z" fill="#AFAFAF"/>
<path opacity="0.78" d="M32.0899 17.1001C32.0899 14.0341 31.1805 11.0369 29.4769 8.48772C27.7733 5.93855 25.352 3.95188 22.5191 2.77901C19.6863 1.60615 16.5692 1.29978 13.5623 1.89867C10.5553 2.49755 7.79347 3.97477 5.62616 6.14349C3.45884 8.3122 1.9834 11.075 1.38646 14.0823C0.789519 17.0897 1.0979 20.2065 2.27259 23.0386C3.44728 25.8707 5.43551 28.2908 7.98579 29.9927C10.5361 31.6947 13.5338 32.6021 16.5999 32.6001C18.6349 32.6001 20.6499 32.1991 22.5299 31.42C24.4099 30.641 26.118 29.4991 27.5565 28.0597C28.995 26.6202 30.1358 24.9114 30.9136 23.0309C31.6915 21.1505 32.0912 19.1351 32.0899 17.1001V17.1001Z" fill="#AFAFAF"/>
<path opacity="0.8" d="M32 17C32 13.9344 31.0909 10.9376 29.3878 8.38867C27.6846 5.83971 25.2639 3.85303 22.4316 2.67987C19.5993 1.50672 16.4828 1.19976 13.4761 1.79784C10.4694 2.39591 7.70757 3.87214 5.53985 6.03985C3.37214 8.20757 1.89591 10.9694 1.29784 13.9761C0.699764 16.9828 1.00672 20.0993 2.17987 22.9316C3.35303 25.7639 5.33971 28.1846 7.88867 29.8878C10.4376 31.5909 13.4344 32.5 16.5 32.5C18.5359 32.5013 20.552 32.1013 22.4332 31.3228C24.3143 30.5443 26.0235 29.4027 27.4631 27.9631C28.9027 26.5235 30.0443 24.8143 30.8228 22.9332C31.6013 21.052 32.0013 19.0359 32 17V17Z" fill="#AFAFAF"/>
<path opacity="0.83" d="M31.8501 16.8001C31.8501 13.7344 30.941 10.7377 29.2379 8.18872C27.5347 5.63976 25.114 3.65308 22.2817 2.47992C19.4494 1.30676 16.3329 0.999813 13.3262 1.59788C10.3195 2.19595 7.55766 3.67219 5.38995 5.8399C3.22224 8.00761 1.746 10.7695 1.14793 13.7762C0.549862 16.7829 0.856814 19.8994 2.02997 22.7316C3.20313 25.5639 5.1898 27.9847 7.73877 29.6878C10.2877 31.391 13.2845 32.3001 16.3501 32.3001C18.386 32.3014 20.4021 31.9013 22.2833 31.1229C24.1644 30.3444 25.8736 29.2027 27.3132 27.7631C28.7528 26.3236 29.8944 24.6143 30.6729 22.7332C31.4514 20.8521 31.8514 18.8359 31.8501 16.8001V16.8001Z" fill="#AFAFAF"/>
<path opacity="0.85" d="M31.73 16.6499C31.73 13.5843 30.8209 10.5875 29.1178 8.03857C27.4146 5.48961 24.9938 3.50293 22.1616 2.32978C19.3293 1.15662 16.2128 0.849667 13.2061 1.44774C10.1994 2.04581 7.43755 3.52204 5.26983 5.68975C3.10212 7.85747 1.62589 10.6193 1.02782 13.626C0.429745 16.6327 0.736696 19.7492 1.90985 22.5815C3.08301 25.4138 5.06969 27.8345 7.61865 29.5377C10.1676 31.2408 13.1644 32.1499 16.23 32.1499C18.2658 32.1512 20.282 31.7512 22.1631 30.9727C24.0443 30.1942 25.7535 29.0526 27.1931 27.613C28.6326 26.1734 29.7743 24.4642 30.5528 22.5831C31.3313 20.7019 31.7313 18.6858 31.73 16.6499V16.6499Z" fill="#AFAFAF"/>
<path opacity="0.88" d="M31.6001 16.5C31.6001 13.434 30.6908 10.4368 28.9872 7.88763C27.2836 5.33845 24.8622 3.35178 22.0294 2.17892C19.1965 1.00605 16.0795 0.699686 13.0725 1.29857C10.0655 1.89745 7.30373 3.37468 5.13641 5.54339C2.9691 7.7121 1.49366 10.4749 0.896715 13.4822C0.299773 16.4896 0.608152 19.6065 1.78284 22.4385C2.95754 25.2706 4.94577 27.6907 7.49604 29.3926C10.0463 31.0946 13.0441 32.002 16.1101 32C18.1451 32 20.1602 31.599 22.0402 30.8199C23.9202 30.0409 25.6282 28.899 27.0667 27.4596C28.5052 26.0201 29.646 24.3113 30.4239 22.4308C31.2017 20.5504 31.6014 18.535 31.6001 16.5V16.5Z" fill="#AFAFAF"/>
<path opacity="0.9" d="M31.48 16.3501C31.48 13.2836 30.5704 10.2861 28.8664 7.73668C27.1623 5.18728 24.7404 3.20062 21.907 2.02806C19.0735 0.855487 15.956 0.549706 12.9487 1.1494C9.94147 1.74909 7.17967 3.22731 5.01276 5.39703C2.84584 7.56674 1.37119 10.3304 0.775381 13.3385C0.179571 16.3465 0.489377 19.4637 1.6656 22.2956C2.84183 25.1275 4.83161 27.5468 7.38321 29.2476C9.9348 30.9484 12.9335 31.854 16 31.8501C20.1074 31.8448 24.0447 30.2094 26.9472 27.3032C29.8497 24.3969 31.48 20.4575 31.48 16.3501Z" fill="#AFAFAF"/>
<path opacity="0.93" d="M31.3599 16.21C31.3618 13.1439 30.4545 10.1462 28.7525 7.5959C27.0505 5.04562 24.6305 3.05739 21.7984 1.8827C18.9663 0.708006 15.8495 0.399627 12.8421 0.996568C9.83474 1.59351 7.07197 3.06895 4.90325 5.23627C2.73454 7.40358 1.25731 10.1654 0.658431 13.1724C0.0595489 16.1794 0.365916 19.2964 1.53878 22.1292C2.71164 24.9621 4.69831 27.3834 7.24749 29.087C9.79667 30.7906 12.7938 31.7 15.8599 31.7C19.969 31.7 23.91 30.0683 26.8165 27.1636C29.723 24.259 31.3572 20.3191 31.3599 16.21V16.21Z" fill="#AFAFAF"/>
<path opacity="0.95" d="M31.2402 16.0601C31.2422 12.994 30.3348 9.99627 28.6329 7.44599C26.9309 4.89572 24.5108 2.90749 21.6788 1.7328C18.8467 0.558103 15.7298 0.249725 12.7225 0.846666C9.71511 1.44361 6.95234 2.91905 4.78362 5.08636C2.61491 7.25368 1.13768 10.0155 0.538802 13.0225C-0.06008 16.0295 0.246287 19.1465 1.41915 21.9793C2.59202 24.8122 4.57868 27.2335 7.12786 28.9371C9.67704 30.6407 12.6742 31.5501 15.7402 31.5501C19.8494 31.5501 23.7903 29.9184 26.6969 27.0137C29.6034 24.1091 31.2376 20.1692 31.2402 16.0601V16.0601Z" fill="#AFAFAF"/>
<path opacity="0.98" d="M31.1201 15.9099C31.1221 12.8439 30.2147 9.84612 28.5128 7.29585C26.8108 4.74557 24.3907 2.75734 21.5586 1.58265C18.7266 0.407957 15.6097 0.0995781 12.6024 0.696519C9.59499 1.29346 6.83222 2.7689 4.66351 4.93622C2.49479 7.10353 1.01757 9.86535 0.418685 12.8723C-0.180197 15.8793 0.12617 18.9964 1.29903 21.8292C2.4719 24.662 4.45857 27.0834 7.00774 28.787C9.55692 30.4906 12.5541 31.3999 15.6201 31.3999C19.7292 31.3999 23.6702 29.7683 26.5767 26.8636C29.4833 23.9589 31.1175 20.019 31.1201 15.9099V15.9099Z" fill="#AFAFAF"/>
<path d="M31 15.76C31.002 12.694 30.0946 9.69622 28.3926 7.14595C26.6907 4.59567 24.2706 2.60744 21.4385 1.43275C18.6065 0.258054 15.4896 -0.0503243 12.4822 0.546617C9.47487 1.14356 6.7121 2.619 4.54339 4.78632C2.37468 6.95363 0.897449 9.71545 0.298568 12.7224C-0.300314 15.7294 0.00605285 18.8465 1.17892 21.6793C2.35178 24.5121 4.33845 26.9335 6.88763 28.6371C9.4368 30.3407 12.434 31.25 15.5 31.25C17.535 31.2513 19.5504 30.8516 21.4308 30.0738C23.3113 29.2959 25.0201 28.1551 26.4596 26.7166C27.899 25.2781 29.0409 23.5701 29.8199 21.6901C30.599 19.8101 31 17.795 31 15.76V15.76Z" fill="#AFAFAF"/>
<path d="M31 15.5C31 12.4326 30.0899 9.4343 28.385 6.88447C26.68 4.33465 24.2569 2.34801 21.4223 1.17604C18.5877 0.00406182 15.4692 -0.300545 12.4614 0.300775C9.45357 0.902095 6.69181 2.3823 4.5257 4.55402C2.35959 6.72574 0.88652 9.49131 0.292974 12.5006C-0.300572 15.51 0.0120924 18.6278 1.19139 21.4593C2.37068 24.2909 4.36358 26.7089 6.9178 28.4072C9.47202 30.1055 12.4727 31.0079 15.54 31C19.6439 30.9894 23.5761 29.3517 26.4743 26.446C29.3725 23.5403 31 19.6039 31 15.5V15.5Z" fill="#3D83D9"/>
<path d="M22 8.38996C22.1301 8.35418 22.2671 8.3519 22.3984 8.38331C22.5296 8.41473 22.6507 8.47883 22.7505 8.56964C22.8503 8.66046 22.9255 8.77504 22.9692 8.90273C23.0128 9.03042 23.0234 9.16707 23 9.29996L20.37 22C20.3422 22.1371 20.2802 22.2649 20.1897 22.3716C20.0992 22.4783 19.9832 22.5604 19.8525 22.6103C19.7218 22.6602 19.5807 22.6763 19.4421 22.657C19.3035 22.6377 19.1721 22.5837 19.06 22.5L15.06 19.56L13 21.64C12.9178 21.7228 12.8157 21.7832 12.7035 21.8151C12.5912 21.8471 12.4726 21.8497 12.3591 21.8225C12.2456 21.7954 12.141 21.7395 12.0553 21.6603C11.9697 21.581 11.9058 21.481 11.87 21.37L10.4 16.69L6.45 15.52C6.3405 15.4797 6.24599 15.4068 6.17922 15.3112C6.11246 15.2155 6.07666 15.1016 6.07666 14.985C6.07666 14.8683 6.11246 14.7544 6.17922 14.6588C6.24599 14.5631 6.3405 14.4902 6.45 14.45L22 8.38996ZM20 11.21C20.0292 11.1775 20.0463 11.136 20.0485 11.0924C20.0507 11.0487 20.0378 11.0057 20.012 10.9705C19.9862 10.9353 19.949 10.91 19.9067 10.899C19.8645 10.888 19.8197 10.8919 19.78 10.91L11.25 16.2C11.1762 16.2434 11.1193 16.3105 11.0885 16.3904C11.0576 16.4702 11.0546 16.5582 11.08 16.64L12.25 21.75C12.25 21.83 12.38 21.81 12.39 21.75L12.65 17.86C12.6648 17.7646 12.7104 17.6768 12.78 17.61L20 11.21Z" fill="white"/>
</svg>
