<svg width="36" height="38" viewBox="0 0 36 38" fill="none" xmlns="http://www.w3.org/2000/svg">
<g clip-path="url(#clip0)">
<path opacity="0.02" d="M35.8799 21.48C35.8759 18.4153 34.9635 15.4205 33.2579 12.8741C31.5524 10.3278 29.1302 8.34423 26.2976 7.17414C23.465 6.00405 20.3491 5.69995 17.3437 6.30028C14.3383 6.90061 11.5784 8.37841 9.41267 10.5469C7.24696 12.7154 5.77271 15.4773 5.17626 18.4835C4.57981 21.4896 4.88792 24.6051 6.06167 27.4362C7.23541 30.2673 9.22209 32.6869 11.7706 34.3892C14.3191 36.0914 17.3151 37 20.3799 37C22.417 37 24.4342 36.5984 26.3161 35.8182C28.1979 35.038 29.9075 33.8945 31.3471 32.4531C32.7867 31.0117 33.928 29.3006 34.7058 27.4177C35.4835 25.5349 35.8825 23.5172 35.8799 21.48Z" fill="#AFAFAF"/>
<path opacity="0.05" d="M35.7598 21.3301C35.7617 18.264 34.8544 15.2663 33.1524 12.716C31.4505 10.1657 29.0304 8.17751 26.1983 7.00281C23.3662 5.82812 20.2494 5.51974 17.242 6.11669C14.2346 6.71363 11.4719 8.18907 9.30316 10.3564C7.13444 12.5237 5.65722 15.2855 5.05833 18.2925C4.45945 21.2995 4.76582 24.4165 5.93868 27.2494C7.11155 30.0822 9.09821 32.5036 11.6474 34.2072C14.1966 35.9108 17.1937 36.8201 20.2598 36.8201C24.3689 36.8201 28.3099 35.1884 31.2164 32.2838C34.1229 29.3791 35.7571 25.4392 35.7598 21.3301V21.3301Z" fill="#AFAFAF"/>
<path opacity="0.07" d="M35.6299 21.1799C35.6319 18.1135 34.7242 15.1153 33.0218 12.5648C31.3194 10.0143 28.8988 8.02611 26.0661 6.85171C23.2334 5.67731 20.1161 5.36952 17.1084 5.96727C14.1008 6.56502 11.3381 8.04146 9.16974 10.2098C7.00142 12.3781 5.52498 15.1408 4.92723 18.1485C4.32948 21.1561 4.63727 24.2735 5.81167 27.1061C6.98607 29.9388 8.97429 32.3595 11.5248 34.0619C14.0753 35.7643 17.0734 36.6719 20.1399 36.6699C22.1741 36.6699 24.1883 36.2693 26.0677 35.4908C27.947 34.7124 29.6546 33.5714 31.093 32.133C32.5314 30.6946 33.6723 28.987 34.4508 27.1077C35.2292 25.2284 35.6299 23.2141 35.6299 21.1799V21.1799Z" fill="#AFAFAF"/>
<path opacity="0.1" d="M35.5098 21C35.5058 17.9357 34.5936 14.9413 32.8885 12.3952C31.1834 9.84907 28.7618 7.8655 25.9298 6.69511C23.0978 5.52473 19.9824 5.22005 16.9773 5.81956C13.9722 6.41908 11.2122 7.8959 9.04609 10.0634C6.87997 12.2309 5.40494 14.9918 4.80736 17.9973C4.20978 21.0028 4.51647 24.118 5.68868 26.9493C6.86089 29.7806 8.84602 32.2008 11.3932 33.9043C13.9404 35.6078 16.9354 36.518 19.9998 36.52C22.0378 36.5213 24.056 36.1207 25.939 35.3411C27.8221 34.5615 29.5328 33.4182 30.9735 31.9766C32.4141 30.5351 33.5563 28.8236 34.3347 26.9401C35.1131 25.0566 35.5124 23.038 35.5098 21Z" fill="#AFAFAF"/>
<path opacity="0.12" d="M35.3901 20.8799C35.3901 17.8143 34.4811 14.8175 32.7779 12.2686C31.0748 9.71959 28.654 7.73292 25.8217 6.55976C22.9895 5.3866 19.8729 5.07965 16.8662 5.67772C13.8595 6.27579 11.0977 7.75202 8.92999 9.91973C6.76227 12.0874 5.28604 14.8493 4.68797 17.856C4.0899 20.8627 4.39685 23.9792 5.57001 26.8115C6.74317 29.6437 8.72984 32.0645 11.2788 33.7677C13.8278 35.4708 16.8245 36.3799 19.8901 36.3799C24.001 36.3799 27.9435 34.7469 30.8503 31.84C33.7571 28.9332 35.3901 24.9907 35.3901 20.8799Z" fill="#AFAFAF"/>
<path opacity="0.15" d="M35.27 20.73C35.27 17.6644 34.361 14.6676 32.6578 12.1186C30.9546 9.56969 28.5339 7.58301 25.7016 6.40985C22.8694 5.2367 19.7528 4.92974 16.7461 5.52782C13.7394 6.12589 10.9776 7.60212 8.80987 9.76983C6.64216 11.9375 5.16593 14.6994 4.56785 17.7061C3.96978 20.7128 4.27674 23.8293 5.44989 26.6616C6.62305 29.4938 8.60973 31.9146 11.1587 33.6178C13.7077 35.3209 16.7044 36.23 19.77 36.23C21.8055 36.23 23.8211 35.8291 25.7016 35.0501C27.5822 34.2712 29.2909 33.1294 30.7302 31.6901C32.1695 30.2508 33.3112 28.5421 34.0902 26.6616C34.8691 24.781 35.27 22.7655 35.27 20.73V20.73Z" fill="#AFAFAF"/>
<path opacity="0.17" d="M35.1499 20.5801C35.1499 17.5145 34.2409 14.5177 32.5377 11.9687C30.8345 9.41978 28.4138 7.43311 25.5815 6.25995C22.7492 5.08679 19.6327 4.77984 16.626 5.37791C13.6193 5.97598 10.8575 7.45222 8.68975 9.61993C6.52204 11.7876 5.04581 14.5495 4.44774 17.5562C3.84967 20.5629 4.15662 23.6794 5.32978 26.5117C6.50293 29.3439 8.48961 31.7647 11.0386 33.4679C13.5875 35.171 16.5843 36.0801 19.6499 36.0801C23.7608 36.0801 27.7032 34.4471 30.6101 31.5402C33.5169 28.6334 35.1499 24.6909 35.1499 20.5801V20.5801Z" fill="#AFAFAF"/>
<path opacity="0.2" d="M35 20.4299C35 17.3639 34.0907 14.3667 32.3871 11.8176C30.6835 9.26838 28.2621 7.28171 25.4293 6.10885C22.5965 4.93598 19.4794 4.62962 16.4724 5.2285C13.4654 5.82738 10.7036 7.30461 8.53632 9.47332C6.369 11.642 4.89356 14.4048 4.29662 17.4122C3.69968 20.4195 4.00805 23.5364 5.18275 26.3685C6.35744 29.2005 8.34567 31.6206 10.8959 33.3226C13.4462 35.0245 16.444 35.9319 19.51 35.9299C21.545 35.9299 23.5601 35.5289 25.4401 34.7499C27.3201 33.9708 29.0281 32.8289 30.4666 31.3895C31.9051 29.95 33.0459 28.2413 33.8238 26.3608C34.6016 24.4803 35.0013 22.465 35 20.4299V20.4299Z" fill="#AFAFAF"/>
<path opacity="0.22" d="M34.8999 20.28C34.8999 17.2144 33.9909 14.2177 32.2877 11.6687C30.5845 9.11974 28.1638 7.13306 25.3315 5.9599C22.4992 4.78675 19.3827 4.47979 16.376 5.07786C13.3693 5.67594 10.6075 7.15217 8.43975 9.31988C6.27204 11.4876 4.79581 14.2494 4.19774 17.2561C3.59967 20.2628 3.90662 23.3794 5.07978 26.2116C6.25293 29.0439 8.23961 31.4647 10.7886 33.1678C13.3375 34.871 16.3343 35.78 19.3999 35.78C21.4354 35.78 23.451 35.3791 25.3315 34.6002C27.212 33.8212 28.9208 32.6795 30.3601 31.2402C31.7994 29.8009 32.9411 28.0922 33.72 26.2116C34.499 24.3311 34.8999 22.3155 34.8999 20.28Z" fill="#AFAFAF"/>
<path opacity="0.24" d="M34.7798 20.1299C34.7798 17.0643 33.8707 14.0675 32.1676 11.5186C30.4644 8.96959 28.0436 6.98292 25.2114 5.80976C22.3791 4.6366 19.2626 4.32965 16.2559 4.92772C13.2492 5.52579 10.4874 7.00202 8.31964 9.16973C6.15192 11.3374 4.67569 14.0993 4.07762 17.106C3.47955 20.1127 3.7865 23.2292 4.95966 26.0615C6.13282 28.8937 8.11949 31.3145 10.6685 33.0177C13.2174 34.7208 16.2142 35.6299 19.2798 35.6299C23.3906 35.6299 27.3331 33.9969 30.2399 31.09C33.1468 28.1832 34.7798 24.2407 34.7798 20.1299Z" fill="#AFAFAF"/>
<path opacity="0.27" d="M34.6602 20C34.6602 16.9344 33.7511 13.9376 32.0479 11.3887C30.3448 8.83971 27.924 6.85303 25.0918 5.67987C22.2595 4.50672 19.143 4.19976 16.1363 4.79784C13.1296 5.39591 10.3677 6.87214 8.20001 9.03985C6.03229 11.2076 4.55606 13.9694 3.95799 16.9761C3.35992 19.9828 3.66687 23.0993 4.84003 25.9316C6.01319 28.7639 7.99986 31.1846 10.5488 32.8878C13.0978 34.5909 16.0946 35.5 19.1602 35.5C23.271 35.5 27.2135 33.867 30.1203 30.9602C33.0271 28.0533 34.6602 24.1109 34.6602 20V20Z" fill="#AFAFAF"/>
<path opacity="0.29" d="M34.5298 19.8301C34.5298 16.7657 33.6215 13.7702 31.9196 11.2218C30.2178 8.67354 27.7988 6.68685 24.9683 5.51282C22.1378 4.33878 19.0228 4.03008 16.0169 4.62573C13.011 5.22137 10.2491 6.69462 8.08024 8.85934C5.91133 11.0241 4.43274 13.7831 3.83129 16.7878C3.22983 19.7925 3.53251 22.9081 4.70107 25.7409C5.86963 28.5737 7.85163 30.9965 10.3966 32.7033C12.9417 34.41 15.9355 35.3241 18.9998 35.3301C21.0385 35.3366 23.0585 34.9404 24.9437 34.1642C26.8289 33.3879 28.5422 32.247 29.9852 30.8067C31.4282 29.3665 32.5725 27.6554 33.3524 25.7717C34.1323 23.888 34.5324 21.8688 34.5298 19.8301Z" fill="#AFAFAF"/>
<path opacity="0.32" d="M34.4102 19.6799C34.4102 16.6139 33.5009 13.6167 31.7972 11.0676C30.0936 8.51838 27.6723 6.53171 24.8394 5.35885C22.0066 4.18598 18.8896 3.87962 15.8826 4.4785C12.8756 5.07738 10.1138 6.55461 7.94647 8.72332C5.77916 10.892 4.30371 13.6548 3.70677 16.6622C3.10983 19.6695 3.41821 22.7864 4.5929 25.6185C5.76759 28.4505 7.75582 30.8706 10.3061 32.5726C12.8564 34.2745 15.8541 35.1819 18.9202 35.1799C20.9552 35.1799 22.9703 34.7789 24.8502 33.9999C26.7302 33.2208 28.4383 32.0789 29.8768 30.6395C31.3153 29.2 32.4561 27.4913 33.2339 25.6108C34.0118 23.7303 34.4115 21.715 34.4102 19.6799V19.6799Z" fill="#AFAFAF"/>
<path opacity="0.34" d="M34.29 19.53C34.296 16.4631 33.3919 13.4634 31.6924 10.9105C29.9928 8.3576 27.5742 6.36626 24.7424 5.1885C21.9107 4.01074 18.7932 3.69951 15.7845 4.29419C12.7759 4.88887 10.0112 6.36273 7.84051 8.52924C5.6698 10.6958 4.19058 13.4575 3.59008 16.4651C2.98957 19.4726 3.29476 22.5906 4.46704 25.4247C5.63931 28.2587 7.62596 30.6812 10.1756 32.3857C12.7252 34.0902 15.7231 35 18.79 35C22.8965 35.0027 26.836 33.3746 29.7425 30.4737C32.649 27.5728 34.2847 23.6365 34.29 19.53V19.53Z" fill="#AFAFAF"/>
<path opacity="0.37" d="M34.1699 19.3799C34.1699 16.3143 33.2609 13.3175 31.5577 10.7686C29.8545 8.21959 27.4338 6.23292 24.6015 5.05976C21.7693 3.8866 18.6527 3.57965 15.646 4.17772C12.6393 4.77579 9.87749 6.25202 7.70977 8.41973C5.54206 10.5874 4.06583 13.3493 3.46776 16.356C2.86969 19.3627 3.17664 22.4792 4.3498 25.3115C5.52295 28.1437 7.50963 30.5645 10.0586 32.2677C12.6076 33.9708 15.6043 34.8799 18.6699 34.8799C20.7058 34.8812 22.7219 34.4812 24.6031 33.7027C26.4842 32.9242 28.1934 31.7825 29.633 30.343C31.0726 28.9034 32.2143 27.1942 32.9927 25.313C33.7712 23.4319 34.1712 21.4157 34.1699 19.3799V19.3799Z" fill="#AFAFAF"/>
<path opacity="0.39" d="M34.0498 19.23C34.0498 16.1644 33.1408 13.1676 31.4376 10.6186C29.7344 8.06969 27.3137 6.08301 24.4814 4.90985C21.6492 3.7367 18.5326 3.42974 15.5259 4.02782C12.5192 4.62589 9.75737 6.10212 7.58966 8.26983C5.42194 10.4375 3.94571 13.1994 3.34764 16.2061C2.74957 19.2128 3.05652 22.3293 4.22968 25.1616C5.40284 27.9938 7.38951 30.4146 9.93847 32.1178C12.4874 33.8209 15.4842 34.73 18.5498 34.73C20.5857 34.7313 22.6018 34.3313 24.483 33.5528C26.3641 32.7743 28.0733 31.6326 29.5129 30.1931C30.9525 28.7535 32.0941 27.0443 32.8726 25.1631C33.6511 23.282 34.0511 21.2658 34.0498 19.23V19.23Z" fill="#AFAFAF"/>
<path opacity="0.41" d="M33.9199 19.0801C33.9199 16.014 33.0106 13.0169 31.307 10.4677C29.6034 7.91853 27.182 5.93186 24.3492 4.75899C21.5164 3.58613 18.3993 3.27976 15.3923 3.87865C12.3854 4.47753 9.62355 5.95475 7.45624 8.12347C5.28892 10.2922 3.81348 13.055 3.21654 16.0623C2.6196 19.0697 2.92798 22.1865 4.10267 25.0186C5.27736 27.8507 7.26559 30.2708 9.81587 31.9727C12.3661 33.6747 15.3639 34.5821 18.4299 34.5801C20.4649 34.5801 22.48 34.1791 24.36 33.4C26.24 32.6209 27.948 31.4791 29.3866 30.0396C30.8251 28.6002 31.9658 26.8914 32.7437 25.0109C33.5216 23.1304 33.9212 21.1151 33.9199 19.0801V19.0801Z" fill="#AFAFAF"/>
<path opacity="0.44" d="M33.7998 18.9299C33.7998 15.8639 32.8905 12.8667 31.1869 10.3176C29.4833 7.76838 27.0619 5.78171 24.2291 4.60885C21.3963 3.43598 18.2792 3.12962 15.2722 3.7285C12.2653 4.32738 9.50344 5.80461 7.33612 7.97332C5.16881 10.142 3.69336 12.9048 3.09642 15.9122C2.49948 18.9195 2.80786 22.0364 3.98255 24.8685C5.15724 27.7005 7.14547 30.1206 9.69575 31.8226C12.246 33.5245 15.2438 34.4319 18.3098 34.4299C22.4189 34.4273 26.3589 32.7931 29.2635 29.8866C32.1682 26.98 33.7998 23.0391 33.7998 18.9299Z" fill="#AFAFAF"/>
<path opacity="0.46" d="M33.6802 18.78C33.6802 15.7144 32.7711 12.7177 31.068 10.1687C29.3648 7.61974 26.944 5.63306 24.1118 4.4599C21.2795 3.28675 18.163 2.97979 15.1563 3.57786C12.1496 4.17594 9.38774 5.65217 7.22003 7.81988C5.05231 9.98759 3.57608 12.7494 2.97801 15.7561C2.37994 18.7628 2.68689 21.8794 3.86005 24.7116C5.03321 27.5439 7.01988 29.9647 9.56884 31.6678C12.1178 33.371 15.1146 34.28 18.1802 34.28C22.291 34.28 26.2335 32.647 29.1403 29.7402C32.0472 26.8334 33.6802 22.8909 33.6802 18.78V18.78Z" fill="#AFAFAF"/>
<path opacity="0.49" d="M33.5601 18.6399C33.562 15.5739 32.6547 12.5761 30.9527 10.0258C29.2507 7.47555 26.8307 5.48732 23.9986 4.31263C21.1665 3.13794 18.0497 2.82956 15.0423 3.4265C12.0349 4.02344 9.27216 5.49888 7.10345 7.6662C4.93473 9.83351 3.45751 12.5953 2.85863 15.6023C2.25974 18.6093 2.56611 21.7263 3.73898 24.5592C4.91184 27.392 6.89851 29.8134 9.44769 31.517C11.9969 33.2206 14.994 34.1299 18.0601 34.1299C22.1692 34.1299 26.1102 32.4982 29.0167 29.5936C31.9232 26.6889 33.5574 22.749 33.5601 18.6399Z" fill="#AFAFAF"/>
<path opacity="0.51" d="M33.4399 18.49C33.438 15.4248 32.5272 12.429 30.8229 9.88139C29.1185 7.33375 26.697 5.34863 23.8646 4.17701C21.0322 3.00538 17.916 2.69986 14.9099 3.29906C11.9039 3.89826 9.14297 5.37528 6.97626 7.54339C4.80955 9.7115 3.33431 12.4734 2.73705 15.4798C2.13978 18.4862 2.44732 21.6022 3.62077 24.4339C4.79422 27.2656 6.7809 29.6858 9.32965 31.3885C11.8784 33.0912 14.8748 34 17.9399 34C19.9763 34 21.9926 33.5988 23.8738 32.8192C25.755 32.0396 27.4642 30.897 28.9036 29.4566C30.3431 28.0163 31.4846 26.3064 32.2629 24.4247C33.0413 22.543 33.4413 20.5263 33.4399 18.49V18.49Z" fill="#AFAFAF"/>
<path opacity="0.54" d="M33.3101 18.3401C33.312 15.2736 32.4044 12.2755 30.702 9.72498C28.9996 7.17449 26.5789 5.18626 23.7463 4.01187C20.9136 2.83747 17.7963 2.52967 14.7886 3.12743C11.781 3.72518 9.01823 5.20161 6.84991 7.36993C4.68159 9.53825 3.20516 12.301 2.60741 15.3086C2.00965 18.3163 2.31745 21.4336 3.49185 24.2663C4.66624 27.099 6.65447 29.5196 9.20496 31.222C11.7555 32.9244 14.7536 33.8321 17.8201 33.8301C21.9283 33.8301 25.8682 32.1981 28.7731 29.2932C31.6781 26.3882 33.3101 22.4483 33.3101 18.3401V18.3401Z" fill="#AFAFAF"/>
<path opacity="0.56" d="M33.1899 18.1899C33.1919 15.1235 32.2843 12.1253 30.5819 9.57484C28.8795 7.02434 26.4588 5.03612 23.6262 3.86172C20.7935 2.68732 17.6761 2.37953 14.6685 2.97728C11.6609 3.57503 8.89811 5.05147 6.72979 7.21978C4.56148 9.3881 3.08504 12.1509 2.48729 15.1585C1.88954 18.1661 2.19733 21.2835 3.37173 24.1161C4.54613 26.9488 6.53435 29.3695 9.08485 31.0719C11.6353 32.7743 14.6335 33.6819 17.6999 33.6799C21.8073 33.6773 25.7457 32.0445 28.6501 29.1401C31.5545 26.2357 33.1873 22.2973 33.1899 18.1899V18.1899Z" fill="#AFAFAF"/>
<path opacity="0.59" d="M33.0698 18C33.0718 14.934 32.1644 11.9362 30.4625 9.38594C28.7605 6.83566 26.3404 4.84743 23.5084 3.67274C20.6763 2.49804 17.5594 2.18967 14.5521 2.78661C11.5447 3.38355 8.78193 4.85899 6.61321 7.02631C4.4445 9.19362 2.96727 11.9554 2.36839 14.9624C1.76951 17.9694 2.07588 21.0864 3.24874 23.9193C4.4216 26.7521 6.40827 29.1735 8.95745 30.8771C11.5066 32.5807 14.5038 33.49 17.5698 33.49C21.679 33.49 25.6199 31.8583 28.5264 28.9537C31.433 26.049 33.0672 22.1091 33.0698 18Z" fill="#AFAFAF"/>
<path opacity="0.61" d="M33 17.8899C33 14.8243 32.0909 11.8275 30.3878 9.27856C28.6846 6.7296 26.2639 4.74293 23.4316 3.56977C20.5993 2.39661 17.4828 2.08966 14.4761 2.68773C11.4694 3.2858 8.70757 4.76203 6.53985 6.92974C4.37214 9.09746 2.89591 11.8593 2.29784 14.866C1.69976 17.8727 2.00672 20.9892 3.17987 23.8215C4.35303 26.6537 6.33971 29.0745 8.88867 30.7777C11.4376 32.4808 14.4344 33.3899 17.5 33.3899C21.6109 33.3899 25.5533 31.7569 28.4602 28.8501C31.367 25.9432 33 22.0008 33 17.8899V17.8899Z" fill="#AFAFAF"/>
<path opacity="0.63" d="M32.8198 17.74C32.8198 14.674 31.9105 11.6768 30.2069 9.12762C28.5033 6.57844 26.082 4.59177 23.2491 3.41891C20.4163 2.24604 17.2992 1.93968 14.2923 2.53856C11.2853 3.13744 8.52346 4.61466 6.35614 6.78338C4.18882 8.95209 2.71338 11.7149 2.11644 14.7222C1.5195 17.7296 1.82788 20.8464 3.00257 23.6785C4.17726 26.5106 6.16549 28.9307 8.71577 30.6326C11.266 32.3346 14.2638 33.242 17.3298 33.24C19.3648 33.24 21.3799 32.839 23.2599 32.0599C25.1399 31.2809 26.8479 30.139 28.2865 28.6995C29.725 27.2601 30.8657 25.5513 31.6436 23.6708C32.4215 21.7903 32.8211 19.775 32.8198 17.74V17.74Z" fill="#AFAFAF"/>
<path opacity="0.66" d="M32.7002 17.5901C32.7002 14.5241 31.7909 11.5269 30.0873 8.97771C28.3837 6.42854 25.9623 4.44187 23.1295 3.269C20.2966 2.09614 17.1796 1.78977 14.1726 2.38866C11.1656 2.98754 8.40383 4.46476 6.23651 6.63348C4.0692 8.80219 2.59375 11.565 1.99681 14.5723C1.39987 17.5797 1.70825 20.6965 2.88294 23.5286C4.05763 26.3607 6.04586 28.7808 8.59614 30.4827C11.1464 32.1847 14.1442 33.0921 17.2102 33.0901C21.3193 33.0874 25.2592 31.4532 28.1639 28.5467C31.0685 25.6402 32.7002 21.6992 32.7002 17.5901Z" fill="#AFAFAF"/>
<path opacity="0.68" d="M32.5801 17.4399C32.5801 14.3743 31.671 11.3776 29.9679 8.82861C28.2647 6.27965 25.8439 4.29297 23.0117 3.11982C20.1794 1.94666 17.0629 1.63971 14.0562 2.23778C11.0495 2.83585 8.28764 4.31208 6.11993 6.47979C3.95222 8.64751 2.47598 11.4093 1.87791 14.416C1.27984 17.4228 1.58679 20.5393 2.75995 23.3715C3.93311 26.2038 5.91978 28.6246 8.46875 30.3277C11.0177 32.0309 14.0145 32.9399 17.0801 32.9399C21.1909 32.9399 25.1334 31.3069 28.0402 28.4001C30.9471 25.4933 32.5801 21.5508 32.5801 17.4399V17.4399Z" fill="#AFAFAF"/>
<path opacity="0.71" d="M32.46 17.29C32.46 14.2227 31.5499 11.2243 29.8449 8.67451C28.14 6.12469 25.7169 4.13805 22.8823 2.96607C20.0477 1.7941 16.9291 1.48949 13.9213 2.09081C10.9135 2.69213 8.15177 4.17234 5.98566 6.34406C3.81955 8.51578 2.34648 11.2814 1.75294 14.2907C1.15939 17.3 1.47205 20.4178 2.65135 23.2494C3.83064 26.0809 5.82354 28.4989 8.37776 30.1972C10.932 31.8956 13.9327 32.7979 17 32.79C21.1039 32.7794 25.0361 31.1417 27.9343 28.236C30.8324 25.3304 32.46 21.3939 32.46 17.29V17.29Z" fill="#AFAFAF"/>
<path opacity="0.73" d="M32.3399 17.1399C32.3399 14.0743 31.4308 11.0775 29.7276 8.52856C28.0245 5.9796 25.6037 3.99292 22.7714 2.81977C19.9392 1.64661 16.8227 1.33966 13.816 1.93773C10.8092 2.5358 8.04741 4.01203 5.8797 6.17974C3.71198 8.34746 2.23575 11.1093 1.63768 14.116C1.03961 17.1227 1.34656 20.2392 2.51972 23.0715C3.69288 25.9037 5.67955 28.3245 8.22851 30.0277C10.7775 31.7308 13.7742 32.6399 16.8399 32.6399C20.9507 32.6399 24.8932 31.0069 27.8 28.1001C30.7068 25.1932 32.3399 21.2508 32.3399 17.1399Z" fill="#AFAFAF"/>
<path opacity="0.76" d="M32.21 17C32.21 13.934 31.3007 10.9368 29.597 8.38763C27.8934 5.83845 25.4721 3.85178 22.6392 2.67892C19.8064 1.50605 16.6894 1.19969 13.6824 1.79857C10.6754 2.39745 7.91359 3.87468 5.74628 6.04339C3.57896 8.2121 2.10352 10.9749 1.50658 13.9822C0.909637 16.9896 1.21802 20.1065 2.39271 22.9385C3.5674 25.7706 5.55563 28.1907 8.10591 29.8926C10.6562 31.5946 13.6539 32.502 16.72 32.5C18.755 32.5 20.7701 32.099 22.65 31.3199C24.53 30.5409 26.2381 29.399 27.6766 27.9596C29.1151 26.5201 30.2559 24.8113 31.0337 22.9308C31.8116 21.0504 32.2113 19.035 32.21 17V17Z" fill="#AFAFAF"/>
<path opacity="0.78" d="M32.0899 16.8401C32.0899 13.7741 31.1805 10.7769 29.4769 8.22771C27.7733 5.67854 25.352 3.69187 22.5191 2.519C19.6863 1.34614 16.5692 1.03977 13.5623 1.63866C10.5553 2.23754 7.79347 3.71476 5.62616 5.88348C3.45884 8.05219 1.9834 10.815 1.38646 13.8223C0.789519 16.8297 1.0979 19.9465 2.27259 22.7786C3.44728 25.6107 5.43551 28.0308 7.98579 29.7327C10.5361 31.4347 13.5338 32.3421 16.5999 32.3401C18.6349 32.3401 20.6499 31.9391 22.5299 31.16C24.4099 30.381 26.118 29.2391 27.5565 27.7996C28.995 26.3602 30.1358 24.6514 30.9136 22.7709C31.6915 20.8904 32.0912 18.8751 32.0899 16.8401V16.8401Z" fill="#AFAFAF"/>
<path opacity="0.8" d="M32 16.6899C32 13.6243 31.0909 10.6276 29.3878 8.07861C27.6846 5.52965 25.2639 3.54297 22.4316 2.36982C19.5993 1.19666 16.4828 0.889706 13.4761 1.48778C10.4694 2.08585 7.70757 3.56208 5.53985 5.72979C3.37214 7.89751 1.89591 10.6593 1.29784 13.666C0.699764 16.6728 1.00672 19.7893 2.17987 22.6215C3.35303 25.4538 5.33971 27.8746 7.88867 29.5777C10.4376 31.2809 13.4344 32.1899 16.5 32.1899C18.5359 32.1913 20.552 31.7912 22.4332 31.0128C24.3143 30.2343 26.0235 29.0926 27.4631 27.653C28.9027 26.2135 30.0443 24.5042 30.8228 22.6231C31.6013 20.742 32.0013 18.7258 32 16.6899V16.6899Z" fill="#AFAFAF"/>
<path opacity="0.83" d="M31.8501 16.54C31.858 13.4727 30.9556 10.472 29.2573 7.9178C27.559 5.36358 25.141 3.37068 22.3094 2.19139C19.4779 1.01209 16.3601 0.699428 13.3507 1.29297C10.3414 1.88652 7.57584 3.35959 5.40412 5.5257C3.2324 7.69181 1.75219 10.4536 1.15087 13.4614C0.549552 16.4692 0.854159 19.5877 2.02613 22.4223C3.19811 25.2569 5.18475 27.68 7.73457 29.385C10.2844 31.0899 13.2827 32 16.3501 32C20.4548 32.0027 24.3928 30.376 27.299 27.4772C30.2052 24.5785 31.8421 20.6447 31.8501 16.54Z" fill="#AFAFAF"/>
<path opacity="0.85" d="M31.73 16.3899C31.73 13.3243 30.8209 10.3275 29.1178 7.77856C27.4146 5.2296 24.9938 3.24292 22.1616 2.06977C19.3293 0.896608 16.2128 0.589657 13.2061 1.18773C10.1994 1.7858 7.43755 3.26203 5.26983 5.42974C3.10212 7.59746 1.62589 10.3593 1.02782 13.366C0.429745 16.3727 0.736696 19.4892 1.90985 22.3215C3.08301 25.1537 5.06969 27.5745 7.61865 29.2777C10.1676 30.9808 13.1644 31.8899 16.23 31.8899C18.2658 31.8912 20.282 31.4912 22.1631 30.7127C24.0443 29.9342 25.7535 28.7926 27.1931 27.353C28.6326 25.9134 29.7743 24.2042 30.5528 22.323C31.3313 20.4419 31.7313 18.4258 31.73 16.3899V16.3899Z" fill="#AFAFAF"/>
<path opacity="0.88" d="M31.6001 16.24C31.6001 13.174 30.6908 10.1768 28.9872 7.62762C27.2836 5.07844 24.8622 3.09177 22.0294 1.91891C19.1965 0.746043 16.0795 0.439676 13.0725 1.03856C10.0655 1.63744 7.30373 3.11466 5.13641 5.28338C2.9691 7.45209 1.49366 10.2149 0.896715 13.2222C0.299773 16.2296 0.608152 19.3464 1.78284 22.1785C2.95754 25.0106 4.94577 27.4307 7.49604 29.1326C10.0463 30.8346 13.0441 31.742 16.1101 31.74C18.1451 31.74 20.1602 31.339 22.0402 30.5599C23.9202 29.7809 25.6282 28.639 27.0667 27.1995C28.5052 25.7601 29.646 24.0513 30.4239 22.1708C31.2017 20.2903 31.6014 18.275 31.6001 16.24V16.24Z" fill="#AFAFAF"/>
<path opacity="0.9" d="M31.48 16.0901C31.48 13.0236 30.5704 10.0261 28.8664 7.47667C27.1623 4.92727 24.7404 2.94061 21.907 1.76805C19.0735 0.595477 15.956 0.289696 12.9487 0.88939C9.94147 1.48908 7.17967 2.9673 5.01276 5.13702C2.84584 7.30673 1.37119 10.0704 0.775381 13.0785C0.179571 16.0865 0.489377 19.2036 1.6656 22.0355C2.84183 24.8675 4.83161 27.2868 7.38321 28.9876C9.9348 30.6883 12.9335 31.594 16 31.5901C20.1074 31.5848 24.0447 29.9494 26.9472 27.0432C29.8497 24.1369 31.48 20.1975 31.48 16.0901V16.0901Z" fill="#AFAFAF"/>
<path opacity="0.93" d="M31.3599 15.9399C31.3599 12.8743 30.4508 9.87757 28.7477 7.32861C27.0445 4.77965 24.6237 2.79297 21.7915 1.61982C18.9592 0.446657 15.8427 0.139706 12.836 0.737777C9.82926 1.33585 7.06743 2.81208 4.89972 4.97979C2.732 7.14751 1.25577 9.90934 0.657698 12.916C0.0596275 15.9228 0.366579 19.0393 1.53974 21.8715C2.7129 24.7038 4.69957 27.1246 7.24853 28.8277C9.79749 30.5309 12.7943 31.4399 15.8599 31.4399C19.9707 31.4399 23.9132 29.8069 26.82 26.9001C29.7268 23.9933 31.3599 20.0508 31.3599 15.9399V15.9399Z" fill="#AFAFAF"/>
<path opacity="0.95" d="M31.2402 15.79C31.2402 12.7244 30.3312 9.72767 28.628 7.17871C26.9249 4.62975 24.5041 2.64307 21.6718 1.46991C18.8396 0.296755 15.723 -0.0101967 12.7163 0.587874C9.70964 1.18595 6.9478 2.66218 4.78009 4.82989C2.61237 6.99761 1.13614 9.75944 0.538069 12.7661C-0.0600014 15.7729 0.24695 18.8894 1.42011 21.7216C2.59327 24.5539 4.57994 26.9747 7.1289 28.6778C9.67786 30.381 12.6746 31.29 15.7402 31.29C19.8511 31.29 23.7936 29.657 26.7004 26.7502C29.6072 23.8434 31.2402 19.9009 31.2402 15.79V15.79Z" fill="#AFAFAF"/>
<path opacity="0.98" d="M31.1201 15.6499C31.1221 12.5839 30.2147 9.58611 28.5128 7.03584C26.8108 4.48556 24.3907 2.49733 21.5586 1.32264C18.7266 0.147947 15.6097 -0.160432 12.6024 0.436509C9.59499 1.03345 6.83222 2.50889 4.66351 4.67621C2.49479 6.84352 1.01757 9.60534 0.418685 12.6123C-0.180197 15.6193 0.12617 18.7363 1.29903 21.5692C2.4719 24.402 4.45857 26.8234 7.00774 28.527C9.55692 30.2306 12.5541 31.1399 15.6201 31.1399C19.7292 31.1399 23.6702 29.5082 26.5767 26.6036C29.4833 23.6989 31.1175 19.759 31.1201 15.6499V15.6499Z" fill="#AFAFAF"/>
<path d="M31 15.5C31 12.4344 30.0909 9.43763 28.3878 6.88867C26.6846 4.33971 24.2639 2.35303 21.4316 1.17987C18.5993 0.00671589 15.4828 -0.300236 12.4761 0.297835C9.4694 0.895906 6.70757 2.37214 4.53985 4.53985C2.37214 6.70757 0.895906 9.4694 0.297835 12.4761C-0.300236 15.4828 0.00671589 18.5993 1.17987 21.4316C2.35303 24.2639 4.33971 26.6846 6.88867 28.3878C9.43763 30.0909 12.4344 31 15.5 31C17.5359 31.0013 19.552 30.6013 21.4332 29.8228C23.3143 29.0443 25.0235 27.9027 26.4631 26.4631C27.9027 25.0235 29.0443 23.3143 29.8228 21.4332C30.6013 19.552 31.0013 17.5359 31 15.5V15.5Z" fill="#AFAFAF"/>
<path d="M31 15.5C31 12.4344 30.0909 9.43763 28.3878 6.88867C26.6846 4.33971 24.2639 2.35303 21.4316 1.17987C18.5993 0.00671589 15.4828 -0.300236 12.4761 0.297835C9.4694 0.895906 6.70757 2.37214 4.53985 4.53985C2.37214 6.70757 0.895906 9.4694 0.297835 12.4761C-0.300236 15.4828 0.00671589 18.5993 1.17987 21.4316C2.35303 24.2639 4.33971 26.6846 6.88867 28.3878C9.43763 30.0909 12.4344 31 15.5 31C17.5359 31.0013 19.552 30.6013 21.4332 29.8228C23.3143 29.0443 25.0235 27.9027 26.4631 26.4631C27.9027 25.0235 29.0443 23.3143 29.8228 21.4332C30.6013 19.552 31.0013 17.5359 31 15.5V15.5Z" fill="#D40C18"/>
<path d="M17.5802 9.78003H13.4202C10.2611 9.78003 7.7002 12.341 7.7002 15.5C7.7002 18.6591 10.2611 21.22 13.4202 21.22H17.5802C20.7393 21.22 23.3002 18.6591 23.3002 15.5C23.3002 12.341 20.7393 9.78003 17.5802 9.78003Z" fill="white"/>
<path d="M18.6699 15.5299L13.4599 18.3499C13.4196 18.37 13.375 18.3796 13.33 18.378C13.285 18.3764 13.2412 18.3636 13.2025 18.3408C13.1637 18.3179 13.1313 18.2857 13.1081 18.2472C13.085 18.2086 13.0718 18.1649 13.0699 18.1199V12.4699C13.069 12.4239 13.0804 12.3784 13.1029 12.3382C13.1253 12.298 13.1581 12.2645 13.1977 12.2411C13.2374 12.2177 13.2826 12.2053 13.3286 12.2051C13.3747 12.2049 13.42 12.2169 13.4599 12.2399L18.6699 15.0699C18.7117 15.092 18.7468 15.1251 18.7713 15.1656C18.7957 15.2062 18.8086 15.2526 18.8086 15.2999C18.8086 15.3473 18.7957 15.3937 18.7713 15.4342C18.7468 15.4748 18.7117 15.5079 18.6699 15.5299V15.5299Z" fill="#DB0C0B"/>
</g>
<defs>
<clipPath id="clip0">
<rect width="36" height="37.12" fill="white"/>
</clipPath>
</defs>
</svg>
