<svg xmlns="http://www.w3.org/2000/svg" viewBox="0 0 166.82 172.02"><defs><style>.cls-1,.cls-10,.cls-11,.cls-12,.cls-13,.cls-14,.cls-15,.cls-16,.cls-17,.cls-18,.cls-19,.cls-2,.cls-20,.cls-21,.cls-22,.cls-23,.cls-24,.cls-25,.cls-26,.cls-27,.cls-28,.cls-29,.cls-3,.cls-30,.cls-31,.cls-32,.cls-33,.cls-34,.cls-35,.cls-36,.cls-37,.cls-38,.cls-39,.cls-4,.cls-40,.cls-41,.cls-42,.cls-5,.cls-6,.cls-7,.cls-8,.cls-9{fill:#afafaf;}.cls-1{opacity:0;}.cls-2{opacity:0.02;}.cls-3{opacity:0.05;}.cls-4{opacity:0.07;}.cls-5{opacity:0.1;}.cls-6{opacity:0.12;}.cls-7{opacity:0.15;}.cls-8{opacity:0.17;}.cls-9{opacity:0.2;}.cls-10{opacity:0.22;}.cls-11{opacity:0.24;}.cls-12{opacity:0.27;}.cls-13{opacity:0.29;}.cls-14{opacity:0.32;}.cls-15{opacity:0.34;}.cls-16{opacity:0.37;}.cls-17{opacity:0.39;}.cls-18{opacity:0.41;}.cls-19{opacity:0.44;}.cls-20{opacity:0.46;}.cls-21{opacity:0.49;}.cls-22{opacity:0.51;}.cls-23{opacity:0.54;}.cls-24{opacity:0.56;}.cls-25{opacity:0.59;}.cls-26{opacity:0.61;}.cls-27{opacity:0.63;}.cls-28{opacity:0.66;}.cls-29{opacity:0.68;}.cls-30{opacity:0.71;}.cls-31{opacity:0.73;}.cls-32{opacity:0.76;}.cls-33{opacity:0.78;}.cls-34{opacity:0.8;}.cls-35{opacity:0.83;}.cls-36{opacity:0.85;}.cls-37{opacity:0.88;}.cls-38{opacity:0.9;}.cls-39{opacity:0.93;}.cls-40{opacity:0.95;}.cls-41{opacity:0.98;}.cls-43{fill:#d40c18;}.cls-44{fill:#fff;}.cls-45{fill:#db0c0b;}</style></defs><g id="Layer_2" data-name="Layer 2"><g id="OBJECTS"><path class="cls-1" d="M166.82,100.21A71.81,71.81,0,1,0,95,172,71.81,71.81,0,0,0,166.82,100.21Z"/><path class="cls-2" d="M166.25,99.51a71.81,71.81,0,1,0-71.8,71.82A71.81,71.81,0,0,0,166.25,99.51Z"/><path class="cls-3" d="M165.69,98.82a71.81,71.81,0,1,0-71.81,71.81A71.8,71.8,0,0,0,165.69,98.82Z"/><path class="cls-4" d="M165.12,98.13a71.81,71.81,0,1,0-71.81,71.81A71.81,71.81,0,0,0,165.12,98.13Z"/><path class="cls-5" d="M164.55,97.43a71.81,71.81,0,1,0-71.8,71.82A71.8,71.8,0,0,0,164.55,97.43Z"/><path class="cls-6" d="M164,96.74a71.81,71.81,0,1,0-71.81,71.82A71.81,71.81,0,0,0,164,96.74Z"/><path class="cls-7" d="M163.42,96.05a71.81,71.81,0,1,0-71.8,71.81A71.8,71.8,0,0,0,163.42,96.05Z"/><path class="cls-8" d="M162.86,95.36a71.81,71.81,0,1,0-71.81,71.81A71.81,71.81,0,0,0,162.86,95.36Z"/><path class="cls-9" d="M162.29,94.66a71.81,71.81,0,1,0-71.81,71.82A71.81,71.81,0,0,0,162.29,94.66Z"/><path class="cls-10" d="M161.72,94a71.81,71.81,0,1,0-71.8,71.82A71.79,71.79,0,0,0,161.72,94Z"/><path class="cls-11" d="M161.16,93.28a71.81,71.81,0,1,0-71.81,71.81A71.81,71.81,0,0,0,161.16,93.28Z"/><path class="cls-12" d="M160.59,92.59a71.81,71.81,0,1,0-71.8,71.81A71.81,71.81,0,0,0,160.59,92.59Z"/><path class="cls-13" d="M160,91.89a71.81,71.81,0,1,0-71.81,71.82A71.81,71.81,0,0,0,160,91.89Z"/><path class="cls-14" d="M159.46,91.2A71.81,71.81,0,1,0,87.65,163,71.8,71.8,0,0,0,159.46,91.2Z"/><path class="cls-15" d="M158.89,90.51a71.81,71.81,0,1,0-71.8,71.81A71.8,71.8,0,0,0,158.89,90.51Z"/><path class="cls-16" d="M158.33,89.81a71.81,71.81,0,1,0-71.81,71.82A71.81,71.81,0,0,0,158.33,89.81Z"/><path class="cls-17" d="M157.76,89.12A71.81,71.81,0,1,0,86,160.94,71.81,71.81,0,0,0,157.76,89.12Z"/><path class="cls-18" d="M157.2,88.43a71.81,71.81,0,1,0-71.81,71.81A71.8,71.8,0,0,0,157.2,88.43Z"/><path class="cls-19" d="M156.63,87.74a71.81,71.81,0,1,0-71.8,71.81A71.81,71.81,0,0,0,156.63,87.74Z"/><path class="cls-20" d="M156.07,87a71.81,71.81,0,1,0-71.81,71.82A71.81,71.81,0,0,0,156.07,87Z"/><path class="cls-21" d="M155.5,86.35a71.81,71.81,0,1,0-71.81,71.82A71.8,71.8,0,0,0,155.5,86.35Z"/><path class="cls-22" d="M154.93,85.66a71.81,71.81,0,1,0-71.8,71.81A71.8,71.8,0,0,0,154.93,85.66Z"/><path class="cls-23" d="M154.37,85a71.81,71.81,0,1,0-71.81,71.81A71.81,71.81,0,0,0,154.37,85Z"/><path class="cls-24" d="M153.8,84.27A71.81,71.81,0,1,0,82,156.09,71.81,71.81,0,0,0,153.8,84.27Z"/><path class="cls-25" d="M153.24,83.58a71.81,71.81,0,1,0-71.81,71.81A71.8,71.8,0,0,0,153.24,83.58Z"/><path class="cls-26" d="M152.67,82.89A71.81,71.81,0,1,0,80.86,154.7,71.81,71.81,0,0,0,152.67,82.89Z"/><path class="cls-27" d="M152.1,82.19A71.81,71.81,0,1,0,80.3,154,71.8,71.8,0,0,0,152.1,82.19Z"/><path class="cls-28" d="M151.54,81.5a71.81,71.81,0,1,0-71.81,71.82A71.81,71.81,0,0,0,151.54,81.5Z"/><path class="cls-29" d="M151,80.81a71.81,71.81,0,1,0-71.8,71.81A71.8,71.8,0,0,0,151,80.81Z"/><path class="cls-30" d="M150.41,80.12A71.81,71.81,0,1,0,78.6,151.93,71.81,71.81,0,0,0,150.41,80.12Z"/><path class="cls-31" d="M149.84,79.42A71.81,71.81,0,1,0,78,151.24,71.81,71.81,0,0,0,149.84,79.42Z"/><path class="cls-32" d="M149.27,78.73a71.81,71.81,0,1,0-71.8,71.82A71.79,71.79,0,0,0,149.27,78.73Z"/><path class="cls-33" d="M148.71,78A71.81,71.81,0,1,0,76.9,149.85,71.81,71.81,0,0,0,148.71,78Z"/><path class="cls-34" d="M148.14,77.35a71.81,71.81,0,1,0-71.8,71.81A71.81,71.81,0,0,0,148.14,77.35Z"/><path class="cls-35" d="M147.58,76.65a71.81,71.81,0,1,0-71.81,71.82A71.81,71.81,0,0,0,147.58,76.65Z"/><path class="cls-36" d="M147,76a71.81,71.81,0,1,0-71.8,71.81A71.8,71.8,0,0,0,147,76Z"/><path class="cls-37" d="M146.45,75.27a71.81,71.81,0,1,0-71.81,71.81A71.81,71.81,0,0,0,146.45,75.27Z"/><path class="cls-38" d="M145.88,74.57a71.81,71.81,0,1,0-71.81,71.82A71.81,71.81,0,0,0,145.88,74.57Z"/><path class="cls-39" d="M145.31,73.88a71.81,71.81,0,1,0-71.8,71.82A71.81,71.81,0,0,0,145.31,73.88Z"/><path class="cls-40" d="M144.75,73.19A71.81,71.81,0,1,0,72.94,145,71.8,71.8,0,0,0,144.75,73.19Z"/><path class="cls-41" d="M144.18,72.5a71.81,71.81,0,1,0-71.8,71.81A71.81,71.81,0,0,0,144.18,72.5Z"/><path class="cls-42" d="M143.62,71.8a71.81,71.81,0,1,0-71.81,71.82A71.81,71.81,0,0,0,143.62,71.8Z"/><path class="cls-43" d="M143.62,71.8a71.81,71.81,0,1,0-71.81,71.82A71.81,71.81,0,0,0,143.62,71.8Z"/><rect class="cls-44" x="35.68" y="45.32" width="72.27" height="53" rx="17.78"/><path class="cls-45" d="M86.5,72,62.36,85A1.21,1.21,0,0,1,60.58,84V57.77a1.21,1.21,0,0,1,1.79-1.06L86.5,69.85A1.21,1.21,0,0,1,86.5,72Z"/></g></g></svg>